<?xml version="1.0" encoding="UTF-8" standalone="no"?>
<svg
   xmlns:dc="http://purl.org/dc/elements/1.1/"
   xmlns:cc="http://creativecommons.org/ns#"
   xmlns:rdf="http://www.w3.org/1999/02/22-rdf-syntax-ns#"
   xmlns:svg="http://www.w3.org/2000/svg"
   xmlns="http://www.w3.org/2000/svg"
   xmlns:sodipodi="http://sodipodi.sourceforge.net/DTD/sodipodi-0.dtd"
   xmlns:inkscape="http://www.inkscape.org/namespaces/inkscape"
   width="281pt"
   height="211pt"
   viewBox="0 0 281 211"
   version="1.2"
   id="svg219"
   sodipodi:docname="art3-spec-hills.svg"
   inkscape:version="0.92.5 (2060ec1f9f, 2020-04-08)">
  <metadata
     id="metadata225">
    <rdf:RDF>
      <cc:Work
         rdf:about="">
        <dc:format>image/svg+xml</dc:format>
        <dc:type
           rdf:resource="http://purl.org/dc/dcmitype/StillImage" />
        <dc:title></dc:title>
      </cc:Work>
    </rdf:RDF>
  </metadata>
  <defs
     id="defs223">
    <marker
       inkscape:stockid="Arrow1Mend"
       orient="auto"
       refY="0.0"
       refX="0.0"
       id="Arrow1Mend"
       style="overflow:visible;"
       inkscape:isstock="true">
      <path
         id="path1043"
         d="M 0.0,0.0 L 5.0,-5.0 L -12.5,0.0 L 5.0,5.0 L 0.0,0.0 z "
         style="fill-rule:evenodd;stroke:#ff0000;stroke-width:1pt;stroke-opacity:1;fill:#ff0000;fill-opacity:1"
         transform="scale(0.4) rotate(180) translate(10,0)" />
    </marker>
    <marker
       inkscape:stockid="Arrow1Mend"
       orient="auto"
       refY="0"
       refX="0"
       id="Arrow1Mend-3"
       style="overflow:visible"
       inkscape:isstock="true">
      <path
         inkscape:connector-curvature="0"
         id="path1043-6"
         d="M 0,0 5,-5 -12.5,0 5,5 Z"
         style="fill:#ff0000;fill-opacity:1;fill-rule:evenodd;stroke:#ff0000;stroke-width:1.00000003pt;stroke-opacity:1"
         transform="matrix(-0.4,0,0,-0.4,-4,0)" />
    </marker>
  </defs>
  <sodipodi:namedview
     pagecolor="#ffffff"
     bordercolor="#666666"
     borderopacity="1"
     objecttolerance="10"
     gridtolerance="10"
     guidetolerance="10"
     inkscape:pageopacity="0"
     inkscape:pageshadow="2"
     inkscape:window-width="1600"
     inkscape:window-height="782"
     id="namedview221"
     showgrid="false"
     inkscape:zoom="2.3726616"
     inkscape:cx="168.18565"
     inkscape:cy="125.49985"
     inkscape:window-x="0"
     inkscape:window-y="27"
     inkscape:window-maximized="1"
     inkscape:current-layer="svg219" />
  <g
     id="surface754">
    <path
       style=" stroke:none;fill-rule:nonzero;fill:rgb(100%,100%,100%);fill-opacity:1;"
       d="M 0 211 L 279.75 211 L 279.75 1 L 0 1 Z M 0 211 "
       id="path2" />
    <path
       style=" stroke:none;fill-rule:nonzero;fill:rgb(100%,100%,100%);fill-opacity:1;"
       d="M 36 181 L 253.5 181 L 253.5 16.75 L 36 16.75 Z M 36 181 "
       id="path4" />
    <path
       style="fill:none;stroke-width:5.0025;stroke-linecap:butt;stroke-linejoin:round;stroke:rgb(87.304688%,87.304688%,87.304688%);stroke-opacity:1;stroke-miterlimit:10;"
       d="M 490.976562 300 L 490.976562 1942.5 "
       transform="matrix(0.1,0,0,-0.1,0,211)"
       id="path6" />
    <path
       style="fill:none;stroke-width:5.0025;stroke-linecap:butt;stroke-linejoin:round;stroke:rgb(87.304688%,87.304688%,87.304688%);stroke-opacity:1;stroke-miterlimit:10;"
       d="M 968.164062 300 L 968.164062 1942.5 "
       transform="matrix(0.1,0,0,-0.1,0,211)"
       id="path8" />
    <path
       style="fill:none;stroke-width:5.0025;stroke-linecap:butt;stroke-linejoin:round;stroke:rgb(87.304688%,87.304688%,87.304688%);stroke-opacity:1;stroke-miterlimit:10;"
       d="M 1445.351562 300 L 1445.351562 1942.5 "
       transform="matrix(0.1,0,0,-0.1,0,211)"
       id="path10" />
    <path
       style="fill:none;stroke-width:5.0025;stroke-linecap:butt;stroke-linejoin:round;stroke:rgb(87.304688%,87.304688%,87.304688%);stroke-opacity:1;stroke-miterlimit:10;"
       d="M 1922.539062 300 L 1922.539062 1942.5 "
       transform="matrix(0.1,0,0,-0.1,0,211)"
       id="path12" />
    <path
       style="fill:none;stroke-width:5.0025;stroke-linecap:butt;stroke-linejoin:round;stroke:rgb(87.304688%,87.304688%,87.304688%);stroke-opacity:1;stroke-miterlimit:10;"
       d="M 2399.726562 300 L 2399.726562 1942.5 "
       transform="matrix(0.1,0,0,-0.1,0,211)"
       id="path14" />
    <path
       style="fill:none;stroke-width:5.0025;stroke-linecap:butt;stroke-linejoin:round;stroke:rgb(87.304688%,87.304688%,87.304688%);stroke-opacity:1;stroke-miterlimit:10;"
       d="M 2535 353.59375 L 360 353.59375 "
       transform="matrix(0.1,0,0,-0.1,0,211)"
       id="path16" />
    <path
       style="fill:none;stroke-width:5.0025;stroke-linecap:butt;stroke-linejoin:round;stroke:rgb(87.304688%,87.304688%,87.304688%);stroke-opacity:1;stroke-miterlimit:10;"
       d="M 2535 737.421875 L 360 737.421875 "
       transform="matrix(0.1,0,0,-0.1,0,211)"
       id="path18" />
    <path
       style="fill:none;stroke-width:5.0025;stroke-linecap:butt;stroke-linejoin:round;stroke:rgb(87.304688%,87.304688%,87.304688%);stroke-opacity:1;stroke-miterlimit:10;"
       d="M 2535 1121.25 L 360 1121.25 "
       transform="matrix(0.1,0,0,-0.1,0,211)"
       id="path20" />
    <path
       style="fill:none;stroke-width:5.0025;stroke-linecap:butt;stroke-linejoin:round;stroke:rgb(87.304688%,87.304688%,87.304688%);stroke-opacity:1;stroke-miterlimit:10;"
       d="M 2535 1505.078125 L 360 1505.078125 "
       transform="matrix(0.1,0,0,-0.1,0,211)"
       id="path22" />
    <path
       style="fill:none;stroke-width:5.0025;stroke-linecap:butt;stroke-linejoin:round;stroke:rgb(87.304688%,87.304688%,87.304688%);stroke-opacity:1;stroke-miterlimit:10;"
       d="M 2535 1888.90625 L 360 1888.90625 "
       transform="matrix(0.1,0,0,-0.1,0,211)"
       id="path24" />
    <path
       style="fill:none;stroke-width:5.0025;stroke-linecap:square;stroke-linejoin:round;stroke:rgb(14.892578%,14.892578%,14.892578%);stroke-opacity:1;stroke-miterlimit:10;"
       d="M 360 300 L 2535 300 "
       transform="matrix(0.1,0,0,-0.1,0,211)"
       id="path26" />
    <path
       style="fill:none;stroke-width:5.0025;stroke-linecap:square;stroke-linejoin:round;stroke:rgb(14.892578%,14.892578%,14.892578%);stroke-opacity:1;stroke-miterlimit:10;"
       d="M 360 1942.5 L 2535 1942.5 "
       transform="matrix(0.1,0,0,-0.1,0,211)"
       id="path28" />
    <path
       style="fill:none;stroke-width:5.0025;stroke-linecap:square;stroke-linejoin:round;stroke:rgb(14.892578%,14.892578%,14.892578%);stroke-opacity:1;stroke-miterlimit:10;"
       d="M 490.976562 300 L 490.976562 321.757812 "
       transform="matrix(0.1,0,0,-0.1,0,211)"
       id="path30" />
    <path
       style="fill:none;stroke-width:5.0025;stroke-linecap:square;stroke-linejoin:round;stroke:rgb(14.892578%,14.892578%,14.892578%);stroke-opacity:1;stroke-miterlimit:10;"
       d="M 968.164062 300 L 968.164062 321.757812 "
       transform="matrix(0.1,0,0,-0.1,0,211)"
       id="path32" />
    <path
       style="fill:none;stroke-width:5.0025;stroke-linecap:square;stroke-linejoin:round;stroke:rgb(14.892578%,14.892578%,14.892578%);stroke-opacity:1;stroke-miterlimit:10;"
       d="M 1445.351562 300 L 1445.351562 321.757812 "
       transform="matrix(0.1,0,0,-0.1,0,211)"
       id="path34" />
    <path
       style="fill:none;stroke-width:5.0025;stroke-linecap:square;stroke-linejoin:round;stroke:rgb(14.892578%,14.892578%,14.892578%);stroke-opacity:1;stroke-miterlimit:10;"
       d="M 1922.539062 300 L 1922.539062 321.757812 "
       transform="matrix(0.1,0,0,-0.1,0,211)"
       id="path36" />
    <path
       style="fill:none;stroke-width:5.0025;stroke-linecap:square;stroke-linejoin:round;stroke:rgb(14.892578%,14.892578%,14.892578%);stroke-opacity:1;stroke-miterlimit:10;"
       d="M 2399.726562 300 L 2399.726562 321.757812 "
       transform="matrix(0.1,0,0,-0.1,0,211)"
       id="path38" />
    <path
       style="fill:none;stroke-width:5.0025;stroke-linecap:square;stroke-linejoin:round;stroke:rgb(14.892578%,14.892578%,14.892578%);stroke-opacity:1;stroke-miterlimit:10;"
       d="M 490.976562 1942.5 L 490.976562 1920.742188 "
       transform="matrix(0.1,0,0,-0.1,0,211)"
       id="path40" />
    <path
       style="fill:none;stroke-width:5.0025;stroke-linecap:square;stroke-linejoin:round;stroke:rgb(14.892578%,14.892578%,14.892578%);stroke-opacity:1;stroke-miterlimit:10;"
       d="M 968.164062 1942.5 L 968.164062 1920.742188 "
       transform="matrix(0.1,0,0,-0.1,0,211)"
       id="path42" />
    <path
       style="fill:none;stroke-width:5.0025;stroke-linecap:square;stroke-linejoin:round;stroke:rgb(14.892578%,14.892578%,14.892578%);stroke-opacity:1;stroke-miterlimit:10;"
       d="M 1445.351562 1942.5 L 1445.351562 1920.742188 "
       transform="matrix(0.1,0,0,-0.1,0,211)"
       id="path44" />
    <path
       style="fill:none;stroke-width:5.0025;stroke-linecap:square;stroke-linejoin:round;stroke:rgb(14.892578%,14.892578%,14.892578%);stroke-opacity:1;stroke-miterlimit:10;"
       d="M 1922.539062 1942.5 L 1922.539062 1920.742188 "
       transform="matrix(0.1,0,0,-0.1,0,211)"
       id="path46" />
    <path
       style="fill:none;stroke-width:5.0025;stroke-linecap:square;stroke-linejoin:round;stroke:rgb(14.892578%,14.892578%,14.892578%);stroke-opacity:1;stroke-miterlimit:10;"
       d="M 2399.726562 1942.5 L 2399.726562 1920.742188 "
       transform="matrix(0.1,0,0,-0.1,0,211)"
       id="path48" />
    <path
       style=" stroke:none;fill-rule:nonzero;fill:rgb(14.892578%,14.892578%,14.892578%);fill-opacity:1;"
       d="M 38.648438 191.59375 L 38.648438 190.984375 L 41.238281 190.984375 L 41.238281 191.59375 L 38.648438 191.59375 "
       id="path50" />
    <path
       style=" stroke:none;fill-rule:nonzero;fill:rgb(14.892578%,14.892578%,14.892578%);fill-opacity:1;"
       d="M 44.3125 193.609375 C 43.515625 193.609375 42.976562 193.28125 42.691406 192.625 C 42.40625 191.96875 42.261719 191.191406 42.261719 190.292969 C 42.261719 189.722656 42.3125 189.191406 42.414062 188.695312 C 42.515625 188.199219 42.71875 187.777344 43.023438 187.429688 C 43.328125 187.082031 43.757812 186.90625 44.3125 186.90625 C 44.742188 186.90625 45.09375 187.011719 45.367188 187.21875 C 45.640625 187.425781 45.847656 187.695312 45.988281 188.027344 C 46.128906 188.359375 46.226562 188.714844 46.28125 189.09375 C 46.335938 189.472656 46.363281 189.871094 46.363281 190.292969 C 46.363281 190.847656 46.3125 191.371094 46.207031 191.859375 C 46.101562 192.347656 45.898438 192.761719 45.59375 193.101562 C 45.292969 193.441406 44.867188 193.609375 44.3125 193.609375 Z M 44.3125 193.363281 C 44.671875 193.363281 44.941406 193.179688 45.121094 192.808594 C 45.300781 192.4375 45.410156 192.023438 45.449219 191.570312 C 45.488281 191.117188 45.507812 190.636719 45.507812 190.132812 C 45.507812 189.644531 45.488281 189.195312 45.449219 188.78125 C 45.410156 188.367188 45.300781 187.992188 45.128906 187.65625 C 44.953125 187.320312 44.679688 187.152344 44.3125 187.152344 C 43.945312 187.152344 43.671875 187.324219 43.492188 187.664062 C 43.3125 188.003906 43.203125 188.378906 43.164062 188.789062 C 43.125 189.199219 43.105469 189.644531 43.105469 190.132812 C 43.105469 190.496094 43.113281 190.839844 43.128906 191.160156 C 43.144531 191.480469 43.191406 191.8125 43.269531 192.152344 C 43.347656 192.492188 43.46875 192.777344 43.640625 193.011719 C 43.808594 193.246094 44.03125 193.363281 44.3125 193.363281 "
       id="path52" />
    <path
       style=" stroke:none;fill-rule:nonzero;fill:rgb(14.892578%,14.892578%,14.892578%);fill-opacity:1;"
       d="M 47.695312 192.859375 C 47.695312 192.710938 47.75 192.585938 47.859375 192.484375 C 47.96875 192.382812 48.09375 192.332031 48.234375 192.332031 C 48.320312 192.332031 48.40625 192.355469 48.492188 192.402344 C 48.578125 192.453125 48.644531 192.515625 48.691406 192.601562 C 48.738281 192.6875 48.761719 192.773438 48.761719 192.859375 C 48.761719 193 48.710938 193.125 48.605469 193.234375 C 48.5 193.34375 48.375 193.398438 48.234375 193.398438 C 48.09375 193.398438 47.96875 193.34375 47.859375 193.234375 C 47.75 193.125 47.695312 193 47.695312 192.859375 "
       id="path54" />
    <path
       style=" stroke:none;fill-rule:nonzero;fill:rgb(14.892578%,14.892578%,14.892578%);fill-opacity:1;"
       d="M 52.089844 193.609375 C 51.292969 193.609375 50.753906 193.28125 50.46875 192.625 C 50.183594 191.96875 50.039062 191.191406 50.039062 190.292969 C 50.039062 189.722656 50.089844 189.191406 50.191406 188.695312 C 50.292969 188.199219 50.496094 187.777344 50.800781 187.429688 C 51.105469 187.082031 51.535156 186.90625 52.089844 186.90625 C 52.519531 186.90625 52.871094 187.011719 53.144531 187.21875 C 53.417969 187.425781 53.625 187.695312 53.765625 188.027344 C 53.90625 188.359375 54.003906 188.714844 54.058594 189.09375 C 54.113281 189.472656 54.140625 189.871094 54.140625 190.292969 C 54.140625 190.847656 54.089844 191.371094 53.984375 191.859375 C 53.878906 192.347656 53.675781 192.761719 53.375 193.101562 C 53.074219 193.441406 52.644531 193.609375 52.089844 193.609375 Z M 52.089844 193.363281 C 52.449219 193.363281 52.71875 193.179688 52.898438 192.808594 C 53.078125 192.4375 53.1875 192.023438 53.226562 191.570312 C 53.265625 191.117188 53.285156 190.636719 53.285156 190.132812 C 53.285156 189.644531 53.265625 189.195312 53.226562 188.78125 C 53.1875 188.367188 53.082031 187.992188 52.90625 187.65625 C 52.730469 187.320312 52.457031 187.152344 52.089844 187.152344 C 51.722656 187.152344 51.449219 187.324219 51.269531 187.664062 C 51.089844 188.003906 50.980469 188.378906 50.941406 188.789062 C 50.902344 189.199219 50.882812 189.644531 50.882812 190.132812 C 50.882812 190.496094 50.890625 190.839844 50.90625 191.160156 C 50.921875 191.480469 50.96875 191.8125 51.046875 192.152344 C 51.125 192.492188 51.25 192.777344 51.417969 193.011719 C 51.585938 193.246094 51.808594 193.363281 52.089844 193.363281 "
       id="path56" />
    <path
       style=" stroke:none;fill-rule:nonzero;fill:rgb(14.892578%,14.892578%,14.892578%);fill-opacity:1;"
       d="M 55.132812 193.398438 L 55.132812 193.140625 C 55.132812 193.125 55.140625 193.105469 55.15625 193.082031 L 56.667969 191.40625 C 56.902344 191.15625 57.089844 190.949219 57.230469 190.78125 C 57.371094 190.613281 57.511719 190.417969 57.652344 190.199219 C 57.792969 189.980469 57.90625 189.757812 57.988281 189.53125 C 58.070312 189.304688 58.109375 189.070312 58.109375 188.820312 C 58.109375 188.550781 58.058594 188.296875 57.957031 188.050781 C 57.855469 187.804688 57.707031 187.609375 57.511719 187.464844 C 57.316406 187.320312 57.082031 187.246094 56.808594 187.246094 C 56.527344 187.246094 56.273438 187.332031 56.046875 187.507812 C 55.820312 187.675781 55.660156 187.894531 55.566406 188.160156 C 55.597656 188.152344 55.632812 188.148438 55.671875 188.148438 C 55.820312 188.148438 55.945312 188.199219 56.046875 188.296875 C 56.148438 188.394531 56.199219 188.519531 56.199219 188.675781 C 56.199219 188.824219 56.148438 188.953125 56.046875 189.058594 C 55.945312 189.164062 55.820312 189.214844 55.671875 189.214844 C 55.523438 189.214844 55.398438 189.164062 55.292969 189.058594 C 55.1875 188.953125 55.132812 188.824219 55.132812 188.675781 C 55.132812 188.433594 55.179688 188.207031 55.273438 187.992188 C 55.367188 187.777344 55.5 187.585938 55.671875 187.421875 C 55.84375 187.257812 56.039062 187.132812 56.257812 187.042969 C 56.476562 186.953125 56.707031 186.90625 56.949219 186.90625 C 57.324219 186.90625 57.671875 186.984375 57.992188 187.140625 C 58.3125 187.296875 58.566406 187.519531 58.753906 187.808594 C 58.941406 188.097656 59.035156 188.433594 59.035156 188.820312 C 59.035156 189.097656 58.972656 189.367188 58.847656 189.621094 C 58.722656 189.875 58.566406 190.105469 58.375 190.3125 C 58.183594 190.519531 57.933594 190.753906 57.628906 191.019531 C 57.324219 191.285156 57.125 191.460938 57.03125 191.546875 L 55.929688 192.613281 L 56.867188 192.613281 C 57.328125 192.613281 57.714844 192.609375 58.023438 192.601562 C 58.332031 192.59375 58.492188 192.578125 58.507812 192.554688 C 58.585938 192.476562 58.664062 192.179688 58.742188 191.664062 L 59.035156 191.664062 L 58.753906 193.398438 L 55.132812 193.398438 "
       id="path58" />
    <path
       style=" stroke:none;fill-rule:nonzero;fill:rgb(14.892578%,14.892578%,14.892578%);fill-opacity:1;"
       d="M 96.753906 193.609375 C 95.957031 193.609375 95.414062 193.28125 95.128906 192.625 C 94.84375 191.96875 94.703125 191.191406 94.703125 190.292969 C 94.703125 189.722656 94.753906 189.191406 94.855469 188.695312 C 94.957031 188.199219 95.160156 187.777344 95.464844 187.429688 C 95.769531 187.082031 96.199219 186.90625 96.753906 186.90625 C 97.183594 186.90625 97.535156 187.011719 97.808594 187.21875 C 98.082031 187.425781 98.289062 187.695312 98.429688 188.027344 C 98.570312 188.359375 98.667969 188.714844 98.722656 189.09375 C 98.777344 189.472656 98.804688 189.871094 98.804688 190.292969 C 98.804688 190.847656 98.75 191.371094 98.644531 191.859375 C 98.539062 192.347656 98.335938 192.761719 98.035156 193.101562 C 97.734375 193.441406 97.308594 193.609375 96.753906 193.609375 Z M 96.753906 193.363281 C 97.113281 193.363281 97.382812 193.179688 97.5625 192.808594 C 97.742188 192.4375 97.851562 192.023438 97.890625 191.570312 C 97.929688 191.117188 97.949219 190.636719 97.949219 190.132812 C 97.949219 189.644531 97.929688 189.195312 97.890625 188.78125 C 97.851562 188.367188 97.742188 187.992188 97.566406 187.65625 C 97.390625 187.320312 97.121094 187.152344 96.753906 187.152344 C 96.386719 187.152344 96.113281 187.324219 95.933594 187.664062 C 95.753906 188.003906 95.644531 188.378906 95.605469 188.789062 C 95.566406 189.199219 95.546875 189.644531 95.546875 190.132812 C 95.546875 190.496094 95.554688 190.839844 95.570312 191.160156 C 95.585938 191.480469 95.632812 191.8125 95.710938 192.152344 C 95.789062 192.492188 95.910156 192.777344 96.078125 193.011719 C 96.246094 193.246094 96.472656 193.363281 96.753906 193.363281 "
       id="path60" />
    <path
       style=" stroke:none;fill-rule:nonzero;fill:rgb(14.892578%,14.892578%,14.892578%);fill-opacity:1;"
       d="M 138.082031 193.609375 C 137.285156 193.609375 136.746094 193.28125 136.460938 192.625 C 136.175781 191.96875 136.03125 191.191406 136.03125 190.292969 C 136.03125 189.722656 136.082031 189.191406 136.183594 188.695312 C 136.285156 188.199219 136.488281 187.777344 136.792969 187.429688 C 137.097656 187.082031 137.527344 186.90625 138.082031 186.90625 C 138.511719 186.90625 138.863281 187.011719 139.136719 187.21875 C 139.410156 187.425781 139.617188 187.695312 139.757812 188.027344 C 139.898438 188.359375 139.996094 188.714844 140.050781 189.09375 C 140.105469 189.472656 140.132812 189.871094 140.132812 190.292969 C 140.132812 190.847656 140.078125 191.371094 139.976562 191.859375 C 139.871094 192.347656 139.667969 192.761719 139.367188 193.101562 C 139.066406 193.441406 138.636719 193.609375 138.082031 193.609375 Z M 138.082031 193.363281 C 138.441406 193.363281 138.710938 193.179688 138.890625 192.808594 C 139.070312 192.4375 139.179688 192.023438 139.21875 191.570312 C 139.257812 191.117188 139.277344 190.636719 139.277344 190.132812 C 139.277344 189.644531 139.257812 189.195312 139.21875 188.78125 C 139.179688 188.367188 139.074219 187.992188 138.898438 187.65625 C 138.722656 187.320312 138.449219 187.152344 138.082031 187.152344 C 137.714844 187.152344 137.441406 187.324219 137.261719 187.664062 C 137.082031 188.003906 136.972656 188.378906 136.933594 188.789062 C 136.894531 189.199219 136.875 189.644531 136.875 190.132812 C 136.875 190.496094 136.882812 190.839844 136.898438 191.160156 C 136.914062 191.480469 136.960938 191.8125 137.039062 192.152344 C 137.117188 192.492188 137.242188 192.777344 137.410156 193.011719 C 137.578125 193.246094 137.800781 193.363281 138.082031 193.363281 "
       id="path62" />
    <path
       style=" stroke:none;fill-rule:nonzero;fill:rgb(14.892578%,14.892578%,14.892578%);fill-opacity:1;"
       d="M 141.464844 192.859375 C 141.464844 192.710938 141.519531 192.585938 141.628906 192.484375 C 141.738281 192.382812 141.863281 192.332031 142.003906 192.332031 C 142.089844 192.332031 142.175781 192.355469 142.261719 192.402344 C 142.347656 192.453125 142.414062 192.515625 142.460938 192.601562 C 142.507812 192.6875 142.53125 192.773438 142.53125 192.859375 C 142.53125 193 142.480469 193.125 142.371094 193.234375 C 142.269531 193.34375 142.144531 193.398438 142.003906 193.398438 C 141.863281 193.398438 141.738281 193.34375 141.628906 193.234375 C 141.519531 193.125 141.464844 193 141.464844 192.859375 "
       id="path64" />
    <path
       style=" stroke:none;fill-rule:nonzero;fill:rgb(14.892578%,14.892578%,14.892578%);fill-opacity:1;"
       d="M 145.859375 193.609375 C 145.0625 193.609375 144.523438 193.28125 144.238281 192.625 C 143.953125 191.96875 143.808594 191.191406 143.808594 190.292969 C 143.808594 189.722656 143.859375 189.191406 143.960938 188.695312 C 144.0625 188.199219 144.265625 187.777344 144.570312 187.429688 C 144.875 187.082031 145.304688 186.90625 145.859375 186.90625 C 146.289062 186.90625 146.640625 187.011719 146.914062 187.21875 C 147.1875 187.425781 147.394531 187.695312 147.535156 188.027344 C 147.675781 188.359375 147.773438 188.714844 147.828125 189.09375 C 147.882812 189.472656 147.910156 189.871094 147.910156 190.292969 C 147.910156 190.847656 147.859375 191.371094 147.753906 191.859375 C 147.648438 192.347656 147.445312 192.761719 147.144531 193.101562 C 146.84375 193.441406 146.414062 193.609375 145.859375 193.609375 Z M 145.859375 193.363281 C 146.21875 193.363281 146.488281 193.179688 146.667969 192.808594 C 146.847656 192.4375 146.957031 192.023438 146.996094 191.570312 C 147.035156 191.117188 147.054688 190.636719 147.054688 190.132812 C 147.054688 189.644531 147.035156 189.195312 146.996094 188.78125 C 146.957031 188.367188 146.851562 187.992188 146.675781 187.65625 C 146.5 187.320312 146.226562 187.152344 145.859375 187.152344 C 145.492188 187.152344 145.21875 187.324219 145.039062 187.664062 C 144.859375 188.003906 144.75 188.378906 144.710938 188.789062 C 144.671875 189.199219 144.652344 189.644531 144.652344 190.132812 C 144.652344 190.496094 144.660156 190.839844 144.675781 191.160156 C 144.691406 191.480469 144.738281 191.8125 144.816406 192.152344 C 144.894531 192.492188 145.019531 192.777344 145.1875 193.011719 C 145.355469 193.246094 145.578125 193.363281 145.859375 193.363281 "
       id="path66" />
    <path
       style=" stroke:none;fill-rule:nonzero;fill:rgb(14.892578%,14.892578%,14.892578%);fill-opacity:1;"
       d="M 148.902344 193.398438 L 148.902344 193.140625 C 148.902344 193.125 148.910156 193.105469 148.925781 193.082031 L 150.4375 191.40625 C 150.671875 191.15625 150.859375 190.949219 151 190.78125 C 151.140625 190.613281 151.28125 190.417969 151.421875 190.199219 C 151.5625 189.980469 151.675781 189.757812 151.757812 189.53125 C 151.839844 189.304688 151.878906 189.070312 151.878906 188.820312 C 151.878906 188.550781 151.828125 188.296875 151.726562 188.050781 C 151.625 187.804688 151.476562 187.609375 151.28125 187.464844 C 151.085938 187.320312 150.851562 187.246094 150.578125 187.246094 C 150.296875 187.246094 150.042969 187.332031 149.816406 187.507812 C 149.589844 187.675781 149.429688 187.894531 149.335938 188.160156 C 149.367188 188.152344 149.402344 188.148438 149.441406 188.148438 C 149.589844 188.148438 149.714844 188.199219 149.816406 188.296875 C 149.917969 188.394531 149.96875 188.519531 149.96875 188.675781 C 149.96875 188.824219 149.917969 188.953125 149.816406 189.058594 C 149.714844 189.164062 149.589844 189.214844 149.441406 189.214844 C 149.292969 189.214844 149.167969 189.164062 149.0625 189.058594 C 148.957031 188.953125 148.902344 188.824219 148.902344 188.675781 C 148.902344 188.433594 148.949219 188.207031 149.042969 187.992188 C 149.136719 187.777344 149.269531 187.585938 149.441406 187.421875 C 149.613281 187.257812 149.808594 187.132812 150.027344 187.042969 C 150.246094 186.953125 150.476562 186.90625 150.71875 186.90625 C 151.09375 186.90625 151.441406 186.984375 151.761719 187.140625 C 152.082031 187.296875 152.335938 187.519531 152.523438 187.808594 C 152.710938 188.097656 152.804688 188.433594 152.804688 188.820312 C 152.804688 189.097656 152.742188 189.367188 152.617188 189.621094 C 152.492188 189.875 152.335938 190.105469 152.144531 190.3125 C 151.953125 190.519531 151.703125 190.753906 151.398438 191.019531 C 151.09375 191.285156 150.894531 191.460938 150.800781 191.546875 L 149.699219 192.613281 L 150.636719 192.613281 C 151.097656 192.613281 151.484375 192.609375 151.792969 192.601562 C 152.101562 192.59375 152.261719 192.578125 152.277344 192.554688 C 152.355469 192.476562 152.433594 192.179688 152.511719 191.664062 L 152.804688 191.664062 L 152.523438 193.398438 L 148.902344 193.398438 "
       id="path68" />
    <path
       style=" stroke:none;fill-rule:nonzero;fill:rgb(14.892578%,14.892578%,14.892578%);fill-opacity:1;"
       d="M 185.800781 193.609375 C 185.003906 193.609375 184.464844 193.28125 184.179688 192.625 C 183.894531 191.96875 183.75 191.191406 183.75 190.292969 C 183.75 189.722656 183.800781 189.191406 183.902344 188.695312 C 184.003906 188.199219 184.207031 187.777344 184.511719 187.429688 C 184.816406 187.082031 185.246094 186.90625 185.800781 186.90625 C 186.230469 186.90625 186.582031 187.011719 186.855469 187.21875 C 187.128906 187.425781 187.335938 187.695312 187.476562 188.027344 C 187.617188 188.359375 187.714844 188.714844 187.769531 189.09375 C 187.824219 189.472656 187.851562 189.871094 187.851562 190.292969 C 187.851562 190.847656 187.800781 191.371094 187.695312 191.859375 C 187.589844 192.347656 187.386719 192.761719 187.085938 193.101562 C 186.78125 193.441406 186.355469 193.609375 185.800781 193.609375 Z M 185.800781 193.363281 C 186.160156 193.363281 186.429688 193.179688 186.609375 192.808594 C 186.789062 192.4375 186.898438 192.023438 186.9375 191.570312 C 186.976562 191.117188 186.996094 190.636719 186.996094 190.132812 C 186.996094 189.644531 186.976562 189.195312 186.9375 188.78125 C 186.898438 188.367188 186.789062 187.992188 186.617188 187.65625 C 186.4375 187.320312 186.167969 187.152344 185.800781 187.152344 C 185.433594 187.152344 185.160156 187.324219 184.980469 187.664062 C 184.800781 188.003906 184.691406 188.378906 184.652344 188.789062 C 184.613281 189.199219 184.59375 189.644531 184.59375 190.132812 C 184.59375 190.496094 184.601562 190.839844 184.617188 191.160156 C 184.632812 191.480469 184.679688 191.8125 184.757812 192.152344 C 184.835938 192.492188 184.960938 192.777344 185.128906 193.011719 C 185.296875 193.246094 185.519531 193.363281 185.800781 193.363281 "
       id="path70" />
    <path
       style=" stroke:none;fill-rule:nonzero;fill:rgb(14.892578%,14.892578%,14.892578%);fill-opacity:1;"
       d="M 189.183594 192.859375 C 189.183594 192.710938 189.238281 192.585938 189.347656 192.484375 C 189.457031 192.382812 189.582031 192.332031 189.722656 192.332031 C 189.808594 192.332031 189.894531 192.355469 189.980469 192.402344 C 190.066406 192.453125 190.132812 192.515625 190.179688 192.601562 C 190.226562 192.6875 190.25 192.773438 190.25 192.859375 C 190.25 193 190.195312 193.125 190.09375 193.234375 C 189.988281 193.34375 189.863281 193.398438 189.722656 193.398438 C 189.582031 193.398438 189.457031 193.34375 189.347656 193.234375 C 189.238281 193.125 189.183594 193 189.183594 192.859375 "
       id="path72" />
    <path
       style=" stroke:none;fill-rule:nonzero;fill:rgb(14.892578%,14.892578%,14.892578%);fill-opacity:1;"
       d="M 193.578125 193.609375 C 192.78125 193.609375 192.242188 193.28125 191.953125 192.625 C 191.671875 191.96875 191.527344 191.191406 191.527344 190.292969 C 191.527344 189.722656 191.578125 189.191406 191.679688 188.695312 C 191.78125 188.199219 191.984375 187.777344 192.289062 187.429688 C 192.59375 187.082031 193.023438 186.90625 193.578125 186.90625 C 194.007812 186.90625 194.359375 187.011719 194.632812 187.21875 C 194.90625 187.425781 195.113281 187.695312 195.253906 188.027344 C 195.394531 188.359375 195.492188 188.714844 195.546875 189.09375 C 195.601562 189.472656 195.628906 189.871094 195.628906 190.292969 C 195.628906 190.847656 195.578125 191.371094 195.472656 191.859375 C 195.367188 192.347656 195.164062 192.761719 194.863281 193.101562 C 194.5625 193.441406 194.132812 193.609375 193.578125 193.609375 Z M 193.578125 193.363281 C 193.9375 193.363281 194.207031 193.179688 194.386719 192.808594 C 194.566406 192.4375 194.675781 192.023438 194.714844 191.570312 C 194.753906 191.117188 194.773438 190.636719 194.773438 190.132812 C 194.773438 189.644531 194.753906 189.195312 194.714844 188.78125 C 194.675781 188.367188 194.570312 187.992188 194.394531 187.65625 C 194.21875 187.320312 193.945312 187.152344 193.578125 187.152344 C 193.210938 187.152344 192.9375 187.324219 192.757812 187.664062 C 192.578125 188.003906 192.46875 188.378906 192.429688 188.789062 C 192.390625 189.199219 192.371094 189.644531 192.371094 190.132812 C 192.371094 190.496094 192.378906 190.839844 192.394531 191.160156 C 192.410156 191.480469 192.457031 191.8125 192.535156 192.152344 C 192.613281 192.492188 192.738281 192.777344 192.90625 193.011719 C 193.074219 193.246094 193.296875 193.363281 193.578125 193.363281 "
       id="path74" />
    <path
       style=" stroke:none;fill-rule:nonzero;fill:rgb(14.892578%,14.892578%,14.892578%);fill-opacity:1;"
       d="M 196.410156 191.792969 L 196.410156 191.445312 L 199.421875 186.953125 C 199.445312 186.921875 199.480469 186.90625 199.527344 186.90625 L 199.667969 186.90625 C 199.738281 186.90625 199.773438 186.941406 199.773438 187.011719 L 199.773438 191.445312 L 200.734375 191.445312 L 200.734375 191.792969 L 199.773438 191.792969 L 199.773438 192.742188 C 199.773438 192.875 199.871094 192.964844 200.0625 193 C 200.253906 193.039062 200.472656 193.058594 200.722656 193.058594 L 200.722656 193.398438 L 198.039062 193.398438 L 198.039062 193.058594 C 198.289062 193.058594 198.511719 193.039062 198.703125 193 C 198.894531 192.964844 198.988281 192.875 198.988281 192.742188 L 198.988281 191.792969 Z M 196.738281 191.445312 L 199.046875 191.445312 L 199.046875 187.996094 Z M 196.738281 191.445312 "
       id="path76" />
    <path
       style=" stroke:none;fill-rule:nonzero;fill:rgb(14.892578%,14.892578%,14.892578%);fill-opacity:1;"
       d="M 233.519531 193.609375 C 232.722656 193.609375 232.179688 193.28125 231.894531 192.625 C 231.609375 191.96875 231.46875 191.191406 231.46875 190.292969 C 231.46875 189.722656 231.519531 189.191406 231.621094 188.695312 C 231.722656 188.199219 231.925781 187.777344 232.230469 187.429688 C 232.535156 187.082031 232.964844 186.90625 233.519531 186.90625 C 233.949219 186.90625 234.300781 187.011719 234.574219 187.21875 C 234.847656 187.425781 235.054688 187.695312 235.195312 188.027344 C 235.335938 188.359375 235.433594 188.714844 235.488281 189.09375 C 235.542969 189.472656 235.570312 189.871094 235.570312 190.292969 C 235.570312 190.847656 235.515625 191.371094 235.414062 191.859375 C 235.308594 192.347656 235.105469 192.761719 234.804688 193.101562 C 234.503906 193.441406 234.074219 193.609375 233.519531 193.609375 Z M 233.519531 193.363281 C 233.878906 193.363281 234.148438 193.179688 234.328125 192.808594 C 234.507812 192.4375 234.617188 192.023438 234.65625 191.570312 C 234.695312 191.117188 234.714844 190.636719 234.714844 190.132812 C 234.714844 189.644531 234.695312 189.195312 234.65625 188.78125 C 234.617188 188.367188 234.511719 187.992188 234.335938 187.65625 C 234.15625 187.320312 233.886719 187.152344 233.519531 187.152344 C 233.152344 187.152344 232.878906 187.324219 232.699219 187.664062 C 232.519531 188.003906 232.410156 188.378906 232.371094 188.789062 C 232.332031 189.199219 232.3125 189.644531 232.3125 190.132812 C 232.3125 190.496094 232.320312 190.839844 232.335938 191.160156 C 232.351562 191.480469 232.398438 191.8125 232.476562 192.152344 C 232.554688 192.492188 232.679688 192.777344 232.847656 193.011719 C 233.015625 193.246094 233.238281 193.363281 233.519531 193.363281 "
       id="path78" />
    <path
       style=" stroke:none;fill-rule:nonzero;fill:rgb(14.892578%,14.892578%,14.892578%);fill-opacity:1;"
       d="M 236.902344 192.859375 C 236.902344 192.710938 236.957031 192.585938 237.066406 192.484375 C 237.175781 192.382812 237.300781 192.332031 237.441406 192.332031 C 237.527344 192.332031 237.613281 192.355469 237.699219 192.402344 C 237.785156 192.453125 237.851562 192.515625 237.898438 192.601562 C 237.945312 192.6875 237.96875 192.773438 237.96875 192.859375 C 237.96875 193 237.914062 193.125 237.808594 193.234375 C 237.703125 193.34375 237.582031 193.398438 237.441406 193.398438 C 237.300781 193.398438 237.175781 193.34375 237.066406 193.234375 C 236.957031 193.125 236.902344 193 236.902344 192.859375 "
       id="path80" />
    <path
       style=" stroke:none;fill-rule:nonzero;fill:rgb(14.892578%,14.892578%,14.892578%);fill-opacity:1;"
       d="M 241.296875 193.609375 C 240.5 193.609375 239.960938 193.28125 239.675781 192.625 C 239.390625 191.96875 239.246094 191.191406 239.246094 190.292969 C 239.246094 189.722656 239.296875 189.191406 239.398438 188.695312 C 239.5 188.199219 239.703125 187.777344 240.007812 187.429688 C 240.3125 187.082031 240.742188 186.90625 241.296875 186.90625 C 241.726562 186.90625 242.078125 187.011719 242.351562 187.21875 C 242.625 187.425781 242.832031 187.695312 242.972656 188.027344 C 243.113281 188.359375 243.210938 188.714844 243.265625 189.09375 C 243.320312 189.472656 243.347656 189.871094 243.347656 190.292969 C 243.347656 190.847656 243.296875 191.371094 243.191406 191.859375 C 243.085938 192.347656 242.882812 192.761719 242.578125 193.101562 C 242.28125 193.441406 241.851562 193.609375 241.296875 193.609375 Z M 241.296875 193.363281 C 241.65625 193.363281 241.925781 193.179688 242.105469 192.808594 C 242.285156 192.4375 242.394531 192.023438 242.433594 191.570312 C 242.472656 191.117188 242.492188 190.636719 242.492188 190.132812 C 242.492188 189.644531 242.472656 189.195312 242.433594 188.78125 C 242.394531 188.367188 242.289062 187.992188 242.109375 187.65625 C 241.9375 187.320312 241.664062 187.152344 241.296875 187.152344 C 240.929688 187.152344 240.65625 187.324219 240.476562 187.664062 C 240.296875 188.003906 240.1875 188.378906 240.148438 188.789062 C 240.109375 189.199219 240.089844 189.644531 240.089844 190.132812 C 240.089844 190.496094 240.097656 190.839844 240.113281 191.160156 C 240.128906 191.480469 240.175781 191.8125 240.253906 192.152344 C 240.332031 192.492188 240.453125 192.777344 240.621094 193.011719 C 240.789062 193.246094 241.015625 193.363281 241.296875 193.363281 "
       id="path82" />
    <path
       style=" stroke:none;fill-rule:nonzero;fill:rgb(14.892578%,14.892578%,14.892578%);fill-opacity:1;"
       d="M 246.296875 193.609375 C 245.890625 193.609375 245.554688 193.503906 245.285156 193.289062 C 245.015625 193.074219 244.808594 192.796875 244.664062 192.457031 C 244.519531 192.117188 244.414062 191.757812 244.355469 191.382812 C 244.300781 191.007812 244.269531 190.628906 244.269531 190.246094 C 244.269531 189.730469 244.371094 189.214844 244.570312 188.699219 C 244.769531 188.183594 245.0625 187.757812 245.453125 187.417969 C 245.84375 187.078125 246.304688 186.90625 246.835938 186.90625 C 247.054688 186.90625 247.261719 186.949219 247.457031 187.03125 C 247.652344 187.113281 247.804688 187.234375 247.914062 187.398438 C 248.023438 187.5625 248.078125 187.761719 248.078125 187.996094 C 248.078125 188.128906 248.03125 188.242188 247.9375 188.332031 C 247.84375 188.421875 247.730469 188.464844 247.597656 188.464844 C 247.472656 188.464844 247.367188 188.421875 247.277344 188.332031 C 247.1875 188.242188 247.140625 188.128906 247.140625 187.996094 C 247.140625 187.871094 247.1875 187.761719 247.277344 187.667969 C 247.367188 187.574219 247.472656 187.527344 247.597656 187.527344 L 247.65625 187.527344 C 247.570312 187.410156 247.453125 187.324219 247.304688 187.269531 C 247.15625 187.214844 247 187.1875 246.835938 187.1875 C 246.640625 187.1875 246.460938 187.230469 246.289062 187.320312 C 246.121094 187.402344 245.972656 187.519531 245.839844 187.664062 C 245.707031 187.808594 245.597656 187.96875 245.507812 188.144531 C 245.414062 188.320312 245.347656 188.519531 245.300781 188.746094 C 245.253906 188.972656 245.222656 189.183594 245.207031 189.382812 C 245.191406 189.574219 245.183594 189.820312 245.183594 190.117188 C 245.300781 189.851562 245.464844 189.636719 245.675781 189.46875 C 245.886719 189.300781 246.121094 189.214844 246.378906 189.214844 C 246.667969 189.214844 246.933594 189.273438 247.171875 189.390625 C 247.410156 189.507812 247.613281 189.671875 247.785156 189.878906 C 247.957031 190.085938 248.089844 190.320312 248.179688 190.585938 C 248.269531 190.851562 248.3125 191.121094 248.3125 191.394531 C 248.3125 191.777344 248.230469 192.140625 248.0625 192.484375 C 247.894531 192.828125 247.65625 193.101562 247.347656 193.304688 C 247.039062 193.507812 246.6875 193.609375 246.296875 193.609375 Z M 246.296875 193.304688 C 246.546875 193.304688 246.746094 193.25 246.902344 193.136719 C 247.054688 193.023438 247.164062 192.871094 247.234375 192.679688 C 247.304688 192.488281 247.351562 192.296875 247.371094 192.105469 C 247.390625 191.914062 247.398438 191.675781 247.398438 191.394531 C 247.398438 191.027344 247.382812 190.714844 247.347656 190.457031 C 247.3125 190.199219 247.214844 189.972656 247.058594 189.773438 C 246.902344 189.574219 246.664062 189.472656 246.34375 189.472656 C 246.078125 189.472656 245.863281 189.5625 245.695312 189.738281 C 245.527344 189.914062 245.402344 190.140625 245.324219 190.410156 C 245.246094 190.683594 245.207031 190.945312 245.207031 191.195312 C 245.207031 191.28125 245.210938 191.347656 245.21875 191.394531 C 245.21875 191.402344 245.21875 191.410156 245.214844 191.414062 C 245.210938 191.417969 245.207031 191.425781 245.207031 191.445312 C 245.207031 191.714844 245.238281 191.996094 245.296875 192.28125 C 245.355469 192.566406 245.464844 192.808594 245.621094 193.007812 C 245.785156 193.207031 246.007812 193.304688 246.296875 193.304688 "
       id="path84" />
    <path
       style=" stroke:none;fill-rule:nonzero;fill:rgb(14.892578%,14.892578%,14.892578%);fill-opacity:1;"
       d="M 139.632812 209.347656 C 139.632812 209.308594 139.636719 209.28125 139.644531 209.265625 L 141.296875 202.625 C 141.328125 202.519531 141.386719 202.4375 141.472656 202.371094 C 141.558594 202.304688 141.65625 202.269531 141.765625 202.269531 C 141.859375 202.269531 141.941406 202.296875 142.007812 202.351562 C 142.074219 202.40625 142.105469 202.480469 142.105469 202.574219 C 142.105469 202.597656 142.105469 202.617188 142.105469 202.632812 C 142.105469 202.648438 142.101562 202.664062 142.09375 202.667969 L 141.425781 205.304688 C 141.355469 205.617188 141.320312 205.886719 141.320312 206.113281 C 141.320312 206.394531 141.386719 206.625 141.519531 206.800781 C 141.652344 206.976562 141.851562 207.0625 142.117188 207.0625 C 142.664062 207.0625 143.144531 206.726562 143.558594 206.042969 C 143.558594 206.039062 143.5625 206.03125 143.566406 206.027344 C 143.570312 206.023438 143.570312 206.015625 143.570312 206.007812 L 144.378906 202.75 C 144.402344 202.648438 144.460938 202.5625 144.554688 202.492188 C 144.648438 202.421875 144.75 202.386719 144.859375 202.386719 C 144.945312 202.386719 145.023438 202.417969 145.089844 202.476562 C 145.15625 202.535156 145.1875 202.613281 145.1875 202.703125 C 145.1875 202.75 145.183594 202.78125 145.175781 202.796875 L 144.367188 206.03125 C 144.3125 206.25 144.285156 206.433594 144.285156 206.582031 C 144.285156 206.90625 144.394531 207.0625 144.613281 207.0625 C 144.847656 207.0625 145.027344 206.917969 145.148438 206.628906 C 145.269531 206.339844 145.371094 205.992188 145.457031 205.585938 C 145.472656 205.539062 145.503906 205.515625 145.550781 205.515625 L 145.679688 205.515625 C 145.710938 205.515625 145.738281 205.527344 145.757812 205.550781 C 145.777344 205.574219 145.785156 205.601562 145.785156 205.632812 C 145.652344 206.15625 145.507812 206.578125 145.351562 206.894531 C 145.195312 207.210938 144.941406 207.367188 144.589844 207.367188 C 144.347656 207.367188 144.128906 207.296875 143.933594 207.152344 C 143.738281 207.007812 143.613281 206.8125 143.558594 206.570312 C 143.371094 206.804688 143.152344 206.996094 142.902344 207.144531 C 142.652344 207.292969 142.386719 207.367188 142.105469 207.367188 C 141.636719 207.367188 141.269531 207.257812 141.003906 207.039062 L 140.429688 209.3125 C 140.40625 209.417969 140.351562 209.5 140.265625 209.566406 C 140.179688 209.632812 140.082031 209.664062 139.972656 209.664062 C 139.878906 209.664062 139.800781 209.636719 139.734375 209.582031 C 139.667969 209.53125 139.632812 209.449219 139.632812 209.347656 "
       id="path86" />
    <path
       style=" stroke:none;fill-rule:nonzero;fill:rgb(14.892578%,14.892578%,14.892578%);fill-opacity:1;"
       d="M 146.519531 208.761719 C 146.519531 208.730469 146.523438 208.707031 146.53125 208.691406 L 147.09375 206.453125 C 147.132812 206.320312 147.152344 206.199219 147.152344 206.089844 C 147.152344 205.878906 147.078125 205.773438 146.929688 205.773438 C 146.773438 205.773438 146.65625 205.867188 146.578125 206.054688 C 146.5 206.242188 146.425781 206.476562 146.355469 206.757812 C 146.355469 206.773438 146.347656 206.785156 146.339844 206.792969 C 146.324219 206.800781 146.3125 206.804688 146.296875 206.804688 L 146.214844 206.804688 C 146.191406 206.804688 146.175781 206.792969 146.164062 206.773438 C 146.148438 206.753906 146.144531 206.742188 146.144531 206.734375 C 146.199219 206.515625 146.253906 206.328125 146.304688 206.175781 C 146.355469 206.023438 146.433594 205.886719 146.539062 205.761719 C 146.640625 205.636719 146.773438 205.574219 146.929688 205.574219 C 147.109375 205.574219 147.261719 205.625 147.390625 205.726562 C 147.519531 205.828125 147.601562 205.960938 147.632812 206.125 C 147.757812 205.953125 147.902344 205.816406 148.066406 205.71875 C 148.230469 205.621094 148.410156 205.574219 148.605469 205.574219 C 148.761719 205.574219 148.898438 205.621094 149.019531 205.714844 C 149.140625 205.808594 149.203125 205.933594 149.203125 206.089844 C 149.203125 206.214844 149.164062 206.324219 149.085938 206.421875 C 149.007812 206.519531 148.902344 206.570312 148.769531 206.570312 C 148.683594 206.570312 148.613281 206.542969 148.558594 206.492188 C 148.503906 206.441406 148.476562 206.375 148.476562 206.289062 C 148.476562 206.179688 148.515625 206.082031 148.601562 205.996094 C 148.683594 205.910156 148.773438 205.867188 148.875 205.867188 C 148.796875 205.804688 148.699219 205.773438 148.582031 205.773438 C 148.371094 205.773438 148.1875 205.847656 148.023438 206 C 147.863281 206.152344 147.722656 206.347656 147.597656 206.582031 L 147.058594 208.726562 C 147.042969 208.796875 147.007812 208.855469 146.945312 208.902344 C 146.886719 208.949219 146.820312 208.972656 146.742188 208.972656 C 146.6875 208.972656 146.636719 208.953125 146.589844 208.914062 C 146.542969 208.875 146.519531 208.824219 146.519531 208.761719 "
       id="path88" />
    <path
       style="fill:none;stroke-width:5.0025;stroke-linecap:square;stroke-linejoin:round;stroke:rgb(14.892578%,14.892578%,14.892578%);stroke-opacity:1;stroke-miterlimit:10;"
       d="M 360 300 L 360 1942.5 "
       transform="matrix(0.1,0,0,-0.1,0,211)"
       id="path90" />
    <path
       style="fill:none;stroke-width:5.0025;stroke-linecap:square;stroke-linejoin:round;stroke:rgb(14.892578%,14.892578%,14.892578%);stroke-opacity:1;stroke-miterlimit:10;"
       d="M 2535 300 L 2535 1942.5 "
       transform="matrix(0.1,0,0,-0.1,0,211)"
       id="path92" />
    <path
       style="fill:none;stroke-width:5.0025;stroke-linecap:square;stroke-linejoin:round;stroke:rgb(14.892578%,14.892578%,14.892578%);stroke-opacity:1;stroke-miterlimit:10;"
       d="M 360 353.59375 L 381.757812 353.59375 "
       transform="matrix(0.1,0,0,-0.1,0,211)"
       id="path94" />
    <path
       style="fill:none;stroke-width:5.0025;stroke-linecap:square;stroke-linejoin:round;stroke:rgb(14.892578%,14.892578%,14.892578%);stroke-opacity:1;stroke-miterlimit:10;"
       d="M 360 737.421875 L 381.757812 737.421875 "
       transform="matrix(0.1,0,0,-0.1,0,211)"
       id="path96" />
    <path
       style="fill:none;stroke-width:5.0025;stroke-linecap:square;stroke-linejoin:round;stroke:rgb(14.892578%,14.892578%,14.892578%);stroke-opacity:1;stroke-miterlimit:10;"
       d="M 360 1121.25 L 381.757812 1121.25 "
       transform="matrix(0.1,0,0,-0.1,0,211)"
       id="path98" />
    <path
       style="fill:none;stroke-width:5.0025;stroke-linecap:square;stroke-linejoin:round;stroke:rgb(14.892578%,14.892578%,14.892578%);stroke-opacity:1;stroke-miterlimit:10;"
       d="M 360 1505.078125 L 381.757812 1505.078125 "
       transform="matrix(0.1,0,0,-0.1,0,211)"
       id="path100" />
    <path
       style="fill:none;stroke-width:5.0025;stroke-linecap:square;stroke-linejoin:round;stroke:rgb(14.892578%,14.892578%,14.892578%);stroke-opacity:1;stroke-miterlimit:10;"
       d="M 360 1888.90625 L 381.757812 1888.90625 "
       transform="matrix(0.1,0,0,-0.1,0,211)"
       id="path102" />
    <path
       style="fill:none;stroke-width:5.0025;stroke-linecap:square;stroke-linejoin:round;stroke:rgb(14.892578%,14.892578%,14.892578%);stroke-opacity:1;stroke-miterlimit:10;"
       d="M 2535 353.59375 L 2513.242188 353.59375 "
       transform="matrix(0.1,0,0,-0.1,0,211)"
       id="path104" />
    <path
       style="fill:none;stroke-width:5.0025;stroke-linecap:square;stroke-linejoin:round;stroke:rgb(14.892578%,14.892578%,14.892578%);stroke-opacity:1;stroke-miterlimit:10;"
       d="M 2535 737.421875 L 2513.242188 737.421875 "
       transform="matrix(0.1,0,0,-0.1,0,211)"
       id="path106" />
    <path
       style="fill:none;stroke-width:5.0025;stroke-linecap:square;stroke-linejoin:round;stroke:rgb(14.892578%,14.892578%,14.892578%);stroke-opacity:1;stroke-miterlimit:10;"
       d="M 2535 1121.25 L 2513.242188 1121.25 "
       transform="matrix(0.1,0,0,-0.1,0,211)"
       id="path108" />
    <path
       style="fill:none;stroke-width:5.0025;stroke-linecap:square;stroke-linejoin:round;stroke:rgb(14.892578%,14.892578%,14.892578%);stroke-opacity:1;stroke-miterlimit:10;"
       d="M 2535 1505.078125 L 2513.242188 1505.078125 "
       transform="matrix(0.1,0,0,-0.1,0,211)"
       id="path110" />
    <path
       style="fill:none;stroke-width:5.0025;stroke-linecap:square;stroke-linejoin:round;stroke:rgb(14.892578%,14.892578%,14.892578%);stroke-opacity:1;stroke-miterlimit:10;"
       d="M 2535 1888.90625 L 2513.242188 1888.90625 "
       transform="matrix(0.1,0,0,-0.1,0,211)"
       id="path112" />
    <path
       style=" stroke:none;fill-rule:nonzero;fill:rgb(14.892578%,14.892578%,14.892578%);fill-opacity:1;"
       d="M 18.773438 176.234375 L 18.773438 175.625 L 21.363281 175.625 L 21.363281 176.234375 L 18.773438 176.234375 "
       id="path114" />
    <path
       style=" stroke:none;fill-rule:nonzero;fill:rgb(14.892578%,14.892578%,14.892578%);fill-opacity:1;"
       d="M 22.902344 178.039062 L 22.902344 177.699219 C 23.714844 177.699219 24.121094 177.59375 24.121094 177.382812 L 24.121094 172.273438 C 23.785156 172.429688 23.359375 172.507812 22.84375 172.507812 L 22.84375 172.167969 C 23.640625 172.167969 24.242188 171.960938 24.648438 171.546875 L 24.789062 171.546875 C 24.8125 171.546875 24.832031 171.554688 24.851562 171.570312 C 24.871094 171.585938 24.882812 171.605469 24.882812 171.628906 L 24.882812 177.382812 C 24.882812 177.59375 25.289062 177.699219 26.101562 177.699219 L 26.101562 178.039062 L 22.902344 178.039062 "
       id="path116" />
    <path
       style=" stroke:none;fill-rule:nonzero;fill:rgb(14.892578%,14.892578%,14.892578%);fill-opacity:1;"
       d="M 29.4375 178.25 C 28.640625 178.25 28.097656 177.921875 27.8125 177.265625 C 27.53125 176.609375 27.386719 175.832031 27.386719 174.933594 C 27.386719 174.363281 27.4375 173.832031 27.539062 173.335938 C 27.640625 172.835938 27.84375 172.414062 28.148438 172.066406 C 28.453125 171.71875 28.882812 171.546875 29.4375 171.546875 C 29.867188 171.546875 30.21875 171.652344 30.492188 171.855469 C 30.765625 172.066406 30.972656 172.335938 31.113281 172.664062 C 31.253906 172.996094 31.351562 173.351562 31.40625 173.730469 C 31.460938 174.109375 31.488281 174.511719 31.488281 174.933594 C 31.488281 175.488281 31.4375 176.007812 31.332031 176.496094 C 31.222656 176.984375 31.023438 177.402344 30.71875 177.738281 C 30.417969 178.078125 29.992188 178.25 29.4375 178.25 Z M 29.4375 178.003906 C 29.796875 178.003906 30.066406 177.816406 30.246094 177.445312 C 30.425781 177.078125 30.535156 176.664062 30.574219 176.210938 C 30.613281 175.757812 30.632812 175.277344 30.632812 174.769531 C 30.632812 174.285156 30.613281 173.835938 30.574219 173.421875 C 30.535156 173.007812 30.425781 172.632812 30.25 172.296875 C 30.078125 171.960938 29.804688 171.792969 29.4375 171.792969 C 29.070312 171.792969 28.796875 171.964844 28.617188 172.300781 C 28.4375 172.640625 28.328125 173.015625 28.289062 173.425781 C 28.25 173.839844 28.230469 174.285156 28.230469 174.769531 C 28.230469 175.136719 28.238281 175.480469 28.253906 175.800781 C 28.269531 176.121094 28.316406 176.449219 28.394531 176.789062 C 28.472656 177.132812 28.59375 177.417969 28.765625 177.652344 C 28.929688 177.886719 29.15625 178.003906 29.4375 178.003906 "
       id="path118" />
    <path
       style=" stroke:none;fill-rule:nonzero;fill:rgb(14.892578%,14.892578%,14.892578%);fill-opacity:1;"
       d="M 23.773438 137.851562 L 23.773438 137.242188 L 26.363281 137.242188 L 26.363281 137.851562 L 23.773438 137.851562 "
       id="path120" />
    <path
       style=" stroke:none;fill-rule:nonzero;fill:rgb(14.892578%,14.892578%,14.892578%);fill-opacity:1;"
       d="M 27.84375 138.542969 C 27.914062 138.738281 28.019531 138.914062 28.152344 139.070312 C 28.289062 139.226562 28.457031 139.347656 28.648438 139.433594 C 28.839844 139.519531 29.035156 139.5625 29.238281 139.5625 C 29.707031 139.5625 30.03125 139.378906 30.207031 139.011719 C 30.382812 138.644531 30.46875 138.203125 30.46875 137.6875 C 30.46875 137.460938 30.464844 137.273438 30.457031 137.121094 C 30.449219 136.96875 30.429688 136.816406 30.398438 136.667969 C 30.335938 136.441406 30.230469 136.242188 30.078125 136.070312 C 29.921875 135.898438 29.738281 135.8125 29.519531 135.8125 C 29.300781 135.8125 29.113281 135.847656 28.957031 135.914062 C 28.800781 135.980469 28.671875 136.058594 28.578125 136.148438 C 28.480469 136.238281 28.390625 136.332031 28.3125 136.429688 C 28.234375 136.527344 28.1875 136.578125 28.171875 136.585938 L 28.066406 136.585938 C 28.050781 136.585938 28.03125 136.578125 28 136.558594 C 27.972656 136.539062 27.960938 136.515625 27.960938 136.492188 L 27.960938 133.234375 C 27.960938 133.21875 27.972656 133.203125 27.996094 133.1875 C 28.019531 133.171875 28.042969 133.164062 28.066406 133.164062 L 28.089844 133.164062 C 28.527344 133.375 28.992188 133.480469 29.484375 133.480469 C 29.96875 133.480469 30.433594 133.375 30.878906 133.164062 L 30.914062 133.164062 C 30.929688 133.164062 30.945312 133.171875 30.964844 133.1875 C 30.984375 133.203125 30.996094 133.21875 30.996094 133.234375 L 30.996094 133.328125 C 30.996094 133.359375 30.992188 133.375 30.984375 133.375 C 30.757812 133.671875 30.476562 133.902344 30.140625 134.066406 C 29.804688 134.230469 29.460938 134.3125 29.109375 134.3125 C 28.84375 134.3125 28.574219 134.277344 28.300781 134.207031 L 28.300781 136.046875 C 28.519531 135.875 28.714844 135.753906 28.882812 135.679688 C 29.046875 135.605469 29.265625 135.566406 29.53125 135.566406 C 29.890625 135.566406 30.214844 135.667969 30.496094 135.871094 C 30.78125 136.074219 31.003906 136.34375 31.152344 136.675781 C 31.304688 137.007812 31.382812 137.347656 31.382812 137.699219 C 31.382812 138.089844 31.285156 138.453125 31.09375 138.785156 C 30.902344 139.117188 30.640625 139.378906 30.308594 139.574219 C 29.976562 139.769531 29.621094 139.867188 29.238281 139.867188 C 28.917969 139.867188 28.621094 139.785156 28.351562 139.621094 C 28.085938 139.457031 27.871094 139.238281 27.714844 138.960938 C 27.558594 138.683594 27.480469 138.382812 27.480469 138.0625 C 27.480469 137.921875 27.53125 137.804688 27.625 137.710938 C 27.722656 137.617188 27.84375 137.570312 27.984375 137.570312 C 28.125 137.570312 28.242188 137.617188 28.339844 137.710938 C 28.441406 137.804688 28.488281 137.921875 28.488281 138.0625 C 28.488281 138.203125 28.441406 138.324219 28.339844 138.421875 C 28.242188 138.519531 28.125 138.566406 27.984375 138.566406 C 27.960938 138.566406 27.933594 138.566406 27.90625 138.5625 C 27.882812 138.558594 27.859375 138.550781 27.84375 138.542969 "
       id="path122" />
    <path
       style=" stroke:none;fill-rule:nonzero;fill:rgb(14.892578%,14.892578%,14.892578%);fill-opacity:1;"
       d="M 29.4375 101.484375 C 28.640625 101.484375 28.097656 101.15625 27.8125 100.503906 C 27.53125 99.84375 27.386719 99.066406 27.386719 98.167969 C 27.386719 97.597656 27.4375 97.066406 27.539062 96.570312 C 27.640625 96.074219 27.84375 95.652344 28.148438 95.304688 C 28.453125 94.957031 28.882812 94.78125 29.4375 94.78125 C 29.867188 94.78125 30.21875 94.886719 30.492188 95.09375 C 30.765625 95.300781 30.972656 95.570312 31.113281 95.902344 C 31.253906 96.234375 31.351562 96.589844 31.40625 96.96875 C 31.460938 97.347656 31.488281 97.746094 31.488281 98.167969 C 31.488281 98.722656 31.4375 99.246094 31.332031 99.734375 C 31.222656 100.222656 31.023438 100.636719 30.71875 100.976562 C 30.417969 101.316406 29.992188 101.484375 29.4375 101.484375 Z M 29.4375 101.238281 C 29.796875 101.238281 30.066406 101.054688 30.246094 100.683594 C 30.425781 100.3125 30.535156 99.898438 30.574219 99.445312 C 30.613281 98.992188 30.632812 98.511719 30.632812 98.007812 C 30.632812 97.519531 30.613281 97.070312 30.574219 96.65625 C 30.535156 96.242188 30.425781 95.867188 30.25 95.53125 C 30.078125 95.195312 29.804688 95.027344 29.4375 95.027344 C 29.070312 95.027344 28.796875 95.199219 28.617188 95.539062 C 28.4375 95.878906 28.328125 96.253906 28.289062 96.664062 C 28.25 97.074219 28.230469 97.519531 28.230469 98.007812 C 28.230469 98.371094 28.238281 98.714844 28.253906 99.035156 C 28.269531 99.355469 28.316406 99.6875 28.394531 100.027344 C 28.472656 100.367188 28.59375 100.652344 28.765625 100.886719 C 28.929688 101.121094 29.15625 101.238281 29.4375 101.238281 "
       id="path124" />
    <path
       style=" stroke:none;fill-rule:nonzero;fill:rgb(14.892578%,14.892578%,14.892578%);fill-opacity:1;"
       d="M 27.84375 61.78125 C 27.914062 61.976562 28.019531 62.152344 28.152344 62.308594 C 28.289062 62.464844 28.457031 62.585938 28.648438 62.671875 C 28.839844 62.757812 29.035156 62.800781 29.238281 62.800781 C 29.707031 62.800781 30.03125 62.617188 30.207031 62.25 C 30.382812 61.882812 30.46875 61.441406 30.46875 60.925781 C 30.46875 60.699219 30.464844 60.507812 30.457031 60.355469 C 30.449219 60.203125 30.429688 60.054688 30.398438 59.90625 C 30.335938 59.679688 30.230469 59.480469 30.078125 59.308594 C 29.921875 59.136719 29.738281 59.050781 29.519531 59.050781 C 29.300781 59.050781 29.113281 59.082031 28.957031 59.148438 C 28.800781 59.214844 28.671875 59.292969 28.578125 59.382812 C 28.480469 59.472656 28.390625 59.566406 28.3125 59.664062 C 28.234375 59.761719 28.1875 59.816406 28.171875 59.824219 L 28.066406 59.824219 C 28.050781 59.824219 28.03125 59.8125 28 59.792969 C 27.972656 59.773438 27.960938 59.753906 27.960938 59.730469 L 27.960938 56.472656 C 27.960938 56.453125 27.972656 56.441406 27.996094 56.425781 C 28.019531 56.410156 28.042969 56.402344 28.066406 56.402344 L 28.089844 56.402344 C 28.527344 56.613281 28.992188 56.71875 29.484375 56.71875 C 29.96875 56.71875 30.433594 56.613281 30.878906 56.402344 L 30.914062 56.402344 C 30.929688 56.402344 30.945312 56.410156 30.964844 56.425781 C 30.984375 56.441406 30.996094 56.453125 30.996094 56.472656 L 30.996094 56.5625 C 30.996094 56.597656 30.992188 56.613281 30.984375 56.613281 C 30.757812 56.910156 30.476562 57.140625 30.140625 57.304688 C 29.804688 57.46875 29.460938 57.550781 29.109375 57.550781 C 28.84375 57.550781 28.574219 57.515625 28.300781 57.445312 L 28.300781 59.28125 C 28.519531 59.113281 28.714844 58.988281 28.882812 58.914062 C 29.046875 58.839844 29.265625 58.804688 29.53125 58.804688 C 29.890625 58.804688 30.214844 58.90625 30.496094 59.109375 C 30.78125 59.3125 31.003906 59.578125 31.152344 59.910156 C 31.304688 60.242188 31.382812 60.585938 31.382812 60.9375 C 31.382812 61.328125 31.285156 61.6875 31.09375 62.019531 C 30.902344 62.351562 30.640625 62.617188 30.308594 62.8125 C 29.976562 63.007812 29.621094 63.105469 29.238281 63.105469 C 28.917969 63.105469 28.621094 63.023438 28.351562 62.859375 C 28.085938 62.695312 27.871094 62.472656 27.714844 62.195312 C 27.558594 61.917969 27.480469 61.621094 27.480469 61.300781 C 27.480469 61.160156 27.53125 61.039062 27.625 60.949219 C 27.722656 60.855469 27.84375 60.808594 27.984375 60.808594 C 28.125 60.808594 28.242188 60.855469 28.339844 60.949219 C 28.441406 61.039062 28.488281 61.160156 28.488281 61.300781 C 28.488281 61.441406 28.441406 61.558594 28.339844 61.65625 C 28.242188 61.753906 28.125 61.804688 27.984375 61.804688 C 27.960938 61.804688 27.933594 61.800781 27.90625 61.796875 C 27.882812 61.792969 27.859375 61.785156 27.84375 61.78125 "
       id="path126" />
    <path
       style=" stroke:none;fill-rule:nonzero;fill:rgb(14.892578%,14.892578%,14.892578%);fill-opacity:1;"
       d="M 22.902344 24.511719 L 22.902344 24.171875 C 23.714844 24.171875 24.121094 24.066406 24.121094 23.855469 L 24.121094 18.746094 C 23.785156 18.902344 23.359375 18.980469 22.84375 18.980469 L 22.84375 18.640625 C 23.640625 18.640625 24.242188 18.433594 24.648438 18.019531 L 24.789062 18.019531 C 24.8125 18.019531 24.832031 18.027344 24.851562 18.042969 C 24.871094 18.058594 24.882812 18.078125 24.882812 18.101562 L 24.882812 23.855469 C 24.882812 24.066406 25.289062 24.171875 26.101562 24.171875 L 26.101562 24.511719 L 22.902344 24.511719 "
       id="path128" />
    <path
       style=" stroke:none;fill-rule:nonzero;fill:rgb(14.892578%,14.892578%,14.892578%);fill-opacity:1;"
       d="M 29.4375 24.722656 C 28.640625 24.722656 28.097656 24.394531 27.8125 23.738281 C 27.53125 23.082031 27.386719 22.304688 27.386719 21.40625 C 27.386719 20.835938 27.4375 20.300781 27.539062 19.808594 C 27.640625 19.308594 27.84375 18.886719 28.148438 18.539062 C 28.453125 18.191406 28.882812 18.019531 29.4375 18.019531 C 29.867188 18.019531 30.21875 18.121094 30.492188 18.328125 C 30.765625 18.535156 30.972656 18.804688 31.113281 19.136719 C 31.253906 19.46875 31.351562 19.824219 31.40625 20.203125 C 31.460938 20.585938 31.488281 20.984375 31.488281 21.40625 C 31.488281 21.960938 31.4375 22.480469 31.332031 22.96875 C 31.222656 23.460938 31.023438 23.871094 30.71875 24.214844 C 30.417969 24.550781 29.992188 24.722656 29.4375 24.722656 Z M 29.4375 24.476562 C 29.796875 24.476562 30.066406 24.289062 30.246094 23.921875 C 30.425781 23.546875 30.535156 23.136719 30.574219 22.683594 C 30.613281 22.230469 30.632812 21.75 30.632812 21.242188 C 30.632812 20.757812 30.613281 20.308594 30.574219 19.894531 C 30.535156 19.480469 30.425781 19.105469 30.25 18.769531 C 30.078125 18.433594 29.804688 18.265625 29.4375 18.265625 C 29.070312 18.265625 28.796875 18.433594 28.617188 18.773438 C 28.4375 19.113281 28.328125 19.488281 28.289062 19.898438 C 28.25 20.308594 28.230469 20.757812 28.230469 21.242188 C 28.230469 21.609375 28.238281 21.953125 28.253906 22.273438 C 28.269531 22.59375 28.316406 22.921875 28.394531 23.261719 C 28.472656 23.601562 28.59375 23.890625 28.765625 24.125 C 28.929688 24.359375 29.15625 24.476562 29.4375 24.476562 "
       id="path130" />
    <path
       style=" stroke:none;fill-rule:nonzero;fill:rgb(14.892578%,14.892578%,14.892578%);fill-opacity:1;"
       d="M 13.816406 109.84375 C 13.777344 109.84375 13.75 109.839844 13.734375 109.832031 L 7.089844 108.179688 C 6.988281 108.148438 6.90625 108.089844 6.835938 108.003906 C 6.769531 107.917969 6.738281 107.820312 6.738281 107.710938 C 6.738281 107.617188 6.765625 107.539062 6.820312 107.472656 C 6.875 107.40625 6.949219 107.371094 7.042969 107.371094 C 7.066406 107.371094 7.085938 107.371094 7.101562 107.371094 C 7.117188 107.371094 7.128906 107.375 7.136719 107.382812 L 9.773438 108.050781 C 10.085938 108.121094 10.355469 108.15625 10.582031 108.15625 C 10.863281 108.15625 11.089844 108.089844 11.265625 107.957031 C 11.441406 107.824219 11.53125 107.625 11.53125 107.359375 C 11.53125 106.8125 11.191406 106.332031 10.511719 105.917969 C 10.503906 105.917969 10.496094 105.917969 10.492188 105.914062 C 10.488281 105.910156 10.484375 105.90625 10.476562 105.90625 L 7.21875 105.097656 C 7.117188 105.074219 7.03125 105.015625 6.960938 104.921875 C 6.890625 104.828125 6.855469 104.726562 6.855469 104.617188 C 6.855469 104.53125 6.882812 104.457031 6.941406 104.390625 C 7 104.324219 7.078125 104.289062 7.171875 104.289062 C 7.21875 104.289062 7.25 104.292969 7.265625 104.300781 L 10.5 105.109375 C 10.71875 105.164062 10.902344 105.191406 11.050781 105.191406 C 11.371094 105.191406 11.53125 105.082031 11.53125 104.863281 C 11.53125 104.628906 11.386719 104.453125 11.097656 104.332031 C 10.808594 104.210938 10.460938 104.105469 10.054688 104.019531 C 10.007812 104.003906 9.984375 103.972656 9.984375 103.925781 L 9.984375 103.796875 C 9.984375 103.765625 9.996094 103.742188 10.019531 103.722656 C 10.042969 103.703125 10.070312 103.691406 10.101562 103.691406 C 10.625 103.824219 11.042969 103.96875 11.359375 104.125 C 11.675781 104.28125 11.835938 104.535156 11.835938 104.886719 C 11.835938 105.128906 11.761719 105.347656 11.617188 105.542969 C 11.472656 105.738281 11.28125 105.863281 11.039062 105.917969 C 11.273438 106.105469 11.464844 106.324219 11.613281 106.574219 C 11.761719 106.824219 11.835938 107.089844 11.835938 107.371094 C 11.835938 107.839844 11.726562 108.207031 11.507812 108.472656 L 13.78125 109.046875 C 13.882812 109.070312 13.96875 109.125 14.03125 109.210938 C 14.097656 109.296875 14.132812 109.394531 14.132812 109.503906 C 14.132812 109.597656 14.105469 109.679688 14.050781 109.746094 C 13.996094 109.8125 13.917969 109.84375 13.816406 109.84375 "
       id="path132" />
    <path
       style=" stroke:none;fill-rule:nonzero;fill:rgb(14.892578%,14.892578%,14.892578%);fill-opacity:1;"
       d="M 12.816406 102.945312 C 12.722656 102.945312 12.625 102.929688 12.523438 102.890625 L 10.90625 102.277344 C 10.726562 102.21875 10.578125 102.1875 10.460938 102.1875 C 10.3125 102.1875 10.238281 102.238281 10.238281 102.351562 C 10.238281 102.546875 10.339844 102.707031 10.542969 102.835938 C 10.746094 102.964844 10.972656 103.0625 11.222656 103.121094 C 11.253906 103.132812 11.269531 103.148438 11.269531 103.179688 L 11.269531 103.265625 C 11.269531 103.3125 11.246094 103.335938 11.199219 103.335938 L 11.175781 103.335938 C 10.878906 103.246094 10.617188 103.121094 10.386719 102.960938 C 10.15625 102.796875 10.039062 102.585938 10.039062 102.328125 C 10.039062 102.152344 10.097656 102.007812 10.214844 101.882812 C 10.332031 101.757812 10.480469 101.691406 10.660156 101.691406 C 10.753906 101.691406 10.851562 101.714844 10.953125 101.753906 L 12.570312 102.359375 C 12.734375 102.429688 12.882812 102.46875 13.015625 102.46875 C 13.164062 102.46875 13.238281 102.40625 13.238281 102.289062 C 13.238281 102.097656 13.136719 101.933594 12.929688 101.804688 C 12.722656 101.675781 12.496094 101.585938 12.253906 101.527344 C 12.222656 101.519531 12.207031 101.503906 12.207031 101.472656 L 12.207031 101.378906 C 12.207031 101.359375 12.214844 101.347656 12.230469 101.335938 C 12.246094 101.324219 12.261719 101.316406 12.277344 101.316406 C 12.277344 101.316406 12.285156 101.316406 12.300781 101.316406 C 12.582031 101.386719 12.84375 101.507812 13.082031 101.675781 C 13.320312 101.84375 13.4375 102.054688 13.4375 102.3125 C 13.4375 102.484375 13.378906 102.636719 13.257812 102.761719 C 13.136719 102.886719 12.988281 102.945312 12.816406 102.945312 Z M 8.808594 102.105469 C 8.707031 102.105469 8.613281 102.058594 8.527344 101.96875 C 8.441406 101.878906 8.398438 101.78125 8.398438 101.679688 C 8.398438 101.59375 8.425781 101.523438 8.476562 101.472656 C 8.527344 101.414062 8.59375 101.390625 8.679688 101.390625 C 8.789062 101.390625 8.886719 101.433594 8.972656 101.523438 C 9.058594 101.613281 9.101562 101.710938 9.101562 101.8125 C 9.101562 101.894531 9.074219 101.96875 9.015625 102.019531 C 8.957031 102.074219 8.886719 102.105469 8.808594 102.105469 "
       id="path134" />
    <path
       style=" stroke:none;fill-rule:nonzero;fill:rgb(14.892578%,14.892578%,14.892578%);fill-opacity:1;"
       d="M 14.296875 99.699219 C 14.273438 99.699219 14.257812 99.695312 14.25 99.6875 L 3.410156 95.769531 C 3.363281 95.765625 3.328125 95.742188 3.304688 95.703125 C 3.28125 95.660156 3.269531 95.621094 3.269531 95.574219 C 3.269531 95.511719 3.289062 95.457031 3.328125 95.414062 C 3.367188 95.371094 3.421875 95.351562 3.492188 95.351562 L 3.539062 95.351562 L 14.378906 99.265625 C 14.472656 99.304688 14.519531 99.371094 14.519531 99.476562 C 14.519531 99.535156 14.496094 99.589844 14.453125 99.632812 C 14.410156 99.675781 14.359375 99.699219 14.296875 99.699219 "
       id="path136" />
    <path
       style=" stroke:none;fill-rule:nonzero;fill:rgb(14.892578%,14.892578%,14.892578%);fill-opacity:1;"
       d="M 11.835938 93.472656 C 11.835938 93.894531 11.679688 94.195312 11.367188 94.386719 C 11.054688 94.570312 10.671875 94.664062 10.21875 94.664062 C 9.921875 94.664062 9.632812 94.640625 9.351562 94.589844 C 9.070312 94.539062 8.78125 94.460938 8.488281 94.351562 C 8.195312 94.242188 7.921875 94.117188 7.667969 93.980469 C 7.414062 93.84375 7.167969 93.6875 6.925781 93.507812 C 6.878906 93.476562 6.855469 93.433594 6.855469 93.378906 C 6.855469 93.328125 6.871094 93.292969 6.902344 93.265625 C 6.933594 93.238281 6.96875 93.226562 7.007812 93.226562 C 7.046875 93.226562 7.082031 93.234375 7.113281 93.246094 C 8.058594 93.9375 8.925781 94.28125 9.714844 94.28125 C 10.058594 94.28125 10.355469 94.199219 10.605469 94.039062 C 10.855469 93.878906 10.980469 93.640625 10.980469 93.320312 C 10.980469 93.035156 10.894531 92.777344 10.726562 92.535156 C 10.558594 92.289062 10.351562 92.085938 10.101562 91.910156 C 9.96875 91.910156 9.761719 91.890625 9.484375 91.84375 C 9.207031 91.796875 8.960938 91.722656 8.742188 91.625 C 8.523438 91.527344 8.414062 91.410156 8.414062 91.28125 C 8.414062 91.109375 8.515625 91.019531 8.71875 91.019531 C 8.835938 91.019531 8.980469 91.046875 9.15625 91.09375 C 9.332031 91.140625 9.496094 91.195312 9.648438 91.257812 C 9.800781 91.320312 9.976562 91.394531 10.171875 91.480469 C 10.710938 91.394531 10.980469 91.128906 10.980469 90.683594 C 10.980469 90.414062 10.902344 90.152344 10.753906 89.890625 C 10.597656 89.628906 10.402344 89.398438 10.160156 89.199219 C 9.917969 89 9.65625 88.84375 9.375 88.726562 C 9.09375 88.609375 8.824219 88.550781 8.566406 88.550781 C 8.339844 88.550781 8.164062 88.585938 8.039062 88.65625 C 7.914062 88.726562 7.78125 88.816406 7.640625 88.9375 C 7.5 89.054688 7.390625 89.109375 7.3125 89.109375 C 7.164062 89.109375 7.03125 89.050781 6.90625 88.929688 C 6.785156 88.808594 6.726562 88.675781 6.726562 88.527344 C 6.726562 88.347656 6.808594 88.21875 6.972656 88.140625 C 7.136719 88.0625 7.328125 88.019531 7.546875 88.019531 C 7.890625 88.019531 8.324219 88.089844 8.847656 88.226562 C 9.371094 88.363281 9.804688 88.519531 10.148438 88.699219 C 10.625 88.945312 11.023438 89.246094 11.347656 89.609375 C 11.671875 89.972656 11.835938 90.382812 11.835938 90.835938 C 11.835938 91.121094 11.746094 91.359375 11.570312 91.535156 C 11.394531 91.71875 11.160156 91.828125 10.863281 91.878906 C 11.160156 92.089844 11.394531 92.328125 11.570312 92.59375 C 11.746094 92.859375 11.835938 93.152344 11.835938 93.472656 "
       id="path138" />
    <path
       style=" stroke:none;fill-rule:nonzero;fill:rgb(85.15625%,32.493591%,9.790039%);fill-opacity:1;"
       d="M 59.617188 19.253906 C 61.136719 19.253906 62.367188 20.484375 62.367188 22.003906 C 62.367188 23.519531 61.136719 24.753906 59.617188 24.753906 C 58.097656 24.753906 56.867188 23.519531 56.867188 22.003906 C 56.867188 20.484375 58.097656 19.253906 59.617188 19.253906 Z M 59.617188 18.753906 C 57.820312 18.753906 56.367188 20.207031 56.367188 22.003906 C 56.367188 23.796875 57.820312 25.253906 59.617188 25.253906 C 61.410156 25.253906 62.867188 23.796875 62.867188 22.003906 C 62.867188 20.207031 61.410156 18.753906 59.617188 18.753906 "
       id="path140" />
    <path
       style=" stroke:none;fill-rule:nonzero;fill:rgb(85.15625%,32.493591%,9.790039%);fill-opacity:1;"
       d="M 59.617188 172.996094 C 61.136719 172.996094 62.367188 174.230469 62.367188 175.746094 C 62.367188 177.265625 61.136719 178.5 59.617188 178.5 C 58.097656 178.5 56.867188 177.265625 56.867188 175.746094 C 56.867188 174.230469 58.097656 172.996094 59.617188 172.996094 Z M 59.617188 172.5 C 57.820312 172.5 56.367188 173.953125 56.367188 175.746094 C 56.367188 177.542969 57.820312 178.996094 59.617188 178.996094 C 61.410156 178.996094 62.867188 177.542969 62.867188 175.746094 C 62.867188 173.953125 61.410156 172.5 59.617188 172.5 "
       id="path142" />
    <path
       style=" stroke:none;fill-rule:nonzero;fill:rgb(85.15625%,32.493591%,9.790039%);fill-opacity:1;"
       d="M 148.445312 27.242188 C 149.964844 27.242188 151.195312 28.476562 151.195312 29.992188 C 151.195312 31.511719 149.964844 32.742188 148.445312 32.742188 C 146.925781 32.742188 145.695312 31.511719 145.695312 29.992188 C 145.695312 28.476562 146.925781 27.242188 148.445312 27.242188 Z M 148.445312 26.742188 C 146.652344 26.742188 145.195312 28.199219 145.195312 29.992188 C 145.195312 31.789062 146.652344 33.242188 148.445312 33.242188 C 150.238281 33.242188 151.695312 31.789062 151.695312 29.992188 C 151.695312 28.199219 150.238281 26.742188 148.445312 26.742188 "
       id="path144" />
    <path
       style=" stroke:none;fill-rule:nonzero;fill:rgb(85.15625%,32.493591%,9.790039%);fill-opacity:1;"
       d="M 148.445312 165.007812 C 149.964844 165.007812 151.195312 166.238281 151.195312 167.757812 C 151.195312 169.273438 149.964844 170.507812 148.445312 170.507812 C 146.925781 170.507812 145.695312 169.273438 145.695312 167.757812 C 145.695312 166.238281 146.925781 165.007812 148.445312 165.007812 Z M 148.445312 164.507812 C 146.652344 164.507812 145.195312 165.960938 145.195312 167.757812 C 145.195312 169.550781 146.652344 171.007812 148.445312 171.007812 C 150.238281 171.007812 151.695312 169.550781 151.695312 167.757812 C 151.695312 165.960938 150.238281 164.507812 148.445312 164.507812 "
       id="path146" />
    <path
       style=" stroke:none;fill-rule:nonzero;fill:rgb(85.15625%,32.493591%,9.790039%);fill-opacity:1;"
       d="M 242.515625 34.363281 C 244.03125 34.363281 245.265625 35.597656 245.265625 37.117188 C 245.265625 38.632812 244.03125 39.867188 242.515625 39.867188 C 240.996094 39.867188 239.761719 38.632812 239.761719 37.117188 C 239.761719 35.597656 240.996094 34.363281 242.515625 34.363281 Z M 242.515625 33.867188 C 240.71875 33.867188 239.265625 35.320312 239.265625 37.117188 C 239.265625 38.910156 240.71875 40.363281 242.515625 40.363281 C 244.308594 40.363281 245.761719 38.910156 245.761719 37.117188 C 245.761719 35.320312 244.308594 33.867188 242.515625 33.867188 "
       id="path148" />
    <path
       style=" stroke:none;fill-rule:nonzero;fill:rgb(85.15625%,32.493591%,9.790039%);fill-opacity:1;"
       d="M 242.515625 157.882812 C 244.03125 157.882812 245.265625 159.117188 245.265625 160.632812 C 245.265625 162.152344 244.03125 163.386719 242.515625 163.386719 C 240.996094 163.386719 239.761719 162.152344 239.761719 160.632812 C 239.761719 159.117188 240.996094 157.882812 242.515625 157.882812 Z M 242.515625 157.382812 C 240.71875 157.382812 239.265625 158.839844 239.265625 160.632812 C 239.265625 162.429688 240.71875 163.882812 242.515625 163.882812 C 244.308594 163.882812 245.761719 162.429688 245.761719 160.632812 C 245.761719 158.839844 244.308594 157.382812 242.515625 157.382812 "
       id="path150" />
    <path
       style=" stroke:none;fill-rule:nonzero;fill:rgb(85.15625%,32.493591%,9.790039%);fill-opacity:1;"
       d="M 139.4375 34.84375 C 140.953125 34.84375 142.1875 36.074219 142.1875 37.59375 C 142.1875 39.109375 140.953125 40.34375 139.4375 40.34375 C 137.917969 40.34375 136.6875 39.109375 136.6875 37.59375 C 136.6875 36.074219 137.917969 34.84375 139.4375 34.84375 Z M 139.4375 34.34375 C 137.640625 34.34375 136.1875 35.796875 136.1875 37.59375 C 136.1875 39.386719 137.640625 40.84375 139.4375 40.84375 C 141.230469 40.84375 142.6875 39.386719 142.6875 37.59375 C 142.6875 35.796875 141.230469 34.34375 139.4375 34.34375 "
       id="path152" />
    <path
       style=" stroke:none;fill-rule:nonzero;fill:rgb(85.15625%,32.493591%,9.790039%);fill-opacity:1;"
       d="M 139.4375 157.40625 C 140.953125 157.40625 142.1875 158.640625 142.1875 160.15625 C 142.1875 161.675781 140.953125 162.90625 139.4375 162.90625 C 137.917969 162.90625 136.6875 161.675781 136.6875 160.15625 C 136.6875 158.640625 137.917969 157.40625 139.4375 157.40625 Z M 139.4375 156.90625 C 137.640625 156.90625 136.1875 158.363281 136.1875 160.15625 C 136.1875 161.953125 137.640625 163.40625 139.4375 163.40625 C 141.230469 163.40625 142.6875 161.953125 142.6875 160.15625 C 142.6875 158.363281 141.230469 156.90625 139.4375 156.90625 "
       id="path154" />
    <path
       style=" stroke:none;fill-rule:nonzero;fill:rgb(85.15625%,32.493591%,9.790039%);fill-opacity:1;"
       d="M 162.097656 42.355469 C 163.613281 42.355469 164.847656 43.585938 164.847656 45.105469 C 164.847656 46.625 163.613281 47.855469 162.097656 47.855469 C 160.578125 47.855469 159.347656 46.625 159.347656 45.105469 C 159.347656 43.585938 160.578125 42.355469 162.097656 42.355469 Z M 162.097656 41.855469 C 160.300781 41.855469 158.847656 43.3125 158.847656 45.105469 C 158.847656 46.902344 160.300781 48.355469 162.097656 48.355469 C 163.890625 48.355469 165.347656 46.902344 165.347656 45.105469 C 165.347656 43.3125 163.890625 41.855469 162.097656 41.855469 "
       id="path156" />
    <path
       style=" stroke:none;fill-rule:nonzero;fill:rgb(85.15625%,32.493591%,9.790039%);fill-opacity:1;"
       d="M 162.097656 149.894531 C 163.613281 149.894531 164.847656 151.125 164.847656 152.644531 C 164.847656 154.164062 163.613281 155.394531 162.097656 155.394531 C 160.578125 155.394531 159.347656 154.164062 159.347656 152.644531 C 159.347656 151.125 160.578125 149.894531 162.097656 149.894531 Z M 162.097656 149.394531 C 160.300781 149.394531 158.847656 150.847656 158.847656 152.644531 C 158.847656 154.4375 160.300781 155.894531 162.097656 155.894531 C 163.890625 155.894531 165.347656 154.4375 165.347656 152.644531 C 165.347656 150.847656 163.890625 149.394531 162.097656 149.394531 "
       id="path158" />
    <path
       style=" stroke:none;fill-rule:nonzero;fill:rgb(85.15625%,32.493591%,9.790039%);fill-opacity:1;"
       d="M 145.035156 42.417969 C 146.554688 42.417969 147.785156 43.648438 147.785156 45.167969 C 147.785156 46.6875 146.554688 47.917969 145.035156 47.917969 C 143.515625 47.917969 142.285156 46.6875 142.285156 45.167969 C 142.285156 43.648438 143.515625 42.417969 145.035156 42.417969 Z M 145.035156 41.917969 C 143.242188 41.917969 141.785156 43.371094 141.785156 45.167969 C 141.785156 46.964844 143.242188 48.417969 145.035156 48.417969 C 146.828125 48.417969 148.285156 46.964844 148.285156 45.167969 C 148.285156 43.371094 146.828125 41.917969 145.035156 41.917969 "
       id="path160" />
    <path
       style=" stroke:none;fill-rule:nonzero;fill:rgb(85.15625%,32.493591%,9.790039%);fill-opacity:1;"
       d="M 145.035156 149.832031 C 146.554688 149.832031 147.785156 151.0625 147.785156 152.582031 C 147.785156 154.101562 146.554688 155.332031 145.035156 155.332031 C 143.515625 155.332031 142.285156 154.101562 142.285156 152.582031 C 142.285156 151.0625 143.515625 149.832031 145.035156 149.832031 Z M 145.035156 149.332031 C 143.242188 149.332031 141.785156 150.785156 141.785156 152.582031 C 141.785156 154.375 143.242188 155.832031 145.035156 155.832031 C 146.828125 155.832031 148.285156 154.375 148.285156 152.582031 C 148.285156 150.785156 146.828125 149.332031 145.035156 149.332031 "
       id="path162" />
    <path
       style=" stroke:none;fill-rule:nonzero;fill:rgb(85.15625%,32.493591%,9.790039%);fill-opacity:1;"
       d="M 206.050781 50.066406 C 207.570312 50.066406 208.800781 51.296875 208.800781 52.816406 C 208.800781 54.335938 207.570312 55.566406 206.050781 55.566406 C 204.53125 55.566406 203.300781 54.335938 203.300781 52.816406 C 203.300781 51.296875 204.53125 50.066406 206.050781 50.066406 Z M 206.050781 49.566406 C 204.257812 49.566406 202.800781 51.023438 202.800781 52.816406 C 202.800781 54.609375 204.257812 56.066406 206.050781 56.066406 C 207.847656 56.066406 209.300781 54.609375 209.300781 52.816406 C 209.300781 51.023438 207.847656 49.566406 206.050781 49.566406 "
       id="path164" />
    <path
       style=" stroke:none;fill-rule:nonzero;fill:rgb(85.15625%,32.493591%,9.790039%);fill-opacity:1;"
       d="M 206.050781 142.183594 C 207.570312 142.183594 208.800781 143.414062 208.800781 144.933594 C 208.800781 146.453125 207.570312 147.683594 206.050781 147.683594 C 204.53125 147.683594 203.300781 146.453125 203.300781 144.933594 C 203.300781 143.414062 204.53125 142.183594 206.050781 142.183594 Z M 206.050781 141.683594 C 204.257812 141.683594 202.800781 143.140625 202.800781 144.933594 C 202.800781 146.726562 204.257812 148.183594 206.050781 148.183594 C 207.847656 148.183594 209.300781 146.726562 209.300781 144.933594 C 209.300781 143.140625 207.847656 141.683594 206.050781 141.683594 "
       id="path166" />
    <path
       style=" stroke:none;fill-rule:nonzero;fill:rgb(85.15625%,32.493591%,9.790039%);fill-opacity:1;"
       d="M 98.558594 50.066406 C 100.078125 50.066406 101.308594 51.296875 101.308594 52.816406 C 101.308594 54.335938 100.078125 55.566406 98.558594 55.566406 C 97.039062 55.566406 95.808594 54.335938 95.808594 52.816406 C 95.808594 51.296875 97.039062 50.066406 98.558594 50.066406 Z M 98.558594 49.566406 C 96.765625 49.566406 95.308594 51.023438 95.308594 52.816406 C 95.308594 54.609375 96.765625 56.066406 98.558594 56.066406 C 100.355469 56.066406 101.808594 54.609375 101.808594 52.816406 C 101.808594 51.023438 100.355469 49.566406 98.558594 49.566406 "
       id="path168" />
    <path
       style=" stroke:none;fill-rule:nonzero;fill:rgb(85.15625%,32.493591%,9.790039%);fill-opacity:1;"
       d="M 98.558594 142.183594 C 100.078125 142.183594 101.308594 143.414062 101.308594 144.933594 C 101.308594 146.453125 100.078125 147.683594 98.558594 147.683594 C 97.039062 147.683594 95.808594 146.453125 95.808594 144.933594 C 95.808594 143.414062 97.039062 142.183594 98.558594 142.183594 Z M 98.558594 141.683594 C 96.765625 141.683594 95.308594 143.140625 95.308594 144.933594 C 95.308594 146.726562 96.765625 148.183594 98.558594 148.183594 C 100.355469 148.183594 101.808594 146.726562 101.808594 144.933594 C 101.808594 143.140625 100.355469 141.683594 98.558594 141.683594 "
       id="path170" />
    <path
       style=" stroke:none;fill-rule:nonzero;fill:rgb(85.15625%,32.493591%,9.790039%);fill-opacity:1;"
       d="M 207.722656 57.742188 C 209.242188 57.742188 210.472656 58.972656 210.472656 60.492188 C 210.472656 62.011719 209.242188 63.242188 207.722656 63.242188 C 206.203125 63.242188 204.972656 62.011719 204.972656 60.492188 C 204.972656 58.972656 206.203125 57.742188 207.722656 57.742188 Z M 207.722656 57.242188 C 205.925781 57.242188 204.472656 58.699219 204.472656 60.492188 C 204.472656 62.289062 205.925781 63.742188 207.722656 63.742188 C 209.515625 63.742188 210.972656 62.289062 210.972656 60.492188 C 210.972656 58.699219 209.515625 57.242188 207.722656 57.242188 "
       id="path172" />
    <path
       style=" stroke:none;fill-rule:nonzero;fill:rgb(85.15625%,32.493591%,9.790039%);fill-opacity:1;"
       d="M 207.722656 134.507812 C 209.242188 134.507812 210.472656 135.738281 210.472656 137.257812 C 210.472656 138.777344 209.242188 140.007812 207.722656 140.007812 C 206.203125 140.007812 204.972656 138.777344 204.972656 137.257812 C 204.972656 135.738281 206.203125 134.507812 207.722656 134.507812 Z M 207.722656 134.007812 C 205.925781 134.007812 204.472656 135.460938 204.472656 137.257812 C 204.472656 139.050781 205.925781 140.507812 207.722656 140.507812 C 209.515625 140.507812 210.972656 139.050781 210.972656 137.257812 C 210.972656 135.460938 209.515625 134.007812 207.722656 134.007812 "
       id="path174" />
    <path
       style=" stroke:none;fill-rule:nonzero;fill:rgb(85.15625%,32.493591%,9.790039%);fill-opacity:1;"
       d="M 96.839844 57.742188 C 98.355469 57.742188 99.589844 58.972656 99.589844 60.492188 C 99.589844 62.011719 98.355469 63.242188 96.839844 63.242188 C 95.320312 63.242188 94.089844 62.011719 94.089844 60.492188 C 94.089844 58.972656 95.320312 57.742188 96.839844 57.742188 Z M 96.839844 57.242188 C 95.042969 57.242188 93.589844 58.699219 93.589844 60.492188 C 93.589844 62.289062 95.042969 63.742188 96.839844 63.742188 C 98.632812 63.742188 100.089844 62.289062 100.089844 60.492188 C 100.089844 58.699219 98.632812 57.242188 96.839844 57.242188 "
       id="path176" />
    <path
       style=" stroke:none;fill-rule:nonzero;fill:rgb(85.15625%,32.493591%,9.790039%);fill-opacity:1;"
       d="M 96.839844 134.507812 C 98.355469 134.507812 99.589844 135.738281 99.589844 137.257812 C 99.589844 138.777344 98.355469 140.007812 96.839844 140.007812 C 95.320312 140.007812 94.089844 138.777344 94.089844 137.257812 C 94.089844 135.738281 95.320312 134.507812 96.839844 134.507812 Z M 96.839844 134.007812 C 95.042969 134.007812 93.589844 135.460938 93.589844 137.257812 C 93.589844 139.050781 95.042969 140.507812 96.839844 140.507812 C 98.632812 140.507812 100.089844 139.050781 100.089844 137.257812 C 100.089844 135.460938 98.632812 134.007812 96.839844 134.007812 "
       id="path178" />
    <path
       style=" stroke:none;fill-rule:nonzero;fill:rgb(85.15625%,32.493591%,9.790039%);fill-opacity:1;"
       d="M 207.742188 65.417969 C 209.261719 65.417969 210.492188 66.652344 210.492188 68.171875 C 210.492188 69.6875 209.261719 70.921875 207.742188 70.921875 C 206.226562 70.921875 204.992188 69.6875 204.992188 68.171875 C 204.992188 66.652344 206.226562 65.417969 207.742188 65.417969 Z M 207.742188 64.921875 C 205.949219 64.921875 204.492188 66.375 204.492188 68.171875 C 204.492188 69.964844 205.949219 71.417969 207.742188 71.417969 C 209.539062 71.417969 210.992188 69.964844 210.992188 68.171875 C 210.992188 66.375 209.539062 64.921875 207.742188 64.921875 "
       id="path180" />
    <path
       style=" stroke:none;fill-rule:nonzero;fill:rgb(85.15625%,32.493591%,9.790039%);fill-opacity:1;"
       d="M 207.742188 126.832031 C 209.261719 126.832031 210.492188 128.0625 210.492188 129.582031 C 210.492188 131.097656 209.261719 132.332031 207.742188 132.332031 C 206.226562 132.332031 204.992188 131.097656 204.992188 129.582031 C 204.992188 128.0625 206.226562 126.832031 207.742188 126.832031 Z M 207.742188 126.332031 C 205.949219 126.332031 204.492188 127.785156 204.492188 129.582031 C 204.492188 131.375 205.949219 132.832031 207.742188 132.832031 C 209.539062 132.832031 210.992188 131.375 210.992188 129.582031 C 210.992188 127.785156 209.539062 126.332031 207.742188 126.332031 "
       id="path182" />
    <path
       style=" stroke:none;fill-rule:nonzero;fill:rgb(85.15625%,32.493591%,9.790039%);fill-opacity:1;"
       d="M 96.816406 65.417969 C 98.335938 65.417969 99.566406 66.652344 99.566406 68.171875 C 99.566406 69.6875 98.335938 70.921875 96.816406 70.921875 C 95.296875 70.921875 94.066406 69.6875 94.066406 68.171875 C 94.066406 66.652344 95.296875 65.417969 96.816406 65.417969 Z M 96.816406 64.921875 C 95.019531 64.921875 93.566406 66.375 93.566406 68.171875 C 93.566406 69.964844 95.019531 71.417969 96.816406 71.417969 C 98.609375 71.417969 100.066406 69.964844 100.066406 68.171875 C 100.066406 66.375 98.609375 64.921875 96.816406 64.921875 "
       id="path184" />
    <path
       style=" stroke:none;fill-rule:nonzero;fill:rgb(85.15625%,32.493591%,9.790039%);fill-opacity:1;"
       d="M 96.816406 126.832031 C 98.335938 126.832031 99.566406 128.0625 99.566406 129.582031 C 99.566406 131.097656 98.335938 132.332031 96.816406 132.332031 C 95.296875 132.332031 94.066406 131.097656 94.066406 129.582031 C 94.066406 128.0625 95.296875 126.832031 96.816406 126.832031 Z M 96.816406 126.332031 C 95.019531 126.332031 93.566406 127.785156 93.566406 129.582031 C 93.566406 131.375 95.019531 132.832031 96.816406 132.832031 C 98.609375 132.832031 100.066406 131.375 100.066406 129.582031 C 100.066406 127.785156 98.609375 126.332031 96.816406 126.332031 "
       id="path186" />
    <path
       style=" stroke:none;fill-rule:nonzero;fill:rgb(85.15625%,32.493591%,9.790039%);fill-opacity:1;"
       d="M 207.742188 73.097656 C 209.261719 73.097656 210.492188 74.328125 210.492188 75.847656 C 210.492188 77.363281 209.261719 78.597656 207.742188 78.597656 C 206.226562 78.597656 204.992188 77.363281 204.992188 75.847656 C 204.992188 74.328125 206.226562 73.097656 207.742188 73.097656 Z M 207.742188 72.597656 C 205.949219 72.597656 204.492188 74.050781 204.492188 75.847656 C 204.492188 77.640625 205.949219 79.097656 207.742188 79.097656 C 209.539062 79.097656 210.992188 77.640625 210.992188 75.847656 C 210.992188 74.050781 209.539062 72.597656 207.742188 72.597656 "
       id="path188" />
    <path
       style=" stroke:none;fill-rule:nonzero;fill:rgb(85.15625%,32.493591%,9.790039%);fill-opacity:1;"
       d="M 207.742188 119.152344 C 209.261719 119.152344 210.492188 120.386719 210.492188 121.90625 C 210.492188 123.421875 209.261719 124.65625 207.742188 124.65625 C 206.226562 124.65625 204.992188 123.421875 204.992188 121.90625 C 204.992188 120.386719 206.226562 119.152344 207.742188 119.152344 Z M 207.742188 118.65625 C 205.949219 118.65625 204.492188 120.109375 204.492188 121.90625 C 204.492188 123.699219 205.949219 125.152344 207.742188 125.152344 C 209.539062 125.152344 210.992188 123.699219 210.992188 121.90625 C 210.992188 120.109375 209.539062 118.65625 207.742188 118.65625 "
       id="path190" />
    <path
       style=" stroke:none;fill-rule:nonzero;fill:rgb(85.15625%,32.493591%,9.790039%);fill-opacity:1;"
       d="M 96.816406 73.097656 C 98.335938 73.097656 99.566406 74.328125 99.566406 75.847656 C 99.566406 77.363281 98.335938 78.597656 96.816406 78.597656 C 95.296875 78.597656 94.066406 77.363281 94.066406 75.847656 C 94.066406 74.328125 95.296875 73.097656 96.816406 73.097656 Z M 96.816406 72.597656 C 95.019531 72.597656 93.566406 74.050781 93.566406 75.847656 C 93.566406 77.640625 95.019531 79.097656 96.816406 79.097656 C 98.609375 79.097656 100.066406 77.640625 100.066406 75.847656 C 100.066406 74.050781 98.609375 72.597656 96.816406 72.597656 "
       id="path192" />
    <path
       style=" stroke:none;fill-rule:nonzero;fill:rgb(85.15625%,32.493591%,9.790039%);fill-opacity:1;"
       d="M 96.816406 119.152344 C 98.335938 119.152344 99.566406 120.386719 99.566406 121.90625 C 99.566406 123.421875 98.335938 124.65625 96.816406 124.65625 C 95.296875 124.65625 94.066406 123.421875 94.066406 121.90625 C 94.066406 120.386719 95.296875 119.152344 96.816406 119.152344 Z M 96.816406 118.65625 C 95.019531 118.65625 93.566406 120.109375 93.566406 121.90625 C 93.566406 123.699219 95.019531 125.152344 96.816406 125.152344 C 98.609375 125.152344 100.066406 123.699219 100.066406 121.90625 C 100.066406 120.109375 98.609375 118.65625 96.816406 118.65625 "
       id="path194" />
    <path
       style=" stroke:none;fill-rule:nonzero;fill:rgb(85.15625%,32.493591%,9.790039%);fill-opacity:1;"
       d="M 207.742188 80.773438 C 209.261719 80.773438 210.492188 82.003906 210.492188 83.523438 C 210.492188 85.039062 209.261719 86.273438 207.742188 86.273438 C 206.226562 86.273438 204.992188 85.039062 204.992188 83.523438 C 204.992188 82.003906 206.226562 80.773438 207.742188 80.773438 Z M 207.742188 80.273438 C 205.949219 80.273438 204.492188 81.726562 204.492188 83.523438 C 204.492188 85.316406 205.949219 86.773438 207.742188 86.773438 C 209.539062 86.773438 210.992188 85.316406 210.992188 83.523438 C 210.992188 81.726562 209.539062 80.273438 207.742188 80.273438 "
       id="path196" />
    <path
       style=" stroke:none;fill-rule:nonzero;fill:rgb(85.15625%,32.493591%,9.790039%);fill-opacity:1;"
       d="M 207.742188 111.476562 C 209.261719 111.476562 210.492188 112.710938 210.492188 114.226562 C 210.492188 115.746094 209.261719 116.976562 207.742188 116.976562 C 206.226562 116.976562 204.992188 115.746094 204.992188 114.226562 C 204.992188 112.710938 206.226562 111.476562 207.742188 111.476562 Z M 207.742188 110.976562 C 205.949219 110.976562 204.492188 112.433594 204.492188 114.226562 C 204.492188 116.023438 205.949219 117.476562 207.742188 117.476562 C 209.539062 117.476562 210.992188 116.023438 210.992188 114.226562 C 210.992188 112.433594 209.539062 110.976562 207.742188 110.976562 "
       id="path198" />
    <path
       style=" stroke:none;fill-rule:nonzero;fill:rgb(85.15625%,32.493591%,9.790039%);fill-opacity:1;"
       d="M 96.816406 80.773438 C 98.335938 80.773438 99.566406 82.003906 99.566406 83.523438 C 99.566406 85.039062 98.335938 86.273438 96.816406 86.273438 C 95.296875 86.273438 94.066406 85.039062 94.066406 83.523438 C 94.066406 82.003906 95.296875 80.773438 96.816406 80.773438 Z M 96.816406 80.273438 C 95.019531 80.273438 93.566406 81.726562 93.566406 83.523438 C 93.566406 85.316406 95.019531 86.773438 96.816406 86.773438 C 98.609375 86.773438 100.066406 85.316406 100.066406 83.523438 C 100.066406 81.726562 98.609375 80.273438 96.816406 80.273438 "
       id="path200" />
    <path
       style=" stroke:none;fill-rule:nonzero;fill:rgb(85.15625%,32.493591%,9.790039%);fill-opacity:1;"
       d="M 96.816406 111.476562 C 98.335938 111.476562 99.566406 112.710938 99.566406 114.226562 C 99.566406 115.746094 98.335938 116.976562 96.816406 116.976562 C 95.296875 116.976562 94.066406 115.746094 94.066406 114.226562 C 94.066406 112.710938 95.296875 111.476562 96.816406 111.476562 Z M 96.816406 110.976562 C 95.019531 110.976562 93.566406 112.433594 93.566406 114.226562 C 93.566406 116.023438 95.019531 117.476562 96.816406 117.476562 C 98.609375 117.476562 100.066406 116.023438 100.066406 114.226562 C 100.066406 112.433594 98.609375 110.976562 96.816406 110.976562 "
       id="path202" />
    <path
       style=" stroke:none;fill-rule:nonzero;fill:rgb(85.15625%,32.493591%,9.790039%);fill-opacity:1;"
       d="M 207.742188 88.449219 C 209.261719 88.449219 210.492188 89.679688 210.492188 91.199219 C 210.492188 92.71875 209.261719 93.949219 207.742188 93.949219 C 206.226562 93.949219 204.992188 92.71875 204.992188 91.199219 C 204.992188 89.679688 206.226562 88.449219 207.742188 88.449219 Z M 207.742188 87.949219 C 205.949219 87.949219 204.492188 89.402344 204.492188 91.199219 C 204.492188 92.992188 205.949219 94.449219 207.742188 94.449219 C 209.539062 94.449219 210.992188 92.992188 210.992188 91.199219 C 210.992188 89.402344 209.539062 87.949219 207.742188 87.949219 "
       id="path204" />
    <path
       style=" stroke:none;fill-rule:nonzero;fill:rgb(85.15625%,32.493591%,9.790039%);fill-opacity:1;"
       d="M 207.742188 103.800781 C 209.261719 103.800781 210.492188 105.03125 210.492188 106.550781 C 210.492188 108.070312 209.261719 109.300781 207.742188 109.300781 C 206.226562 109.300781 204.992188 108.070312 204.992188 106.550781 C 204.992188 105.03125 206.226562 103.800781 207.742188 103.800781 Z M 207.742188 103.300781 C 205.949219 103.300781 204.492188 104.757812 204.492188 106.550781 C 204.492188 108.347656 205.949219 109.800781 207.742188 109.800781 C 209.539062 109.800781 210.992188 108.347656 210.992188 106.550781 C 210.992188 104.757812 209.539062 103.300781 207.742188 103.300781 "
       id="path206" />
    <path
       style=" stroke:none;fill-rule:nonzero;fill:rgb(85.15625%,32.493591%,9.790039%);fill-opacity:1;"
       d="M 96.816406 88.449219 C 98.335938 88.449219 99.566406 89.679688 99.566406 91.199219 C 99.566406 92.71875 98.335938 93.949219 96.816406 93.949219 C 95.296875 93.949219 94.066406 92.71875 94.066406 91.199219 C 94.066406 89.679688 95.296875 88.449219 96.816406 88.449219 Z M 96.816406 87.949219 C 95.019531 87.949219 93.566406 89.402344 93.566406 91.199219 C 93.566406 92.992188 95.019531 94.449219 96.816406 94.449219 C 98.609375 94.449219 100.066406 92.992188 100.066406 91.199219 C 100.066406 89.402344 98.609375 87.949219 96.816406 87.949219 "
       id="path208" />
    <path
       style=" stroke:none;fill-rule:nonzero;fill:rgb(85.15625%,32.493591%,9.790039%);fill-opacity:1;"
       d="M 96.816406 103.800781 C 98.335938 103.800781 99.566406 105.03125 99.566406 106.550781 C 99.566406 108.070312 98.335938 109.300781 96.816406 109.300781 C 95.296875 109.300781 94.066406 108.070312 94.066406 106.550781 C 94.066406 105.03125 95.296875 103.800781 96.816406 103.800781 Z M 96.816406 103.300781 C 95.019531 103.300781 93.566406 104.757812 93.566406 106.550781 C 93.566406 108.347656 95.019531 109.800781 96.816406 109.800781 C 98.609375 109.800781 100.066406 108.347656 100.066406 106.550781 C 100.066406 104.757812 98.609375 103.300781 96.816406 103.300781 "
       id="path210" />
    <path
       style=" stroke:none;fill-rule:nonzero;fill:rgb(85.15625%,32.493591%,9.790039%);fill-opacity:1;"
       d="M 207.742188 96.125 C 209.261719 96.125 210.492188 97.355469 210.492188 98.875 C 210.492188 100.394531 209.261719 101.625 207.742188 101.625 C 206.226562 101.625 204.992188 100.394531 204.992188 98.875 C 204.992188 97.355469 206.226562 96.125 207.742188 96.125 Z M 207.742188 95.625 C 205.949219 95.625 204.492188 97.078125 204.492188 98.875 C 204.492188 100.671875 205.949219 102.125 207.742188 102.125 C 209.539062 102.125 210.992188 100.671875 210.992188 98.875 C 210.992188 97.078125 209.539062 95.625 207.742188 95.625 "
       id="path212" />
    <path
       style=" stroke:none;fill-rule:nonzero;fill:rgb(85.15625%,32.493591%,9.790039%);fill-opacity:1;"
       d="M 96.816406 96.125 C 98.335938 96.125 99.566406 97.355469 99.566406 98.875 C 99.566406 100.394531 98.335938 101.625 96.816406 101.625 C 95.296875 101.625 94.066406 100.394531 94.066406 98.875 C 94.066406 97.355469 95.296875 96.125 96.816406 96.125 Z M 96.816406 95.625 C 95.019531 95.625 93.566406 97.078125 93.566406 98.875 C 93.566406 100.671875 95.019531 102.125 96.816406 102.125 C 98.609375 102.125 100.066406 100.671875 100.066406 98.875 C 100.066406 97.078125 98.609375 95.625 96.816406 95.625 "
       id="path214" />
    <path
       style="fill:none;stroke-width:5.0025;stroke-linecap:butt;stroke-linejoin:miter;stroke:rgb(100%,100%,100%);stroke-opacity:1;stroke-miterlimit:10;"
       d="M 0 0 L 2797.5 0 L 2797.5 2100 L 0 2100 Z M 0 0 "
       transform="matrix(0.1,0,0,-0.1,0,211)"
       id="path216" />
  </g>
  <path
     style="fill:#ff0000;stroke:#ff0000;stroke-width:0.75px;stroke-linecap:butt;stroke-linejoin:miter;stroke-opacity:1;marker-end:url(#Arrow1Mend)"
     d="M 147.61903,122.4918 C 136.2394,115.53759 104.31323,98.468152 104.31323,98.468152"
     id="path1032"
     inkscape:connector-curvature="0" />
  <path
     style="fill:#ff0000;stroke:#ff0000;stroke-width:0.75px;stroke-linecap:butt;stroke-linejoin:miter;stroke-opacity:1;marker-end:url(#Arrow1Mend-3)"
     d="m 160.39409,132.22937 c 10.94276,-7.6232 39.40828,-29.99192 39.40828,-29.99192"
     id="path1032-7"
     inkscape:connector-curvature="0" />
</svg>
