<?xml version="1.0" encoding="UTF-8" standalone="no"?>
<svg
   xmlns:dc="http://purl.org/dc/elements/1.1/"
   xmlns:cc="http://creativecommons.org/ns#"
   xmlns:rdf="http://www.w3.org/1999/02/22-rdf-syntax-ns#"
   xmlns:svg="http://www.w3.org/2000/svg"
   xmlns="http://www.w3.org/2000/svg"
   xmlns:xlink="http://www.w3.org/1999/xlink"
   xmlns:sodipodi="http://sodipodi.sourceforge.net/DTD/sodipodi-0.dtd"
   xmlns:inkscape="http://www.inkscape.org/namespaces/inkscape"
   width="278pt"
   height="230pt"
   viewBox="0 0 278 230"
   version="1.2"
   id="svg237"
   sodipodi:docname="bifdiag-1.svg"
   inkscape:export-filename="/people/gesla/Documents/git/mtb-work/inkscapes/lyon-bdiag-1.png"
   inkscape:export-xdpi="300"
   inkscape:export-ydpi="300"
   inkscape:version="0.92.5 (2060ec1f9f, 2020-04-08)">
  <metadata
     id="metadata243">
    <rdf:RDF>
      <cc:Work
         rdf:about="">
        <dc:format>image/svg+xml</dc:format>
        <dc:type
           rdf:resource="http://purl.org/dc/dcmitype/StillImage" />
        <dc:title></dc:title>
        <dc:title />
      </cc:Work>
    </rdf:RDF>
  </metadata>
  <defs
     id="defs241" />
  <sodipodi:namedview
     pagecolor="#ffffff"
     bordercolor="#666666"
     borderopacity="1"
     objecttolerance="10"
     gridtolerance="10"
     guidetolerance="10"
     inkscape:pageopacity="0"
     inkscape:pageshadow="2"
     inkscape:window-width="1920"
     inkscape:window-height="964"
     id="namedview239"
     showgrid="false"
     inkscape:zoom="2.1766591"
     inkscape:cx="126.61868"
     inkscape:cy="107.6028"
     inkscape:window-x="0"
     inkscape:window-y="27"
     inkscape:window-maximized="1"
     inkscape:current-layer="surface594" />
  <g
     id="surface594">
    <rect
       x="0"
       y="0"
       width="278"
       height="230"
       style="fill:rgb(100%,100%,100%);fill-opacity:1;stroke:none;"
       id="rect2" />
    <path
       style=" stroke:none;fill-rule:nonzero;fill:rgb(100%,100%,100%);fill-opacity:1;"
       d="M 34.5 198 L 276.75 198 L 276.75 5.25 L 34.5 5.25 Z M 34.5 198 "
       id="path4"
       inkscape:export-xdpi="300"
       inkscape:export-ydpi="300" />
    <path
       style="fill:none;stroke-width:5.0025;stroke-linecap:butt;stroke-linejoin:round;stroke:rgb(87.304688%,87.304688%,87.304688%);stroke-opacity:1;stroke-miterlimit:10;"
       d="M 950.625 320 L 950.625 2247.5 "
       transform="matrix(0.1,0,0,-0.1,0,230)"
       id="path6" />
    <path
       style="fill:none;stroke-width:5.0025;stroke-linecap:butt;stroke-linejoin:round;stroke:rgb(87.304688%,87.304688%,87.304688%);stroke-opacity:1;stroke-miterlimit:10;"
       d="M 1707.65625 320 L 1707.65625 2247.5 "
       transform="matrix(0.1,0,0,-0.1,0,230)"
       id="path8" />
    <path
       style="fill:none;stroke-width:5.0025;stroke-linecap:butt;stroke-linejoin:round;stroke:rgb(87.304688%,87.304688%,87.304688%);stroke-opacity:1;stroke-miterlimit:10;"
       d="M 2464.6875 320 L 2464.6875 2247.5 "
       transform="matrix(0.1,0,0,-0.1,0,230)"
       id="path10" />
    <path
       style="fill:none;stroke-width:5.0025;stroke-linecap:butt;stroke-linejoin:round;stroke:rgb(87.304688%,87.304688%,87.304688%);stroke-opacity:1;stroke-miterlimit:10;"
       d="M 2767.5 320 L 345 320 "
       transform="matrix(0.1,0,0,-0.1,0,230)"
       id="path12" />
    <path
       style="fill:none;stroke-width:5.0025;stroke-linecap:butt;stroke-linejoin:round;stroke:rgb(87.304688%,87.304688%,87.304688%);stroke-opacity:1;stroke-miterlimit:10;"
       d="M 2767.5 595.351562 L 345 595.351562 "
       transform="matrix(0.1,0,0,-0.1,0,230)"
       id="path14" />
    <path
       style="fill:none;stroke-width:5.0025;stroke-linecap:butt;stroke-linejoin:round;stroke:rgb(87.304688%,87.304688%,87.304688%);stroke-opacity:1;stroke-miterlimit:10;"
       d="M 2767.5 870.703125 L 345 870.703125 "
       transform="matrix(0.1,0,0,-0.1,0,230)"
       id="path16" />
    <path
       style="fill:none;stroke-width:5.0025;stroke-linecap:butt;stroke-linejoin:round;stroke:rgb(87.304688%,87.304688%,87.304688%);stroke-opacity:1;stroke-miterlimit:10;"
       d="M 2767.5 1146.054688 L 345 1146.054688 "
       transform="matrix(0.1,0,0,-0.1,0,230)"
       id="path18" />
    <path
       style="fill:none;stroke-width:5.0025;stroke-linecap:butt;stroke-linejoin:round;stroke:rgb(87.304688%,87.304688%,87.304688%);stroke-opacity:1;stroke-miterlimit:10;"
       d="M 2767.5 1421.445312 L 345 1421.445312 "
       transform="matrix(0.1,0,0,-0.1,0,230)"
       id="path20" />
    <path
       style="fill:none;stroke-width:5.0025;stroke-linecap:butt;stroke-linejoin:round;stroke:rgb(87.304688%,87.304688%,87.304688%);stroke-opacity:1;stroke-miterlimit:10;"
       d="M 2767.5 1696.796875 L 345 1696.796875 "
       id="path22"
       transform="matrix(0.1,0,0,-0.1,0,230)" />
    <path
       style="fill:none;stroke-width:5.0025;stroke-linecap:butt;stroke-linejoin:round;stroke:rgb(87.304688%,87.304688%,87.304688%);stroke-opacity:1;stroke-miterlimit:10;"
       d="M 2767.5 1972.148438 L 345 1972.148438 "
       transform="matrix(0.1,0,0,-0.1,0,230)"
       id="path24" />
    <path
       style="fill:none;stroke-width:5.0025;stroke-linecap:butt;stroke-linejoin:round;stroke:rgb(87.304688%,87.304688%,87.304688%);stroke-opacity:1;stroke-miterlimit:10;"
       d="M 2767.5 2247.5 L 345 2247.5 "
       transform="matrix(0.1,0,0,-0.1,0,230)"
       id="path26" />
    <path
       style="fill:none;stroke-width:5.0025;stroke-linecap:square;stroke-linejoin:round;stroke:rgb(14.892578%,14.892578%,14.892578%);stroke-opacity:1;stroke-miterlimit:10;"
       d="M 345 320 L 2767.5 320 "
       transform="matrix(0.1,0,0,-0.1,0,230)"
       id="path28" />
    <path
       style="fill:none;stroke-width:5.0025;stroke-linecap:square;stroke-linejoin:round;stroke:rgb(14.892578%,14.892578%,14.892578%);stroke-opacity:1;stroke-miterlimit:10;"
       d="M 950.625 320 L 950.625 344.21875 "
       transform="matrix(0.1,0,0,-0.1,0,230)"
       id="path30" />
    <path
       style="fill:none;stroke-width:5.0025;stroke-linecap:square;stroke-linejoin:round;stroke:rgb(14.892578%,14.892578%,14.892578%);stroke-opacity:1;stroke-miterlimit:10;"
       d="M 1707.65625 320 L 1707.65625 344.21875 "
       transform="matrix(0.1,0,0,-0.1,0,230)"
       id="path32" />
    <path
       style="fill:#ff0000;stroke:#ff0000;stroke-width:0.75px;stroke-linecap:butt;stroke-linejoin:miter;stroke-opacity:1"
       d="m 34.5,198 200.79313,-0.0105"
       id="path1944"
       inkscape:connector-curvature="0"
       sodipodi:nodetypes="cc" />
    <path
       style="fill:none;stroke-width:5.0025;stroke-linecap:square;stroke-linejoin:round;stroke:rgb(14.892578%,14.892578%,14.892578%);stroke-opacity:1;stroke-miterlimit:10;"
       d="M 2464.6875 320 L 2464.6875 344.21875 "
       transform="matrix(0.1,0,0,-0.1,0,230)"
       id="path34" />
    <path
       style=" stroke:none;fill-rule:nonzero;fill:rgb(14.892578%,14.892578%,14.892578%);fill-opacity:1;"
       d="M 83.660156 212.480469 L 83.660156 212.152344 C 83.660156 212.136719 83.667969 212.117188 83.683594 212.09375 L 85.546875 210.03125 C 85.828125 209.726562 86.054688 209.46875 86.234375 209.261719 C 86.40625 209.054688 86.582031 208.816406 86.753906 208.546875 C 86.925781 208.277344 87.0625 208.003906 87.164062 207.722656 C 87.265625 207.441406 87.316406 207.144531 87.316406 206.832031 C 87.316406 206.503906 87.257812 206.191406 87.136719 205.894531 C 87.015625 205.597656 86.832031 205.359375 86.589844 205.179688 C 86.347656 205 86.058594 204.910156 85.722656 204.910156 C 85.371094 204.910156 85.054688 205.011719 84.78125 205.21875 C 84.5 205.425781 84.308594 205.699219 84.199219 206.035156 C 84.230469 206.027344 84.273438 206.023438 84.328125 206.023438 C 84.507812 206.023438 84.660156 206.082031 84.785156 206.203125 C 84.910156 206.324219 84.972656 206.480469 84.972656 206.667969 C 84.972656 206.855469 84.910156 207.011719 84.785156 207.136719 C 84.660156 207.261719 84.507812 207.324219 84.328125 207.324219 C 84.140625 207.324219 83.980469 207.257812 83.855469 207.128906 C 83.722656 207 83.660156 206.847656 83.660156 206.667969 C 83.660156 206.371094 83.71875 206.089844 83.828125 205.824219 C 83.945312 205.558594 84.105469 205.324219 84.324219 205.121094 C 84.535156 204.917969 84.777344 204.761719 85.042969 204.652344 C 85.308594 204.542969 85.59375 204.488281 85.898438 204.488281 C 86.351562 204.488281 86.777344 204.582031 87.171875 204.777344 C 87.566406 204.964844 87.878906 205.238281 88.109375 205.59375 C 88.339844 205.949219 88.453125 206.363281 88.453125 206.832031 C 88.453125 207.183594 88.375 207.515625 88.222656 207.828125 C 88.074219 208.140625 87.878906 208.421875 87.640625 208.675781 C 87.402344 208.929688 87.09375 209.21875 86.722656 209.542969 C 86.355469 209.867188 86.109375 210.085938 85.992188 210.195312 L 84.632812 211.507812 L 85.792969 211.507812 C 86.355469 211.507812 86.828125 211.5 87.210938 211.488281 C 87.59375 211.476562 87.796875 211.464844 87.820312 211.449219 C 87.914062 211.347656 88.007812 210.976562 88.101562 210.335938 L 88.453125 210.335938 L 88.113281 212.480469 L 83.660156 212.480469 "
       id="path36" />
    <path
       style=" stroke:none;fill-rule:nonzero;fill:rgb(14.892578%,14.892578%,14.892578%);fill-opacity:1;"
       d="M 92.0625 212.75 C 91.085938 212.75 90.417969 212.34375 90.066406 211.535156 C 89.710938 210.726562 89.53125 209.765625 89.53125 208.648438 C 89.53125 207.953125 89.59375 207.296875 89.722656 206.683594 C 89.855469 206.070312 90.105469 205.550781 90.480469 205.125 C 90.855469 204.699219 91.382812 204.488281 92.0625 204.488281 C 92.59375 204.488281 93.027344 204.617188 93.363281 204.875 C 93.699219 205.132812 93.957031 205.464844 94.132812 205.871094 C 94.304688 206.277344 94.425781 206.714844 94.488281 207.183594 C 94.550781 207.652344 94.582031 208.140625 94.582031 208.648438 C 94.582031 209.335938 94.519531 209.980469 94.394531 210.582031 C 94.269531 211.183594 94.019531 211.695312 93.652344 212.117188 C 93.28125 212.539062 92.75 212.75 92.0625 212.75 Z M 92.0625 212.433594 C 92.507812 212.433594 92.839844 212.203125 93.058594 211.746094 C 93.277344 211.289062 93.410156 210.785156 93.464844 210.230469 C 93.515625 209.675781 93.539062 209.085938 93.539062 208.460938 C 93.539062 207.859375 93.515625 207.304688 93.464844 206.796875 C 93.410156 206.289062 93.28125 205.828125 93.066406 205.414062 C 92.847656 205 92.515625 204.792969 92.0625 204.792969 C 91.609375 204.792969 91.273438 205 91.054688 205.414062 C 90.835938 205.828125 90.703125 206.289062 90.652344 206.796875 C 90.597656 207.304688 90.574219 207.859375 90.574219 208.460938 C 90.574219 208.90625 90.585938 209.324219 90.609375 209.71875 C 90.632812 210.113281 90.691406 210.519531 90.785156 210.9375 C 90.878906 211.355469 91.027344 211.710938 91.234375 212 C 91.441406 212.289062 91.71875 212.433594 92.0625 212.433594 "
       id="path38" />
    <path
       style=" stroke:none;fill-rule:nonzero;fill:rgb(14.892578%,14.892578%,14.892578%);fill-opacity:1;"
       d="M 98.0625 212.75 C 97.085938 212.75 96.417969 212.34375 96.066406 211.535156 C 95.710938 210.726562 95.53125 209.765625 95.53125 208.648438 C 95.53125 207.953125 95.59375 207.296875 95.722656 206.683594 C 95.855469 206.070312 96.105469 205.550781 96.480469 205.125 C 96.855469 204.699219 97.382812 204.488281 98.0625 204.488281 C 98.59375 204.488281 99.027344 204.617188 99.363281 204.875 C 99.699219 205.132812 99.957031 205.464844 100.132812 205.871094 C 100.308594 206.277344 100.425781 206.714844 100.488281 207.183594 C 100.550781 207.652344 100.582031 208.140625 100.582031 208.648438 C 100.582031 209.335938 100.519531 209.980469 100.394531 210.582031 C 100.269531 211.183594 100.019531 211.695312 99.652344 212.117188 C 99.28125 212.539062 98.75 212.75 98.0625 212.75 Z M 98.0625 212.433594 C 98.507812 212.433594 98.839844 212.203125 99.058594 211.746094 C 99.277344 211.289062 99.410156 210.785156 99.464844 210.230469 C 99.515625 209.675781 99.539062 209.085938 99.539062 208.460938 C 99.539062 207.859375 99.515625 207.304688 99.464844 206.796875 C 99.410156 206.289062 99.28125 205.828125 99.066406 205.414062 C 98.847656 205 98.515625 204.792969 98.0625 204.792969 C 97.609375 204.792969 97.273438 205 97.054688 205.414062 C 96.835938 205.828125 96.703125 206.289062 96.652344 206.796875 C 96.597656 207.304688 96.574219 207.859375 96.574219 208.460938 C 96.574219 208.90625 96.585938 209.324219 96.609375 209.71875 C 96.632812 210.113281 96.691406 210.519531 96.785156 210.9375 C 96.878906 211.355469 97.027344 211.710938 97.234375 212 C 97.445312 212.289062 97.71875 212.433594 98.0625 212.433594 "
       id="path40" />
    <path
       style=" stroke:none;fill-rule:nonzero;fill:rgb(14.892578%,14.892578%,14.892578%);fill-opacity:1;"
       d="M 104.0625 212.75 C 103.085938 212.75 102.421875 212.34375 102.0625 211.535156 C 101.710938 210.726562 101.53125 209.765625 101.53125 208.648438 C 101.53125 207.953125 101.597656 207.296875 101.726562 206.683594 C 101.855469 206.070312 102.105469 205.550781 102.480469 205.125 C 102.855469 204.699219 103.382812 204.488281 104.0625 204.488281 C 104.59375 204.488281 105.027344 204.617188 105.363281 204.875 C 105.699219 205.132812 105.953125 205.464844 106.132812 205.871094 C 106.308594 206.277344 106.425781 206.714844 106.488281 207.183594 C 106.550781 207.652344 106.582031 208.140625 106.582031 208.648438 C 106.582031 209.335938 106.519531 209.980469 106.394531 210.582031 C 106.269531 211.183594 106.019531 211.695312 105.648438 212.117188 C 105.277344 212.539062 104.75 212.75 104.0625 212.75 Z M 104.0625 212.433594 C 104.507812 212.433594 104.839844 212.203125 105.058594 211.746094 C 105.277344 211.289062 105.410156 210.785156 105.464844 210.230469 C 105.515625 209.675781 105.539062 209.085938 105.539062 208.460938 C 105.539062 207.859375 105.515625 207.304688 105.464844 206.796875 C 105.410156 206.289062 105.28125 205.828125 105.0625 205.414062 C 104.851562 205 104.515625 204.792969 104.0625 204.792969 C 103.609375 204.792969 103.273438 205 103.054688 205.414062 C 102.835938 205.828125 102.699219 206.289062 102.648438 206.796875 C 102.601562 207.304688 102.574219 207.859375 102.574219 208.460938 C 102.574219 208.90625 102.585938 209.324219 102.609375 209.71875 C 102.632812 210.113281 102.691406 210.519531 102.785156 210.9375 C 102.878906 211.355469 103.027344 211.710938 103.234375 212 C 103.441406 212.289062 103.71875 212.433594 104.0625 212.433594 "
       id="path42" />
    <path
       style=" stroke:none;fill-rule:nonzero;fill:rgb(14.892578%,14.892578%,14.892578%);fill-opacity:1;"
       d="M 159.363281 212.480469 L 159.363281 212.152344 C 159.363281 212.136719 159.371094 212.117188 159.386719 212.09375 L 161.25 210.03125 C 161.53125 209.726562 161.761719 209.46875 161.9375 209.261719 C 162.109375 209.054688 162.285156 208.816406 162.457031 208.546875 C 162.628906 208.277344 162.765625 208.003906 162.867188 207.722656 C 162.96875 207.441406 163.019531 207.144531 163.019531 206.832031 C 163.019531 206.503906 162.960938 206.191406 162.839844 205.894531 C 162.71875 205.597656 162.535156 205.359375 162.292969 205.179688 C 162.050781 205 161.761719 204.910156 161.425781 204.910156 C 161.074219 204.910156 160.761719 205.011719 160.480469 205.21875 C 160.203125 205.425781 160.011719 205.699219 159.902344 206.035156 C 159.933594 206.027344 159.976562 206.023438 160.03125 206.023438 C 160.210938 206.023438 160.363281 206.082031 160.488281 206.203125 C 160.613281 206.324219 160.675781 206.480469 160.675781 206.667969 C 160.675781 206.855469 160.613281 207.011719 160.488281 207.136719 C 160.363281 207.261719 160.210938 207.324219 160.03125 207.324219 C 159.84375 207.324219 159.6875 207.257812 159.558594 207.128906 C 159.429688 207 159.363281 206.847656 159.363281 206.667969 C 159.363281 206.371094 159.421875 206.089844 159.53125 205.824219 C 159.644531 205.558594 159.8125 205.324219 160.027344 205.121094 C 160.238281 204.917969 160.480469 204.761719 160.746094 204.652344 C 161.011719 204.542969 161.296875 204.488281 161.601562 204.488281 C 162.054688 204.488281 162.480469 204.582031 162.871094 204.777344 C 163.269531 204.964844 163.578125 205.238281 163.8125 205.59375 C 164.039062 205.949219 164.15625 206.363281 164.15625 206.832031 C 164.15625 207.183594 164.078125 207.515625 163.929688 207.828125 C 163.773438 208.140625 163.578125 208.421875 163.34375 208.675781 C 163.105469 208.929688 162.800781 209.21875 162.429688 209.542969 C 162.058594 209.867188 161.8125 210.085938 161.695312 210.195312 L 160.335938 211.507812 L 161.496094 211.507812 C 162.058594 211.507812 162.53125 211.5 162.914062 211.488281 C 163.296875 211.476562 163.5 211.464844 163.523438 211.449219 C 163.617188 211.347656 163.710938 210.976562 163.804688 210.335938 L 164.15625 210.335938 L 163.816406 212.480469 L 159.363281 212.480469 "
       id="path44" />
    <path
       style=" stroke:none;fill-rule:nonzero;fill:rgb(14.892578%,14.892578%,14.892578%);fill-opacity:1;"
       d="M 165.808594 211.109375 C 165.894531 211.34375 166.019531 211.554688 166.1875 211.746094 C 166.355469 211.9375 166.558594 212.089844 166.792969 212.199219 C 167.027344 212.308594 167.269531 212.363281 167.519531 212.363281 C 168.097656 212.363281 168.496094 212.136719 168.714844 211.6875 C 168.933594 211.238281 169.042969 210.695312 169.042969 210.054688 C 169.042969 209.773438 169.035156 209.539062 169.027344 209.351562 C 169.015625 209.164062 168.988281 208.980469 168.949219 208.800781 C 168.871094 208.519531 168.738281 208.273438 168.558594 208.0625 C 168.371094 207.851562 168.144531 207.746094 167.871094 207.746094 C 167.605469 207.746094 167.375 207.785156 167.179688 207.867188 C 166.984375 207.953125 166.824219 208.046875 166.703125 208.15625 C 166.585938 208.265625 166.476562 208.378906 166.382812 208.5 C 166.289062 208.621094 166.230469 208.6875 166.207031 208.695312 L 166.078125 208.695312 C 166.054688 208.695312 166.027344 208.683594 166.003906 208.660156 C 165.976562 208.636719 165.960938 208.613281 165.960938 208.589844 L 165.960938 204.582031 C 165.960938 204.558594 165.972656 204.535156 165.996094 204.515625 C 166.019531 204.496094 166.046875 204.488281 166.078125 204.488281 L 166.113281 204.488281 C 166.652344 204.746094 167.222656 204.875 167.824219 204.875 C 168.417969 204.875 168.992188 204.746094 169.546875 204.488281 L 169.582031 204.488281 C 169.605469 204.488281 169.628906 204.496094 169.652344 204.515625 C 169.675781 204.535156 169.6875 204.558594 169.6875 204.582031 L 169.6875 204.6875 C 169.6875 204.726562 169.679688 204.746094 169.664062 204.746094 C 169.390625 205.113281 169.046875 205.398438 168.640625 205.601562 C 168.230469 205.804688 167.800781 205.90625 167.355469 205.90625 C 167.035156 205.90625 166.707031 205.859375 166.371094 205.765625 L 166.371094 208.039062 C 166.636719 207.820312 166.875 207.664062 167.085938 207.574219 C 167.296875 207.484375 167.5625 207.441406 167.882812 207.441406 C 168.328125 207.441406 168.726562 207.566406 169.070312 207.820312 C 169.421875 208.074219 169.6875 208.40625 169.875 208.8125 C 170.0625 209.21875 170.15625 209.636719 170.15625 210.066406 C 170.15625 210.542969 170.039062 210.984375 169.804688 211.394531 C 169.570312 211.804688 169.25 212.132812 168.84375 212.378906 C 168.4375 212.625 167.996094 212.75 167.519531 212.75 C 167.121094 212.75 166.757812 212.644531 166.429688 212.4375 C 166.101562 212.230469 165.84375 211.957031 165.652344 211.613281 C 165.460938 211.269531 165.363281 210.90625 165.363281 210.523438 C 165.363281 210.34375 165.421875 210.195312 165.539062 210.082031 C 165.65625 209.96875 165.804688 209.914062 165.984375 209.914062 C 166.15625 209.914062 166.304688 209.96875 166.425781 210.082031 C 166.546875 210.195312 166.605469 210.34375 166.605469 210.523438 C 166.605469 210.695312 166.546875 210.839844 166.425781 210.957031 C 166.304688 211.074219 166.15625 211.132812 165.984375 211.132812 C 165.953125 211.132812 165.921875 211.128906 165.886719 211.125 C 165.851562 211.121094 165.824219 211.117188 165.808594 211.109375 "
       id="path46" />
    <path
       style=" stroke:none;fill-rule:nonzero;fill:rgb(14.892578%,14.892578%,14.892578%);fill-opacity:1;"
       d="M 173.765625 212.75 C 172.789062 212.75 172.121094 212.34375 171.769531 211.535156 C 171.410156 210.726562 171.234375 209.765625 171.234375 208.648438 C 171.234375 207.953125 171.300781 207.296875 171.429688 206.683594 C 171.558594 206.070312 171.808594 205.550781 172.183594 205.125 C 172.558594 204.699219 173.085938 204.488281 173.765625 204.488281 C 174.296875 204.488281 174.730469 204.617188 175.066406 204.875 C 175.402344 205.132812 175.65625 205.464844 175.835938 205.871094 C 176.011719 206.277344 176.128906 206.714844 176.191406 207.183594 C 176.253906 207.652344 176.285156 208.140625 176.285156 208.648438 C 176.285156 209.335938 176.222656 209.980469 176.097656 210.582031 C 175.972656 211.183594 175.722656 211.695312 175.355469 212.117188 C 174.980469 212.539062 174.453125 212.75 173.765625 212.75 Z M 173.765625 212.433594 C 174.210938 212.433594 174.542969 212.203125 174.761719 211.746094 C 174.980469 211.289062 175.113281 210.785156 175.164062 210.230469 C 175.21875 209.675781 175.242188 209.085938 175.242188 208.460938 C 175.242188 207.859375 175.21875 207.304688 175.164062 206.796875 C 175.113281 206.289062 174.984375 205.828125 174.769531 205.414062 C 174.554688 205 174.21875 204.792969 173.765625 204.792969 C 173.3125 204.792969 172.976562 205 172.757812 205.414062 C 172.539062 205.828125 172.402344 206.289062 172.355469 206.796875 C 172.304688 207.304688 172.277344 207.859375 172.277344 208.460938 C 172.277344 208.90625 172.289062 209.324219 172.3125 209.71875 C 172.335938 210.113281 172.394531 210.519531 172.488281 210.9375 C 172.582031 211.355469 172.730469 211.710938 172.9375 212 C 173.144531 212.289062 173.421875 212.433594 173.765625 212.433594 "
       id="path48" />
    <path
       style=" stroke:none;fill-rule:nonzero;fill:rgb(14.892578%,14.892578%,14.892578%);fill-opacity:1;"
       d="M 179.765625 212.75 C 178.789062 212.75 178.121094 212.34375 177.769531 211.535156 C 177.410156 210.726562 177.234375 209.765625 177.234375 208.648438 C 177.234375 207.953125 177.300781 207.296875 177.429688 206.683594 C 177.558594 206.070312 177.808594 205.550781 178.183594 205.125 C 178.558594 204.699219 179.085938 204.488281 179.765625 204.488281 C 180.296875 204.488281 180.730469 204.617188 181.066406 204.875 C 181.402344 205.132812 181.65625 205.464844 181.835938 205.871094 C 182.011719 206.277344 182.128906 206.714844 182.191406 207.183594 C 182.253906 207.652344 182.285156 208.140625 182.285156 208.648438 C 182.285156 209.335938 182.222656 209.980469 182.097656 210.582031 C 181.972656 211.183594 181.722656 211.695312 181.355469 212.117188 C 180.980469 212.539062 180.453125 212.75 179.765625 212.75 Z M 179.765625 212.433594 C 180.210938 212.433594 180.542969 212.203125 180.761719 211.746094 C 180.980469 211.289062 181.113281 210.785156 181.164062 210.230469 C 181.21875 209.675781 181.242188 209.085938 181.242188 208.460938 C 181.242188 207.859375 181.21875 207.304688 181.164062 206.796875 C 181.113281 206.289062 180.984375 205.828125 180.769531 205.414062 C 180.554688 205 180.21875 204.792969 179.765625 204.792969 C 179.3125 204.792969 178.976562 205 178.757812 205.414062 C 178.539062 205.828125 178.402344 206.289062 178.355469 206.796875 C 178.304688 207.304688 178.277344 207.859375 178.277344 208.460938 C 178.277344 208.90625 178.289062 209.324219 178.3125 209.71875 C 178.335938 210.113281 178.394531 210.519531 178.488281 210.9375 C 178.582031 211.355469 178.730469 211.710938 178.9375 212 C 179.144531 212.289062 179.421875 212.433594 179.765625 212.433594 "
       id="path50" />
    <path
       style=" stroke:none;fill-rule:nonzero;fill:rgb(14.892578%,14.892578%,14.892578%);fill-opacity:1;"
       d="M 235.617188 211.554688 C 235.804688 211.828125 236.058594 212.03125 236.371094 212.164062 C 236.6875 212.296875 237.027344 212.363281 237.386719 212.363281 C 237.855469 212.363281 238.1875 212.164062 238.382812 211.765625 C 238.578125 211.367188 238.675781 210.917969 238.675781 210.417969 C 238.675781 210.191406 238.652344 209.964844 238.609375 209.738281 C 238.566406 209.511719 238.496094 209.300781 238.398438 209.105469 C 238.304688 208.910156 238.171875 208.753906 238.003906 208.636719 C 237.835938 208.519531 237.625 208.460938 237.375 208.460938 L 236.578125 208.460938 C 236.507812 208.460938 236.472656 208.421875 236.472656 208.34375 L 236.472656 208.238281 C 236.472656 208.175781 236.507812 208.144531 236.578125 208.144531 L 237.246094 208.097656 C 237.527344 208.097656 237.761719 207.992188 237.941406 207.78125 C 238.128906 207.570312 238.261719 207.3125 238.347656 207.007812 C 238.433594 206.703125 238.476562 206.414062 238.476562 206.140625 C 238.476562 205.757812 238.386719 205.441406 238.207031 205.195312 C 238.027344 204.949219 237.753906 204.828125 237.386719 204.828125 C 237.082031 204.828125 236.789062 204.886719 236.515625 205.003906 C 236.234375 205.121094 236.015625 205.296875 235.851562 205.53125 C 235.867188 205.523438 235.882812 205.519531 235.890625 205.519531 C 235.902344 205.519531 235.917969 205.519531 235.933594 205.519531 C 236.113281 205.519531 236.265625 205.582031 236.386719 205.707031 C 236.507812 205.832031 236.566406 205.980469 236.566406 206.152344 C 236.566406 206.324219 236.507812 206.472656 236.386719 206.597656 C 236.265625 206.722656 236.113281 206.785156 235.933594 206.785156 C 235.761719 206.785156 235.613281 206.722656 235.488281 206.597656 C 235.363281 206.472656 235.300781 206.324219 235.300781 206.152344 C 235.300781 205.808594 235.402344 205.507812 235.609375 205.253906 C 235.816406 205 236.085938 204.808594 236.40625 204.679688 C 236.730469 204.550781 237.058594 204.488281 237.386719 204.488281 C 237.628906 204.488281 237.886719 204.523438 238.152344 204.59375 C 238.425781 204.664062 238.667969 204.765625 238.886719 204.902344 C 239.105469 205.039062 239.285156 205.214844 239.425781 205.425781 C 239.566406 205.636719 239.636719 205.875 239.636719 206.140625 C 239.636719 206.476562 239.5625 206.785156 239.40625 207.070312 C 239.257812 207.355469 239.050781 207.601562 238.785156 207.808594 C 238.523438 208.015625 238.238281 208.171875 237.925781 208.273438 C 238.277344 208.34375 238.609375 208.476562 238.921875 208.671875 C 239.234375 208.867188 239.484375 209.117188 239.671875 209.421875 C 239.859375 209.726562 239.953125 210.054688 239.953125 210.40625 C 239.953125 210.84375 239.832031 211.242188 239.589844 211.601562 C 239.347656 211.960938 239.03125 212.242188 238.636719 212.445312 C 238.242188 212.648438 237.824219 212.75 237.386719 212.75 C 237.011719 212.75 236.636719 212.675781 236.261719 212.53125 C 235.886719 212.386719 235.578125 212.171875 235.335938 211.886719 C 235.09375 211.601562 234.972656 211.261719 234.972656 210.863281 C 234.972656 210.660156 235.039062 210.492188 235.171875 210.359375 C 235.304688 210.226562 235.472656 210.160156 235.675781 210.160156 C 235.800781 210.160156 235.917969 210.191406 236.027344 210.253906 C 236.136719 210.316406 236.222656 210.402344 236.277344 210.511719 C 236.339844 210.621094 236.367188 210.738281 236.367188 210.863281 C 236.367188 211.058594 236.300781 211.222656 236.160156 211.355469 C 236.023438 211.488281 235.863281 211.554688 235.675781 211.554688 L 235.617188 211.554688 "
       id="path52" />
    <path
       style=" stroke:none;fill-rule:nonzero;fill:rgb(14.892578%,14.892578%,14.892578%);fill-opacity:1;"
       d="M 243.46875 212.75 C 242.492188 212.75 241.824219 212.34375 241.472656 211.535156 C 241.113281 210.726562 240.9375 209.765625 240.9375 208.648438 C 240.9375 207.953125 241.003906 207.296875 241.132812 206.683594 C 241.261719 206.070312 241.511719 205.550781 241.886719 205.125 C 242.261719 204.699219 242.789062 204.488281 243.46875 204.488281 C 244 204.488281 244.433594 204.617188 244.769531 204.875 C 245.105469 205.132812 245.359375 205.464844 245.535156 205.871094 C 245.714844 206.277344 245.832031 206.714844 245.894531 207.183594 C 245.957031 207.652344 245.988281 208.140625 245.988281 208.648438 C 245.988281 209.335938 245.925781 209.980469 245.800781 210.582031 C 245.675781 211.183594 245.425781 211.695312 245.058594 212.117188 C 244.6875 212.539062 244.15625 212.75 243.46875 212.75 Z M 243.46875 212.433594 C 243.914062 212.433594 244.246094 212.203125 244.464844 211.746094 C 244.683594 211.289062 244.816406 210.785156 244.867188 210.230469 C 244.921875 209.675781 244.945312 209.085938 244.945312 208.460938 C 244.945312 207.859375 244.921875 207.304688 244.867188 206.796875 C 244.816406 206.289062 244.6875 205.828125 244.472656 205.414062 C 244.257812 205 243.921875 204.792969 243.46875 204.792969 C 243.015625 204.792969 242.679688 205 242.460938 205.414062 C 242.242188 205.828125 242.105469 206.289062 242.058594 206.796875 C 242.007812 207.304688 241.980469 207.859375 241.980469 208.460938 C 241.980469 208.90625 241.992188 209.324219 242.015625 209.71875 C 242.039062 210.113281 242.097656 210.519531 242.191406 210.9375 C 242.285156 211.355469 242.433594 211.710938 242.640625 212 C 242.847656 212.289062 243.125 212.433594 243.46875 212.433594 "
       id="path54" />
    <path
       style=" stroke:none;fill-rule:nonzero;fill:rgb(14.892578%,14.892578%,14.892578%);fill-opacity:1;"
       d="M 249.46875 212.75 C 248.492188 212.75 247.824219 212.34375 247.472656 211.535156 C 247.113281 210.726562 246.9375 209.765625 246.9375 208.648438 C 246.9375 207.953125 247.003906 207.296875 247.132812 206.683594 C 247.261719 206.070312 247.511719 205.550781 247.886719 205.125 C 248.261719 204.699219 248.789062 204.488281 249.46875 204.488281 C 250 204.488281 250.433594 204.617188 250.769531 204.875 C 251.105469 205.132812 251.359375 205.464844 251.535156 205.871094 C 251.714844 206.277344 251.832031 206.714844 251.894531 207.183594 C 251.957031 207.652344 251.988281 208.140625 251.988281 208.648438 C 251.988281 209.335938 251.925781 209.980469 251.800781 210.582031 C 251.675781 211.183594 251.425781 211.695312 251.058594 212.117188 C 250.6875 212.539062 250.15625 212.75 249.46875 212.75 Z M 249.46875 212.433594 C 249.914062 212.433594 250.246094 212.203125 250.464844 211.746094 C 250.683594 211.289062 250.816406 210.785156 250.867188 210.230469 C 250.921875 209.675781 250.945312 209.085938 250.945312 208.460938 C 250.945312 207.859375 250.921875 207.304688 250.867188 206.796875 C 250.816406 206.289062 250.6875 205.828125 250.472656 205.414062 C 250.257812 205 249.921875 204.792969 249.46875 204.792969 C 249.015625 204.792969 248.679688 205 248.460938 205.414062 C 248.242188 205.828125 248.105469 206.289062 248.058594 206.796875 C 248.007812 207.304688 247.980469 207.859375 247.980469 208.460938 C 247.980469 208.90625 247.992188 209.324219 248.015625 209.71875 C 248.039062 210.113281 248.097656 210.519531 248.191406 210.9375 C 248.285156 211.355469 248.433594 211.710938 248.640625 212 C 248.851562 212.289062 249.125 212.433594 249.46875 212.433594 "
       id="path56" />
    <path
       style=" stroke:none;fill-rule:nonzero;fill:rgb(14.892578%,14.892578%,14.892578%);fill-opacity:1;"
       d="M 255.46875 212.75 C 254.492188 212.75 253.824219 212.34375 253.472656 211.535156 C 253.113281 210.726562 252.9375 209.765625 252.9375 208.648438 C 252.9375 207.953125 253.003906 207.296875 253.132812 206.683594 C 253.261719 206.070312 253.511719 205.550781 253.886719 205.125 C 254.261719 204.699219 254.789062 204.488281 255.46875 204.488281 C 256 204.488281 256.433594 204.617188 256.769531 204.875 C 257.105469 205.132812 257.359375 205.464844 257.535156 205.871094 C 257.714844 206.277344 257.832031 206.714844 257.894531 207.183594 C 257.957031 207.652344 257.988281 208.140625 257.988281 208.648438 C 257.988281 209.335938 257.925781 209.980469 257.800781 210.582031 C 257.675781 211.183594 257.425781 211.695312 257.058594 212.117188 C 256.6875 212.539062 256.15625 212.75 255.46875 212.75 Z M 255.46875 212.433594 C 255.914062 212.433594 256.246094 212.203125 256.464844 211.746094 C 256.683594 211.289062 256.816406 210.785156 256.867188 210.230469 C 256.921875 209.675781 256.945312 209.085938 256.945312 208.460938 C 256.945312 207.859375 256.921875 207.304688 256.867188 206.796875 C 256.816406 206.289062 256.6875 205.828125 256.472656 205.414062 C 256.257812 205 255.921875 204.792969 255.46875 204.792969 C 255.015625 204.792969 254.679688 205 254.460938 205.414062 C 254.242188 205.828125 254.105469 206.289062 254.058594 206.796875 C 254.007812 207.304688 253.980469 207.859375 253.980469 208.460938 C 253.980469 208.90625 253.992188 209.324219 254.015625 209.71875 C 254.039062 210.113281 254.097656 210.519531 254.191406 210.9375 C 254.285156 211.355469 254.433594 211.710938 254.640625 212 C 254.851562 212.289062 255.125 212.433594 255.46875 212.433594 "
       id="path58" />
    <path
       style=" stroke:none;fill-rule:nonzero;fill:rgb(14.892578%,14.892578%,14.892578%);fill-opacity:1;"
       d="M 148.277344 229.25 L 148.277344 228.765625 C 149.207031 228.765625 149.671875 228.625 149.671875 228.34375 L 149.671875 220.925781 C 149.671875 220.644531 149.207031 220.507812 148.277344 220.507812 L 148.277344 220.023438 L 152.519531 220.023438 C 153.027344 220.023438 153.558594 220.117188 154.113281 220.300781 C 154.667969 220.484375 155.132812 220.761719 155.507812 221.132812 C 155.882812 221.503906 156.070312 221.949219 156.070312 222.476562 C 156.070312 222.851562 155.957031 223.1875 155.730469 223.480469 C 155.503906 223.777344 155.214844 224.027344 154.859375 224.226562 C 154.503906 224.425781 154.140625 224.570312 153.773438 224.65625 C 154.179688 224.792969 154.535156 225.019531 154.835938 225.328125 C 155.136719 225.636719 155.316406 225.988281 155.378906 226.386719 L 155.566406 227.582031 C 155.660156 228.121094 155.753906 228.523438 155.847656 228.792969 C 155.941406 229.058594 156.15625 229.1875 156.492188 229.1875 C 156.773438 229.1875 156.984375 229.0625 157.121094 228.800781 C 157.257812 228.542969 157.324219 228.261719 157.324219 227.949219 C 157.324219 227.917969 157.339844 227.886719 157.367188 227.863281 C 157.394531 227.839844 157.421875 227.828125 157.453125 227.828125 L 157.582031 227.828125 C 157.671875 227.828125 157.714844 227.886719 157.714844 228.007812 C 157.714844 228.257812 157.664062 228.5 157.566406 228.730469 C 157.46875 228.964844 157.328125 229.160156 157.148438 229.3125 C 156.96875 229.464844 156.753906 229.542969 156.503906 229.542969 C 155.847656 229.542969 155.289062 229.378906 154.824219 229.0625 C 154.359375 228.738281 154.128906 228.265625 154.128906 227.640625 L 154.128906 226.4375 C 154.128906 225.988281 153.96875 225.605469 153.65625 225.289062 C 153.34375 224.96875 152.964844 224.804688 152.507812 224.804688 L 150.878906 224.804688 L 150.878906 228.34375 C 150.878906 228.625 151.34375 228.765625 152.273438 228.765625 L 152.273438 229.25 Z M 150.878906 224.453125 L 152.332031 224.453125 C 153.074219 224.453125 153.640625 224.304688 154.03125 224.003906 C 154.421875 223.703125 154.617188 223.195312 154.617188 222.476562 C 154.617188 221.757812 154.425781 221.246094 154.039062 220.949219 C 153.652344 220.65625 153.082031 220.507812 152.332031 220.507812 L 151.570312 220.507812 C 151.40625 220.507812 151.28125 220.511719 151.191406 220.523438 C 151.101562 220.535156 151.027344 220.574219 150.96875 220.636719 C 150.910156 220.699219 150.878906 220.792969 150.878906 220.925781 L 150.878906 224.453125 "
       id="path60" />
    <path
       style=" stroke:none;fill-rule:nonzero;fill:rgb(14.892578%,14.892578%,14.892578%);fill-opacity:1;"
       d="M 160.914062 229.402344 C 160.367188 229.402344 159.863281 229.253906 159.402344 228.96875 C 158.941406 228.675781 158.578125 228.292969 158.316406 227.8125 C 158.054688 227.332031 157.925781 226.824219 157.925781 226.28125 C 157.925781 225.761719 158.046875 225.261719 158.28125 224.78125 C 158.519531 224.304688 158.855469 223.925781 159.285156 223.636719 C 159.714844 223.34375 160.195312 223.199219 160.726562 223.199219 C 161.132812 223.199219 161.488281 223.269531 161.796875 223.40625 C 162.105469 223.542969 162.359375 223.734375 162.554688 223.980469 C 162.75 224.226562 162.898438 224.519531 163 224.855469 C 163.101562 225.1875 163.152344 225.554688 163.152344 225.953125 C 163.152344 226.074219 163.105469 226.132812 163.011719 226.132812 L 159.109375 226.132812 L 159.109375 226.269531 C 159.109375 227.019531 159.257812 227.664062 159.558594 228.199219 C 159.859375 228.734375 160.351562 229 161.03125 229 C 161.304688 229 161.558594 228.941406 161.796875 228.820312 C 162.035156 228.699219 162.242188 228.527344 162.414062 228.304688 C 162.585938 228.082031 162.703125 227.84375 162.765625 227.59375 C 162.773438 227.5625 162.789062 227.535156 162.8125 227.511719 C 162.835938 227.488281 162.863281 227.480469 162.894531 227.480469 L 163.011719 227.480469 C 163.105469 227.480469 163.152344 227.539062 163.152344 227.65625 C 163.027344 228.164062 162.753906 228.582031 162.332031 228.90625 C 161.910156 229.234375 161.4375 229.402344 160.914062 229.402344 Z M 159.121094 225.792969 L 162.203125 225.792969 C 162.203125 225.457031 162.152344 225.113281 162.054688 224.765625 C 161.957031 224.417969 161.800781 224.128906 161.582031 223.898438 C 161.363281 223.667969 161.078125 223.550781 160.726562 223.550781 C 160.210938 223.550781 159.8125 223.789062 159.535156 224.265625 C 159.257812 224.742188 159.121094 225.25 159.121094 225.792969 "
       id="path62" />
    <path
       style="fill:none;stroke-width:5.0025;stroke-linecap:square;stroke-linejoin:round;stroke:rgb(14.892578%,14.892578%,14.892578%);stroke-opacity:1;stroke-miterlimit:10;"
       d="M 345 320 L 345 2247.5 "
       transform="matrix(0.1,0,0,-0.1,0,230)"
       id="path64" />
    <path
       style="fill:none;stroke-width:5.0025;stroke-linecap:square;stroke-linejoin:round;stroke:rgb(14.892578%,14.892578%,14.892578%);stroke-opacity:1;stroke-miterlimit:10;"
       d="M 345 320 L 369.21875 320 "
       transform="matrix(0.1,0,0,-0.1,0,230)"
       id="path66" />
    <path
       style="fill:none;stroke-width:5.0025;stroke-linecap:square;stroke-linejoin:round;stroke:rgb(14.892578%,14.892578%,14.892578%);stroke-opacity:1;stroke-miterlimit:10;"
       d="M 345 595.351562 L 369.21875 595.351562 "
       transform="matrix(0.1,0,0,-0.1,0,230)"
       id="path68" />
    <path
       style="fill:none;stroke-width:5.0025;stroke-linecap:square;stroke-linejoin:round;stroke:rgb(14.892578%,14.892578%,14.892578%);stroke-opacity:1;stroke-miterlimit:10;"
       d="M 345 870.703125 L 369.21875 870.703125 "
       transform="matrix(0.1,0,0,-0.1,0,230)"
       id="path70" />
    <path
       style="fill:none;stroke-width:5.0025;stroke-linecap:square;stroke-linejoin:round;stroke:rgb(14.892578%,14.892578%,14.892578%);stroke-opacity:1;stroke-miterlimit:10;"
       d="M 345 1146.054688 L 369.21875 1146.054688 "
       transform="matrix(0.1,0,0,-0.1,0,230)"
       id="path72" />
    <path
       style="fill:none;stroke-width:5.0025;stroke-linecap:square;stroke-linejoin:round;stroke:rgb(14.892578%,14.892578%,14.892578%);stroke-opacity:1;stroke-miterlimit:10;"
       d="M 345 1421.445312 L 369.21875 1421.445312 "
       transform="matrix(0.1,0,0,-0.1,0,230)"
       id="path74" />
    <path
       style="fill:none;stroke-width:5.0025;stroke-linecap:square;stroke-linejoin:round;stroke:rgb(14.892578%,14.892578%,14.892578%);stroke-opacity:1;stroke-miterlimit:10;"
       d="M 345 1696.796875 L 369.21875 1696.796875 "
       transform="matrix(0.1,0,0,-0.1,0,230)"
       id="path76" />
    <path
       style="fill:none;stroke-width:5.0025;stroke-linecap:square;stroke-linejoin:round;stroke:rgb(14.892578%,14.892578%,14.892578%);stroke-opacity:1;stroke-miterlimit:10;"
       d="M 345 1972.148438 L 369.21875 1972.148438 "
       transform="matrix(0.1,0,0,-0.1,0,230)"
       id="path78" />
    <path
       style="fill:none;stroke-width:5.0025;stroke-linecap:square;stroke-linejoin:round;stroke:rgb(14.892578%,14.892578%,14.892578%);stroke-opacity:1;stroke-miterlimit:10;"
       d="M 345 2247.5 L 369.21875 2247.5 "
       transform="matrix(0.1,0,0,-0.1,0,230)"
       id="path80" />
    <path
       style=" stroke:none;fill-rule:nonzero;fill:rgb(14.892578%,14.892578%,14.892578%);fill-opacity:1;"
       d="M 27.101562 201.148438 C 26.125 201.148438 25.457031 200.746094 25.101562 199.9375 C 24.746094 199.128906 24.570312 198.164062 24.570312 197.046875 C 24.570312 196.351562 24.632812 195.699219 24.761719 195.085938 C 24.890625 194.472656 25.144531 193.953125 25.519531 193.527344 C 25.894531 193.101562 26.421875 192.886719 27.101562 192.886719 C 27.632812 192.886719 28.066406 193.015625 28.402344 193.273438 C 28.734375 193.53125 28.992188 193.863281 29.167969 194.269531 C 29.34375 194.675781 29.464844 195.113281 29.527344 195.582031 C 29.589844 196.050781 29.617188 196.539062 29.617188 197.046875 C 29.617188 197.734375 29.554688 198.378906 29.429688 198.980469 C 29.304688 199.582031 29.058594 200.09375 28.6875 200.515625 C 28.316406 200.9375 27.789062 201.148438 27.101562 201.148438 Z M 27.101562 200.832031 C 27.546875 200.832031 27.878906 200.605469 28.097656 200.148438 C 28.316406 199.691406 28.449219 199.183594 28.5 198.628906 C 28.550781 198.074219 28.578125 197.484375 28.578125 196.859375 C 28.578125 196.257812 28.550781 195.703125 28.5 195.195312 C 28.449219 194.6875 28.316406 194.226562 28.101562 193.8125 C 27.886719 193.398438 27.554688 193.191406 27.101562 193.191406 C 26.648438 193.191406 26.3125 193.398438 26.09375 193.8125 C 25.875 194.226562 25.738281 194.6875 25.6875 195.195312 C 25.636719 195.703125 25.613281 196.257812 25.613281 196.859375 C 25.613281 197.304688 25.625 197.726562 25.648438 198.121094 C 25.667969 198.515625 25.730469 198.921875 25.824219 199.339844 C 25.917969 199.757812 26.066406 200.109375 26.273438 200.398438 C 26.480469 200.6875 26.757812 200.832031 27.101562 200.832031 "
       id="path82" />
    <path
       style=" stroke:none;fill-rule:nonzero;fill:rgb(14.892578%,14.892578%,14.892578%);fill-opacity:1;"
       d="M 24.699219 173.34375 L 24.699219 173.015625 C 24.699219 173 24.707031 172.980469 24.722656 172.957031 L 26.585938 170.894531 C 26.867188 170.589844 27.09375 170.335938 27.269531 170.128906 C 27.445312 169.921875 27.621094 169.683594 27.792969 169.414062 C 27.964844 169.144531 28.101562 168.867188 28.203125 168.585938 C 28.304688 168.304688 28.355469 168.007812 28.355469 167.695312 C 28.355469 167.367188 28.292969 167.054688 28.171875 166.757812 C 28.050781 166.460938 27.867188 166.222656 27.628906 166.042969 C 27.386719 165.863281 27.097656 165.773438 26.761719 165.773438 C 26.410156 165.773438 26.09375 165.878906 25.816406 166.085938 C 25.539062 166.292969 25.347656 166.5625 25.238281 166.898438 C 25.269531 166.890625 25.3125 166.886719 25.363281 166.886719 C 25.546875 166.886719 25.699219 166.949219 25.824219 167.070312 C 25.949219 167.191406 26.011719 167.34375 26.011719 167.53125 C 26.011719 167.71875 25.949219 167.875 25.824219 168 C 25.699219 168.125 25.546875 168.1875 25.363281 168.1875 C 25.175781 168.1875 25.019531 168.125 24.890625 167.996094 C 24.761719 167.867188 24.699219 167.710938 24.699219 167.53125 C 24.699219 167.234375 24.753906 166.953125 24.867188 166.6875 C 24.980469 166.421875 25.144531 166.1875 25.359375 165.984375 C 25.574219 165.78125 25.816406 165.625 26.082031 165.515625 C 26.347656 165.40625 26.632812 165.351562 26.9375 165.351562 C 27.390625 165.351562 27.8125 165.449219 28.207031 165.640625 C 28.601562 165.832031 28.914062 166.105469 29.144531 166.460938 C 29.375 166.816406 29.488281 167.226562 29.488281 167.695312 C 29.488281 168.046875 29.414062 168.378906 29.261719 168.691406 C 29.109375 169.003906 28.914062 169.289062 28.675781 169.542969 C 28.4375 169.796875 28.132812 170.085938 27.761719 170.410156 C 27.390625 170.734375 27.148438 170.949219 27.03125 171.058594 L 25.671875 172.371094 L 26.832031 172.371094 C 27.394531 172.371094 27.867188 172.367188 28.25 172.355469 C 28.632812 172.34375 28.835938 172.328125 28.859375 172.3125 C 28.953125 172.210938 29.046875 171.839844 29.140625 171.199219 L 29.488281 171.199219 L 29.152344 173.34375 L 24.699219 173.34375 "
       id="path84" />
    <path
       style=" stroke:none;fill-rule:nonzero;fill:rgb(14.892578%,14.892578%,14.892578%);fill-opacity:1;"
       d="M 24.441406 143.828125 L 24.441406 143.40625 L 28.144531 137.875 C 28.175781 137.835938 28.21875 137.816406 28.273438 137.816406 L 28.449219 137.816406 C 28.535156 137.816406 28.578125 137.859375 28.578125 137.945312 L 28.578125 143.40625 L 29.761719 143.40625 L 29.761719 143.828125 L 28.578125 143.828125 L 28.578125 145 C 28.578125 145.164062 28.695312 145.269531 28.925781 145.316406 C 29.160156 145.363281 29.4375 145.386719 29.75 145.386719 L 29.75 145.808594 L 26.445312 145.808594 L 26.445312 145.386719 C 26.75 145.386719 27.019531 145.363281 27.253906 145.316406 C 27.488281 145.269531 27.605469 145.164062 27.605469 145 L 27.605469 143.828125 Z M 24.839844 143.40625 L 27.675781 143.40625 L 27.675781 139.152344 Z M 24.839844 143.40625 "
       id="path86" />
    <path
       style=" stroke:none;fill-rule:nonzero;fill:rgb(14.892578%,14.892578%,14.892578%);fill-opacity:1;"
       d="M 27.101562 118.542969 C 26.609375 118.542969 26.195312 118.410156 25.863281 118.144531 C 25.53125 117.878906 25.273438 117.535156 25.089844 117.113281 C 24.90625 116.691406 24.78125 116.25 24.710938 115.789062 C 24.640625 115.328125 24.605469 114.863281 24.605469 114.394531 C 24.605469 113.761719 24.726562 113.125 24.972656 112.488281 C 25.21875 111.851562 25.582031 111.324219 26.0625 110.90625 C 26.542969 110.488281 27.113281 110.28125 27.769531 110.28125 C 28.042969 110.28125 28.292969 110.332031 28.53125 110.433594 C 28.765625 110.535156 28.949219 110.6875 29.085938 110.890625 C 29.222656 111.09375 29.292969 111.335938 29.292969 111.617188 C 29.292969 111.78125 29.234375 111.921875 29.121094 112.03125 C 29.007812 112.144531 28.871094 112.203125 28.707031 112.203125 C 28.550781 112.203125 28.414062 112.144531 28.300781 112.03125 C 28.1875 111.921875 28.132812 111.78125 28.132812 111.617188 C 28.132812 111.460938 28.1875 111.324219 28.300781 111.210938 C 28.414062 111.097656 28.550781 111.042969 28.707031 111.042969 L 28.777344 111.042969 C 28.671875 110.902344 28.53125 110.796875 28.34375 110.726562 C 28.15625 110.65625 27.964844 110.621094 27.769531 110.621094 C 27.527344 110.621094 27.300781 110.671875 27.09375 110.777344 C 26.886719 110.882812 26.703125 111.027344 26.539062 111.207031 C 26.375 111.386719 26.238281 111.585938 26.128906 111.804688 C 26.019531 112.023438 25.933594 112.269531 25.875 112.546875 C 25.816406 112.824219 25.78125 113.085938 25.765625 113.328125 C 25.75 113.570312 25.738281 113.875 25.738281 114.242188 C 25.882812 113.914062 26.082031 113.644531 26.339844 113.433594 C 26.597656 113.222656 26.886719 113.117188 27.207031 113.117188 C 27.566406 113.117188 27.890625 113.1875 28.183594 113.332031 C 28.476562 113.476562 28.730469 113.679688 28.941406 113.9375 C 29.152344 114.195312 29.3125 114.488281 29.421875 114.816406 C 29.53125 115.144531 29.585938 115.476562 29.585938 115.8125 C 29.585938 116.28125 29.480469 116.726562 29.273438 117.148438 C 29.066406 117.570312 28.773438 117.90625 28.394531 118.160156 C 28.015625 118.414062 27.585938 118.542969 27.101562 118.542969 Z M 27.101562 118.15625 C 27.414062 118.15625 27.664062 118.085938 27.851562 117.945312 C 28.039062 117.804688 28.175781 117.617188 28.261719 117.382812 C 28.347656 117.148438 28.402344 116.914062 28.425781 116.679688 C 28.449219 116.445312 28.460938 116.15625 28.460938 115.8125 C 28.460938 115.359375 28.4375 114.972656 28.394531 114.652344 C 28.351562 114.332031 28.234375 114.046875 28.042969 113.800781 C 27.851562 113.554688 27.558594 113.433594 27.160156 113.433594 C 26.839844 113.433594 26.574219 113.542969 26.363281 113.761719 C 26.152344 113.980469 26 114.257812 25.90625 114.59375 C 25.8125 114.929688 25.765625 115.25 25.765625 115.554688 C 25.765625 115.664062 25.769531 115.746094 25.777344 115.800781 C 25.777344 115.808594 25.773438 115.816406 25.769531 115.824219 C 25.765625 115.832031 25.765625 115.84375 25.765625 115.859375 C 25.765625 116.203125 25.800781 116.550781 25.867188 116.902344 C 25.941406 117.253906 26.074219 117.550781 26.273438 117.792969 C 26.472656 118.035156 26.75 118.15625 27.101562 118.15625 "
       id="path88" />
    <path
       style=" stroke:none;fill-rule:nonzero;fill:rgb(14.892578%,14.892578%,14.892578%);fill-opacity:1;"
       d="M 24.605469 88.910156 C 24.605469 88.433594 24.761719 88.007812 25.078125 87.636719 C 25.394531 87.265625 25.800781 86.960938 26.300781 86.71875 L 25.859375 86.425781 C 25.585938 86.246094 25.363281 86.007812 25.191406 85.710938 C 25.019531 85.414062 24.929688 85.101562 24.929688 84.773438 C 24.929688 84.390625 25.03125 84.042969 25.230469 83.734375 C 25.429688 83.425781 25.699219 83.183594 26.035156 83.007812 C 26.371094 82.832031 26.726562 82.746094 27.101562 82.746094 C 27.460938 82.746094 27.804688 82.816406 28.132812 82.960938 C 28.460938 83.105469 28.730469 83.3125 28.945312 83.582031 C 29.160156 83.851562 29.269531 84.171875 29.269531 84.535156 C 29.269531 84.8125 29.203125 85.0625 29.074219 85.292969 C 28.945312 85.523438 28.773438 85.730469 28.550781 85.914062 C 28.335938 86.097656 28.101562 86.253906 27.851562 86.378906 L 28.53125 86.824219 C 28.851562 87.027344 29.105469 87.296875 29.296875 87.632812 C 29.488281 87.96875 29.585938 88.324219 29.585938 88.699219 C 29.585938 89.128906 29.46875 89.519531 29.238281 89.875 C 29.007812 90.230469 28.703125 90.507812 28.320312 90.707031 C 27.9375 90.90625 27.53125 91.007812 27.101562 91.007812 C 26.6875 91.007812 26.289062 90.921875 25.90625 90.75 C 25.523438 90.578125 25.210938 90.332031 24.96875 90.015625 C 24.726562 89.699219 24.605469 89.328125 24.605469 88.910156 Z M 25.261719 88.910156 C 25.261719 89.230469 25.347656 89.519531 25.519531 89.78125 C 25.691406 90.042969 25.917969 90.25 26.203125 90.398438 C 26.488281 90.546875 26.789062 90.621094 27.101562 90.621094 C 27.570312 90.621094 27.992188 90.484375 28.371094 90.210938 C 28.75 89.9375 28.941406 89.578125 28.941406 89.132812 C 28.941406 88.976562 28.910156 88.824219 28.847656 88.675781 C 28.785156 88.527344 28.699219 88.390625 28.59375 88.265625 C 28.488281 88.140625 28.371094 88.039062 28.238281 87.960938 L 26.617188 86.917969 C 26.367188 87.050781 26.140625 87.21875 25.933594 87.421875 C 25.726562 87.625 25.5625 87.851562 25.441406 88.105469 C 25.320312 88.359375 25.261719 88.628906 25.261719 88.910156 Z M 26.082031 85.253906 L 27.535156 86.191406 C 27.871094 85.996094 28.144531 85.757812 28.359375 85.480469 C 28.574219 85.203125 28.679688 84.890625 28.679688 84.535156 C 28.679688 84.273438 28.605469 84.027344 28.460938 83.800781 C 28.3125 83.574219 28.117188 83.398438 27.875 83.273438 C 27.632812 83.148438 27.371094 83.085938 27.089844 83.085938 C 26.847656 83.085938 26.601562 83.132812 26.355469 83.226562 C 26.109375 83.320312 25.90625 83.460938 25.746094 83.648438 C 25.585938 83.835938 25.507812 84.054688 25.507812 84.304688 C 25.507812 84.679688 25.699219 84.996094 26.082031 85.253906 "
       id="path90" />
    <path
       style=" stroke:none;fill-rule:nonzero;fill:rgb(14.892578%,14.892578%,14.892578%);fill-opacity:1;"
       d="M 19.214844 63.203125 L 19.214844 62.777344 C 20.214844 62.777344 20.714844 62.648438 20.714844 62.394531 L 20.714844 56.101562 C 20.296875 56.296875 19.777344 56.394531 19.144531 56.394531 L 19.144531 55.972656 C 20.128906 55.972656 20.867188 55.71875 21.367188 55.210938 L 21.535156 55.210938 C 21.566406 55.210938 21.59375 55.21875 21.613281 55.238281 C 21.640625 55.257812 21.652344 55.285156 21.652344 55.3125 L 21.652344 62.394531 C 21.652344 62.648438 22.152344 62.777344 23.152344 62.777344 L 23.152344 63.203125 L 19.214844 63.203125 "
       id="path92" />
    <path
       style=" stroke:none;fill-rule:nonzero;fill:rgb(14.892578%,14.892578%,14.892578%);fill-opacity:1;"
       d="M 27.101562 63.472656 C 26.125 63.472656 25.457031 63.066406 25.101562 62.257812 C 24.746094 61.449219 24.570312 60.488281 24.570312 59.371094 C 24.570312 58.675781 24.632812 58.019531 24.761719 57.40625 C 24.890625 56.792969 25.144531 56.273438 25.519531 55.847656 C 25.894531 55.421875 26.421875 55.210938 27.101562 55.210938 C 27.632812 55.210938 28.066406 55.339844 28.402344 55.597656 C 28.734375 55.855469 28.992188 56.1875 29.167969 56.59375 C 29.34375 56.996094 29.464844 57.4375 29.527344 57.902344 C 29.589844 58.371094 29.617188 58.863281 29.617188 59.371094 C 29.617188 60.058594 29.554688 60.703125 29.429688 61.304688 C 29.304688 61.90625 29.058594 62.414062 28.6875 62.839844 C 28.316406 63.261719 27.789062 63.472656 27.101562 63.472656 Z M 27.101562 63.152344 C 27.546875 63.152344 27.878906 62.925781 28.097656 62.46875 C 28.316406 62.011719 28.449219 61.507812 28.5 60.953125 C 28.550781 60.398438 28.578125 59.808594 28.578125 59.183594 C 28.578125 58.578125 28.550781 58.023438 28.5 57.519531 C 28.449219 57.011719 28.316406 56.550781 28.101562 56.136719 C 27.886719 55.722656 27.554688 55.515625 27.101562 55.515625 C 26.648438 55.515625 26.3125 55.722656 26.09375 56.136719 C 25.875 56.550781 25.738281 57.011719 25.6875 57.519531 C 25.636719 58.023438 25.613281 58.578125 25.613281 59.183594 C 25.613281 59.628906 25.625 60.046875 25.648438 60.441406 C 25.667969 60.835938 25.730469 61.242188 25.824219 61.660156 C 25.917969 62.078125 26.066406 62.433594 26.273438 62.722656 C 26.480469 63.011719 26.757812 63.152344 27.101562 63.152344 "
       id="path94" />
    <path
       style=" stroke:none;fill-rule:nonzero;fill:rgb(14.892578%,14.892578%,14.892578%);fill-opacity:1;"
       d="M 19.214844 35.664062 L 19.214844 35.242188 C 20.214844 35.242188 20.714844 35.113281 20.714844 34.855469 L 20.714844 28.5625 C 20.296875 28.757812 19.777344 28.855469 19.144531 28.855469 L 19.144531 28.433594 C 20.128906 28.433594 20.867188 28.179688 21.367188 27.675781 L 21.535156 27.675781 C 21.566406 27.675781 21.59375 27.683594 21.613281 27.703125 C 21.640625 27.722656 21.652344 27.746094 21.652344 27.777344 L 21.652344 34.855469 C 21.652344 35.113281 22.152344 35.242188 23.152344 35.242188 L 23.152344 35.664062 L 19.214844 35.664062 "
       id="path96" />
    <path
       style=" stroke:none;fill-rule:nonzero;fill:rgb(14.892578%,14.892578%,14.892578%);fill-opacity:1;"
       d="M 24.699219 35.664062 L 24.699219 35.335938 C 24.699219 35.320312 24.707031 35.300781 24.722656 35.277344 L 26.585938 33.214844 C 26.867188 32.910156 27.09375 32.65625 27.269531 32.449219 C 27.445312 32.242188 27.621094 32.003906 27.792969 31.734375 C 27.964844 31.464844 28.101562 31.1875 28.203125 30.90625 C 28.304688 30.628906 28.355469 30.328125 28.355469 30.019531 C 28.355469 29.6875 28.292969 29.378906 28.171875 29.078125 C 28.050781 28.78125 27.867188 28.546875 27.628906 28.363281 C 27.386719 28.183594 27.097656 28.09375 26.761719 28.09375 C 26.410156 28.09375 26.09375 28.199219 25.816406 28.40625 C 25.539062 28.613281 25.347656 28.882812 25.238281 29.21875 C 25.269531 29.214844 25.3125 29.210938 25.363281 29.210938 C 25.546875 29.210938 25.699219 29.269531 25.824219 29.390625 C 25.949219 29.511719 26.011719 29.664062 26.011719 29.851562 C 26.011719 30.039062 25.949219 30.195312 25.824219 30.320312 C 25.699219 30.445312 25.546875 30.507812 25.363281 30.507812 C 25.175781 30.507812 25.019531 30.445312 24.890625 30.316406 C 24.761719 30.1875 24.699219 30.03125 24.699219 29.851562 C 24.699219 29.554688 24.753906 29.273438 24.867188 29.007812 C 24.980469 28.742188 25.144531 28.507812 25.359375 28.304688 C 25.574219 28.101562 25.816406 27.945312 26.082031 27.835938 C 26.347656 27.726562 26.632812 27.675781 26.9375 27.675781 C 27.390625 27.675781 27.8125 27.769531 28.207031 27.960938 C 28.601562 28.152344 28.914062 28.425781 29.144531 28.78125 C 29.375 29.136719 29.488281 29.546875 29.488281 30.019531 C 29.488281 30.367188 29.414062 30.699219 29.261719 31.011719 C 29.109375 31.324219 28.914062 31.609375 28.675781 31.863281 C 28.4375 32.117188 28.132812 32.40625 27.761719 32.730469 C 27.390625 33.054688 27.148438 33.269531 27.03125 33.378906 L 25.671875 34.691406 L 26.832031 34.691406 C 27.394531 34.691406 27.867188 34.6875 28.25 34.675781 C 28.632812 34.664062 28.835938 34.648438 28.859375 34.632812 C 28.953125 34.53125 29.046875 34.160156 29.140625 33.519531 L 29.488281 33.519531 L 29.152344 35.664062 L 24.699219 35.664062 "
       id="path98" />
    <path
       style=" stroke:none;fill-rule:nonzero;fill:rgb(14.892578%,14.892578%,14.892578%);fill-opacity:1;"
       d="M 19.214844 8.128906 L 19.214844 7.707031 C 20.214844 7.707031 20.714844 7.578125 20.714844 7.320312 L 20.714844 1.027344 C 20.296875 1.222656 19.777344 1.320312 19.144531 1.320312 L 19.144531 0.898438 C 20.128906 0.898438 20.867188 0.644531 21.367188 0.136719 L 21.535156 0.136719 C 21.566406 0.136719 21.59375 0.148438 21.613281 0.167969 C 21.640625 0.1875 21.652344 0.210938 21.652344 0.242188 L 21.652344 7.320312 C 21.652344 7.578125 22.152344 7.707031 23.152344 7.707031 L 23.152344 8.128906 L 19.214844 8.128906 "
       id="path100" />
    <path
       style=" stroke:none;fill-rule:nonzero;fill:rgb(14.892578%,14.892578%,14.892578%);fill-opacity:1;"
       d="M 24.441406 6.148438 L 24.441406 5.726562 L 28.144531 0.195312 C 28.175781 0.15625 28.21875 0.136719 28.273438 0.136719 L 28.449219 0.136719 C 28.535156 0.136719 28.578125 0.179688 28.578125 0.265625 L 28.578125 5.726562 L 29.761719 5.726562 L 29.761719 6.148438 L 28.578125 6.148438 L 28.578125 7.320312 C 28.578125 7.484375 28.695312 7.589844 28.925781 7.636719 C 29.160156 7.683594 29.4375 7.707031 29.75 7.707031 L 29.75 8.128906 L 26.445312 8.128906 L 26.445312 7.707031 C 26.75 7.707031 27.019531 7.683594 27.253906 7.636719 C 27.488281 7.589844 27.605469 7.484375 27.605469 7.320312 L 27.605469 6.148438 Z M 24.839844 5.726562 L 27.675781 5.726562 L 27.675781 1.472656 Z M 24.839844 5.726562 "
       id="path102" />
    <path
       style=" stroke:none;fill-rule:nonzero;fill:rgb(14.892578%,14.892578%,14.892578%);fill-opacity:1;"
       d="M 13.476562 122.347656 L 0.46875 122.347656 C 0.398438 122.347656 0.339844 122.320312 0.292969 122.265625 C 0.246094 122.210938 0.222656 122.148438 0.222656 122.078125 C 0.222656 122.007812 0.246094 121.945312 0.292969 121.890625 C 0.339844 121.835938 0.398438 121.808594 0.46875 121.808594 L 13.476562 121.808594 C 13.546875 121.808594 13.605469 121.835938 13.652344 121.890625 C 13.699219 121.945312 13.722656 122.007812 13.722656 122.078125 C 13.722656 122.148438 13.699219 122.210938 13.652344 122.265625 C 13.605469 122.320312 13.546875 122.347656 13.476562 122.347656 "
       id="path104" />
    <path
       style=" stroke:none;fill-rule:nonzero;fill:rgb(14.892578%,14.892578%,14.892578%);fill-opacity:1;"
       d="M 13.476562 118.679688 L 0.46875 118.679688 C 0.398438 118.679688 0.339844 118.652344 0.292969 118.597656 C 0.246094 118.546875 0.222656 118.480469 0.222656 118.410156 C 0.222656 118.339844 0.246094 118.277344 0.292969 118.222656 C 0.339844 118.171875 0.398438 118.140625 0.46875 118.140625 L 13.476562 118.140625 C 13.546875 118.140625 13.605469 118.171875 13.652344 118.222656 C 13.699219 118.277344 13.722656 118.339844 13.722656 118.410156 C 13.722656 118.480469 13.699219 118.546875 13.652344 118.597656 C 13.605469 118.652344 13.546875 118.679688 13.476562 118.679688 "
       id="path106" />
    <path
       style=" stroke:none;fill-rule:nonzero;fill:rgb(14.892578%,14.892578%,14.892578%);fill-opacity:1;"
       d="M 10.5 114.980469 C 10.5 115.496094 10.3125 115.867188 9.9375 116.09375 C 9.5625 116.320312 9.105469 116.433594 8.566406 116.433594 C 8.214844 116.433594 7.867188 116.398438 7.523438 116.332031 C 7.179688 116.265625 6.835938 116.167969 6.488281 116.039062 C 6.136719 115.910156 5.8125 115.761719 5.507812 115.59375 C 5.203125 115.425781 4.90625 115.242188 4.617188 115.039062 C 4.554688 115 4.523438 114.945312 4.523438 114.875 C 4.523438 114.820312 4.542969 114.773438 4.578125 114.738281 C 4.613281 114.703125 4.652344 114.6875 4.699219 114.6875 C 4.753906 114.6875 4.800781 114.703125 4.839844 114.734375 C 5.964844 115.554688 7.003906 115.964844 7.957031 115.964844 C 8.371094 115.964844 8.726562 115.867188 9.023438 115.675781 C 9.320312 115.484375 9.46875 115.195312 9.46875 114.804688 C 9.46875 114.460938 9.371094 114.144531 9.175781 113.859375 C 8.980469 113.574219 8.726562 113.328125 8.414062 113.117188 C 8.257812 113.117188 8.011719 113.089844 7.675781 113.035156 C 7.339844 112.980469 7.042969 112.894531 6.78125 112.777344 C 6.519531 112.660156 6.386719 112.519531 6.386719 112.355469 C 6.386719 112.152344 6.507812 112.050781 6.75 112.050781 C 6.890625 112.050781 7.070312 112.078125 7.285156 112.136719 C 7.5 112.195312 7.699219 112.261719 7.882812 112.328125 C 8.066406 112.402344 8.273438 112.492188 8.507812 112.601562 C 9.148438 112.492188 9.46875 112.171875 9.46875 111.640625 C 9.46875 111.328125 9.378906 111.011719 9.199219 110.695312 C 9.019531 110.378906 8.78125 110.101562 8.488281 109.859375 C 8.199219 109.617188 7.882812 109.425781 7.546875 109.289062 C 7.210938 109.152344 6.890625 109.085938 6.585938 109.085938 C 6.3125 109.085938 6.101562 109.128906 5.949219 109.214844 C 5.796875 109.300781 5.636719 109.410156 5.46875 109.554688 C 5.300781 109.695312 5.164062 109.765625 5.0625 109.765625 C 4.890625 109.765625 4.730469 109.691406 4.585938 109.542969 C 4.445312 109.394531 4.371094 109.234375 4.371094 109.0625 C 4.371094 108.84375 4.472656 108.6875 4.671875 108.59375 C 4.871094 108.496094 5.097656 108.453125 5.355469 108.453125 C 5.761719 108.453125 6.28125 108.535156 6.910156 108.699219 C 7.539062 108.863281 8.0625 109.050781 8.484375 109.261719 C 9.046875 109.550781 9.523438 109.914062 9.914062 110.351562 C 10.304688 110.789062 10.5 111.28125 10.5 111.828125 C 10.5 112.171875 10.394531 112.449219 10.183594 112.664062 C 9.972656 112.878906 9.6875 113.019531 9.328125 113.078125 C 9.6875 113.328125 9.972656 113.617188 10.183594 113.9375 C 10.394531 114.257812 10.5 114.605469 10.5 114.980469 "
       id="path108" />
    <path
       style=" stroke:none;fill-rule:nonzero;fill:rgb(14.892578%,14.892578%,14.892578%);fill-opacity:1;"
       d="M 14.074219 108.625 C 14.074219 108.679688 14.035156 108.707031 13.957031 108.707031 C 13.824219 108.691406 13.757812 108.652344 13.757812 108.589844 C 13.757812 108.402344 13.742188 108.273438 13.710938 108.199219 C 13.679688 108.125 13.59375 108.066406 13.453125 108.027344 L 9.398438 107.007812 C 9.289062 106.960938 9.144531 106.9375 8.964844 106.9375 C 8.707031 106.9375 8.578125 107.027344 8.578125 107.207031 C 8.578125 107.394531 8.691406 107.535156 8.917969 107.625 C 9.144531 107.714844 9.429688 107.800781 9.773438 107.886719 C 9.8125 107.886719 9.832031 107.910156 9.832031 107.957031 L 9.832031 108.0625 C 9.832031 108.078125 9.820312 108.097656 9.796875 108.117188 C 9.773438 108.136719 9.753906 108.144531 9.738281 108.144531 C 9.472656 108.082031 9.25 108.019531 9.070312 107.957031 C 8.890625 107.894531 8.726562 107.800781 8.578125 107.675781 C 8.429688 107.550781 8.355469 107.390625 8.355469 107.195312 C 8.355469 106.992188 8.414062 106.8125 8.523438 106.65625 C 8.636719 106.5 8.796875 106.402344 9 106.363281 C 8.804688 106.199219 8.648438 106.019531 8.53125 105.820312 C 8.414062 105.621094 8.355469 105.414062 8.355469 105.203125 C 8.355469 104.945312 8.421875 104.726562 8.554688 104.542969 C 8.6875 104.359375 8.863281 104.21875 9.082031 104.125 C 9.300781 104.03125 9.535156 103.984375 9.785156 103.984375 C 10.175781 103.984375 10.578125 104.082031 10.984375 104.277344 C 11.394531 104.472656 11.738281 104.742188 12.019531 105.082031 C 12.292969 105.421875 12.433594 105.78125 12.433594 106.164062 C 12.433594 106.34375 12.382812 106.503906 12.28125 106.644531 C 12.179688 106.785156 12.046875 106.894531 11.882812 106.972656 L 13.488281 107.382812 C 13.574219 107.398438 13.625 107.410156 13.640625 107.417969 C 13.71875 107.417969 13.757812 107.21875 13.757812 106.820312 C 13.757812 106.757812 13.796875 106.726562 13.875 106.726562 C 13.953125 106.75 14.007812 106.769531 14.03125 106.78125 C 14.058594 106.792969 14.074219 106.824219 14.074219 106.878906 Z M 12.1875 106.164062 C 12.1875 105.953125 12.101562 105.757812 11.929688 105.578125 C 11.757812 105.398438 11.566406 105.253906 11.355469 105.144531 C 11.191406 105.066406 10.992188 104.992188 10.761719 104.917969 C 10.53125 104.84375 10.285156 104.78125 10.019531 104.730469 C 9.753906 104.679688 9.542969 104.652344 9.386719 104.652344 C 9.253906 104.652344 9.125 104.671875 9.003906 104.707031 C 8.882812 104.742188 8.78125 104.800781 8.699219 104.882812 C 8.617188 104.964844 8.578125 105.074219 8.578125 105.214844 C 8.578125 105.433594 8.65625 105.640625 8.816406 105.835938 C 8.980469 106.03125 9.171875 106.207031 9.398438 106.363281 L 9.433594 106.363281 L 11.414062 106.867188 C 11.632812 106.820312 11.816406 106.738281 11.964844 106.621094 C 12.113281 106.503906 12.1875 106.351562 12.1875 106.164062 "
       id="path110" />
    <path
       style=" stroke:none;fill-rule:nonzero;fill:rgb(14.892578%,14.892578%,14.892578%);fill-opacity:1;"
       d="M 12.433594 101.9375 C 12.433594 102.226562 12.355469 102.480469 12.207031 102.695312 C 12.050781 102.910156 11.847656 103.074219 11.59375 103.1875 C 11.34375 103.300781 11.074219 103.355469 10.792969 103.355469 C 10.371094 103.355469 9.96875 103.246094 9.589844 103.035156 C 9.210938 102.820312 8.914062 102.527344 8.6875 102.160156 C 8.464844 101.792969 8.355469 101.398438 8.355469 100.976562 C 8.355469 100.71875 8.421875 100.492188 8.554688 100.296875 C 8.6875 100.101562 8.878906 100.003906 9.128906 100.003906 C 9.472656 100.003906 9.730469 100.144531 9.894531 100.421875 C 10.066406 100.699219 10.167969 101.007812 10.207031 101.351562 C 10.246094 101.695312 10.265625 102.078125 10.265625 102.5 L 10.265625 102.523438 C 10.625 102.625 10.929688 102.675781 11.179688 102.675781 C 11.453125 102.675781 11.691406 102.613281 11.886719 102.488281 C 12.085938 102.363281 12.1875 102.175781 12.1875 101.925781 C 12.1875 101.566406 12.105469 101.222656 11.941406 100.894531 C 11.777344 100.566406 11.550781 100.296875 11.261719 100.085938 C 11.246094 100.070312 11.238281 100.046875 11.238281 100.015625 C 11.238281 99.984375 11.257812 99.957031 11.289062 99.929688 C 11.324219 99.902344 11.355469 99.886719 11.378906 99.886719 C 11.402344 99.886719 11.421875 99.890625 11.4375 99.898438 C 11.742188 100.117188 11.984375 100.410156 12.164062 100.785156 C 12.34375 101.15625 12.433594 101.539062 12.433594 101.9375 Z M 10.03125 102.476562 C 10.03125 102.125 10.015625 101.800781 9.984375 101.503906 C 9.953125 101.207031 9.871094 100.941406 9.742188 100.703125 C 9.613281 100.464844 9.410156 100.34375 9.128906 100.34375 C 9.019531 100.34375 8.925781 100.375 8.839844 100.4375 C 8.757812 100.5 8.695312 100.582031 8.648438 100.679688 C 8.601562 100.777344 8.578125 100.875 8.578125 100.976562 C 8.578125 101.234375 8.648438 101.464844 8.789062 101.667969 C 8.929688 101.871094 9.109375 102.039062 9.328125 102.171875 C 9.546875 102.304688 9.78125 102.40625 10.03125 102.476562 "
       id="path112" />
    <path
       style=" stroke:none;fill-rule:nonzero;fill:rgb(14.892578%,14.892578%,14.892578%);fill-opacity:1;"
       d="M 12.175781 98.761719 C 12.136719 98.761719 12.109375 98.757812 12.09375 98.75 L 9.410156 98.082031 C 9.246094 98.035156 9.097656 98.011719 8.964844 98.011719 C 8.707031 98.011719 8.578125 98.097656 8.578125 98.269531 C 8.578125 98.457031 8.691406 98.597656 8.917969 98.691406 C 9.144531 98.785156 9.429688 98.875 9.773438 98.960938 C 9.789062 98.960938 9.800781 98.96875 9.8125 98.984375 C 9.824219 99 9.832031 99.015625 9.832031 99.03125 L 9.832031 99.136719 C 9.832031 99.160156 9.820312 99.175781 9.796875 99.1875 C 9.773438 99.199219 9.753906 99.207031 9.738281 99.207031 C 9.472656 99.144531 9.25 99.082031 9.070312 99.023438 C 8.890625 98.964844 8.726562 98.871094 8.578125 98.742188 C 8.429688 98.613281 8.355469 98.457031 8.355469 98.269531 C 8.355469 98.058594 8.414062 97.875 8.53125 97.71875 C 8.648438 97.5625 8.804688 97.464844 9 97.425781 C 8.804688 97.277344 8.648438 97.105469 8.53125 96.910156 C 8.414062 96.714844 8.355469 96.5 8.355469 96.265625 C 8.355469 96.078125 8.410156 95.910156 8.519531 95.765625 C 8.628906 95.621094 8.777344 95.550781 8.964844 95.550781 C 9.121094 95.550781 9.257812 95.597656 9.367188 95.691406 C 9.480469 95.785156 9.539062 95.910156 9.539062 96.066406 C 9.539062 96.167969 9.507812 96.25 9.445312 96.3125 C 9.382812 96.375 9.304688 96.40625 9.210938 96.40625 C 9.078125 96.40625 8.960938 96.359375 8.859375 96.265625 C 8.757812 96.171875 8.707031 96.0625 8.707031 95.9375 C 8.621094 96.03125 8.578125 96.148438 8.578125 96.289062 C 8.578125 96.546875 8.667969 96.769531 8.851562 96.957031 C 9.035156 97.144531 9.269531 97.316406 9.550781 97.472656 L 12.128906 98.117188 C 12.214844 98.132812 12.285156 98.175781 12.34375 98.25 C 12.40625 98.324219 12.433594 98.40625 12.433594 98.492188 C 12.433594 98.5625 12.410156 98.625 12.363281 98.679688 C 12.316406 98.734375 12.253906 98.761719 12.175781 98.761719 "
       id="path114" />
    <path
       style=" stroke:none;fill-rule:nonzero;fill:rgb(14.892578%,14.892578%,14.892578%);fill-opacity:1;"
       d="M 11.601562 94.464844 C 11.507812 94.464844 11.421875 94.457031 11.34375 94.441406 L 8.765625 93.796875 L 8.765625 94.734375 C 8.765625 94.796875 8.726562 94.828125 8.648438 94.828125 C 8.515625 94.804688 8.449219 94.765625 8.449219 94.710938 L 8.449219 93.714844 L 6.984375 93.351562 C 6.898438 93.328125 6.828125 93.28125 6.773438 93.210938 C 6.71875 93.140625 6.691406 93.0625 6.691406 92.976562 C 6.691406 92.898438 6.714844 92.835938 6.761719 92.78125 C 6.808594 92.730469 6.871094 92.707031 6.949219 92.707031 C 6.964844 92.707031 6.976562 92.707031 6.984375 92.707031 C 6.992188 92.707031 7.003906 92.710938 7.019531 92.71875 L 8.449219 93.070312 L 8.449219 92.144531 C 8.449219 92.082031 8.488281 92.050781 8.566406 92.050781 C 8.582031 92.058594 8.605469 92.066406 8.644531 92.074219 C 8.675781 92.082031 8.707031 92.09375 8.730469 92.109375 C 8.753906 92.125 8.765625 92.148438 8.765625 92.179688 L 8.765625 93.152344 L 11.367188 93.796875 C 11.539062 93.84375 11.683594 93.867188 11.800781 93.867188 C 12.058594 93.867188 12.1875 93.777344 12.1875 93.597656 C 12.1875 93.339844 12.0625 93.109375 11.816406 92.90625 C 11.570312 92.703125 11.300781 92.546875 11.003906 92.4375 C 10.972656 92.414062 10.957031 92.390625 10.957031 92.367188 L 10.957031 92.25 C 10.957031 92.226562 10.964844 92.207031 10.980469 92.195312 C 10.996094 92.183594 11.011719 92.179688 11.027344 92.179688 C 11.042969 92.179688 11.054688 92.179688 11.0625 92.179688 C 11.421875 92.3125 11.738281 92.503906 12.019531 92.757812 C 12.292969 93.011719 12.433594 93.300781 12.433594 93.621094 C 12.433594 93.863281 12.355469 94.0625 12.199219 94.222656 C 12.042969 94.382812 11.84375 94.464844 11.601562 94.464844 "
       id="path116" />
    <path
       style=" stroke:none;fill-rule:nonzero;fill:rgb(14.892578%,14.892578%,14.892578%);fill-opacity:1;"
       d="M 13.476562 89.425781 L 0.46875 89.425781 C 0.398438 89.425781 0.339844 89.398438 0.292969 89.34375 C 0.246094 89.289062 0.222656 89.226562 0.222656 89.15625 C 0.222656 89.085938 0.246094 89.023438 0.292969 88.96875 C 0.339844 88.914062 0.398438 88.886719 0.46875 88.886719 L 13.476562 88.886719 C 13.546875 88.886719 13.605469 88.914062 13.652344 88.96875 C 13.699219 89.023438 13.722656 89.085938 13.722656 89.15625 C 13.722656 89.226562 13.699219 89.289062 13.652344 89.34375 C 13.605469 89.398438 13.546875 89.425781 13.476562 89.425781 "
       id="path118" />
    <path
       style=" stroke:none;fill-rule:nonzero;fill:rgb(14.892578%,14.892578%,14.892578%);fill-opacity:1;"
       d="M 13.476562 85.757812 L 0.46875 85.757812 C 0.398438 85.757812 0.339844 85.730469 0.292969 85.675781 C 0.246094 85.621094 0.222656 85.558594 0.222656 85.488281 C 0.222656 85.417969 0.246094 85.355469 0.292969 85.300781 C 0.339844 85.246094 0.398438 85.21875 0.46875 85.21875 L 13.476562 85.21875 C 13.546875 85.21875 13.605469 85.246094 13.652344 85.300781 C 13.699219 85.355469 13.722656 85.417969 13.722656 85.488281 C 13.722656 85.558594 13.699219 85.621094 13.652344 85.675781 C 13.605469 85.730469 13.546875 85.757812 13.476562 85.757812 "
       id="path120" />
    <path
       style="fill:none;stroke-width:5.0025;stroke-linecap:butt;stroke-linejoin:round;stroke:rgb(0%,44.700623%,74.021912%);stroke-opacity:1;stroke-miterlimit:10;"
       d="M 723.515625 1031.484375 L 950.625 1387.734375 L 1404.84375 1673.828125 L 1859.0625 1866.601562 L 2313.28125 2016.289062 L 2464.6875 2075.234375 "
       transform="matrix(0.1,0,0,-0.1,0,230)"
       id="path122" />
    <path
       style="fill:none;stroke-width:5.0025;stroke-linecap:butt;stroke-linejoin:miter;stroke:rgb(0%,44.700623%,74.021912%);stroke-opacity:1;stroke-miterlimit:10;"
       d="M 701.015625 1008.984375 L 746.015625 1008.984375 L 746.015625 1053.984375 L 701.015625 1053.984375 Z M 701.015625 1008.984375 "
       transform="matrix(0.1,0,0,-0.1,0,230)"
       id="path124" />
    <path
       style="fill:none;stroke-width:5.0025;stroke-linecap:butt;stroke-linejoin:miter;stroke:rgb(0%,44.700623%,74.021912%);stroke-opacity:1;stroke-miterlimit:10;"
       d="M 928.125 1365.234375 L 973.125 1365.234375 L 973.125 1410.234375 L 928.125 1410.234375 Z M 928.125 1365.234375 "
       transform="matrix(0.1,0,0,-0.1,0,230)"
       id="path126" />
    <path
       style="fill:none;stroke-width:5.0025;stroke-linecap:butt;stroke-linejoin:miter;stroke:rgb(0%,44.700623%,74.021912%);stroke-opacity:1;stroke-miterlimit:10;"
       d="M 1382.34375 1651.328125 L 1427.34375 1651.328125 L 1427.34375 1696.328125 L 1382.34375 1696.328125 Z M 1382.34375 1651.328125 "
       transform="matrix(0.1,0,0,-0.1,0,230)"
       id="path128" />
    <path
       style="fill:none;stroke-width:5.0025;stroke-linecap:butt;stroke-linejoin:miter;stroke:rgb(0%,44.700623%,74.021912%);stroke-opacity:1;stroke-miterlimit:10;"
       d="M 1836.5625 1844.101562 L 1881.5625 1844.101562 L 1881.5625 1889.101562 L 1836.5625 1889.101562 Z M 1836.5625 1844.101562 "
       transform="matrix(0.1,0,0,-0.1,0,230)"
       id="path130" />
    <path
       style="fill:none;stroke-width:5.0025;stroke-linecap:butt;stroke-linejoin:miter;stroke:rgb(0%,44.700623%,74.021912%);stroke-opacity:1;stroke-miterlimit:10;"
       d="M 2290.78125 1993.789062 L 2335.78125 1993.789062 L 2335.78125 2038.789062 L 2290.78125 2038.789062 Z M 2290.78125 1993.789062 "
       transform="matrix(0.1,0,0,-0.1,0,230)"
       id="path132" />
    <path
       style="fill:none;stroke-width:5.0025;stroke-linecap:butt;stroke-linejoin:miter;stroke:rgb(0%,44.700623%,74.021912%);stroke-opacity:1;stroke-miterlimit:10;"
       d="M 2442.1875 2052.695312 L 2487.1875 2052.695312 L 2487.1875 2097.695312 L 2442.1875 2097.695312 Z M 2442.1875 2052.695312 "
       transform="matrix(0.1,0,0,-0.1,0,230)"
       id="path134" />
    <path
       style="fill:none;stroke-width:5.0025;stroke-linecap:butt;stroke-linejoin:miter;stroke:rgb(92.96875%,69.334412%,12.5%);stroke-opacity:1;stroke-miterlimit:10;"
       d="M 2323.320312 329.257812 L 2344.804688 329.257812 L 2351.835938 350 L 2358.90625 329.257812 L 2380.390625 329.257812 L 2363.242188 316.289062 L 2369.492188 295.742188 L 2351.835938 308.007812 L 2334.21875 295.742188 L 2340.429688 316.289062 Z M 2323.320312 329.257812 "
       transform="matrix(0.1,0,0,-0.1,0,230)"
       id="path150" />
    <path
       style="fill:none;stroke-width:5.0025;stroke-linecap:butt;stroke-linejoin:round;stroke:rgb(46.702576%,67.576599%,18.797302%);stroke-opacity:1;stroke-miterlimit:10;"
       d="M 2351.835938 320.117188 L 2351.835938 473.28125 L 2351.875 476.757812 L 2351.875 480.15625 L 2351.914062 483.4375 L 2351.953125 486.679688 L 2351.992188 489.882812 L 2352.03125 493.046875 L 2352.070312 496.289062 L 2352.148438 499.570312 L 2352.1875 502.96875 L 2352.265625 506.367188 L 2352.304688 509.6875 L 2352.34375 512.695312 L 2352.382812 515.46875 L 2352.421875 518.125 L 2352.421875 520.625 L 2352.460938 523.125 L 2352.460938 539.648438 L 2352.421875 541.835938 L 2352.421875 543.90625 L 2352.382812 545.820312 L 2352.34375 547.382812 L 2352.304688 548.59375 L 2352.304688 549.453125 L 2352.265625 550.117188 L 2352.226562 550.625 L 2352.226562 551.015625 "
       transform="matrix(0.1,0,0,-0.1,0,230)"
       id="path154" />
    <text
       xml:space="preserve"
       style="font-style:normal;font-variant:normal;font-weight:normal;font-stretch:normal;font-size:30px;line-height:1.25;font-family:'Latin Modern Math';-inkscape-font-specification:'Latin Modern Math';letter-spacing:0px;word-spacing:0px;fill:#000000;fill-opacity:1;stroke:none;stroke-width:0.75"
       x="21.662548"
       y="118.99373"
       id="text1922"
       transform="rotate(-32.72613)"><tspan
         sodipodi:role="line"
         id="tspan1920"
         x="21.662548"
         y="118.99373"
         style="font-size:10px;stroke-width:0.75">chaotic branch</tspan></text>
    <text
       xml:space="preserve"
       style="font-style:normal;font-variant:normal;font-weight:normal;font-stretch:normal;font-size:30px;line-height:1.25;font-family:'Latin Modern Math';-inkscape-font-specification:'Latin Modern Math';letter-spacing:0px;word-spacing:0px;fill:#000000;fill-opacity:1;stroke:none;stroke-width:0.75"
       x="208.46167"
       y="171.76857"
       id="text1926"><tspan
         sodipodi:role="line"
         x="208.46167"
         y="171.76857"
         style="font-size:10px;stroke-width:0.75"
         id="tspan1936">Hopf branch</tspan></text>
    <text
       xml:space="preserve"
       style="font-style:normal;font-variant:normal;font-weight:normal;font-stretch:normal;font-size:30px;line-height:1.25;font-family:'Latin Modern Math';-inkscape-font-specification:'Latin Modern Math';letter-spacing:0px;word-spacing:0px;fill:#000000;fill-opacity:1;stroke:none;stroke-width:0.75"
       x="59.265141"
       y="194.50983"
       id="text1942"><tspan
         sodipodi:role="line"
         id="tspan1940"
         x="59.265141"
         y="194.50983"
         style="font-size:10.0000003px;stroke-width:0.75">stable base flow</tspan></text>
    <path
       style="fill:none;stroke:#000000;stroke-width:0.74999998;stroke-linecap:butt;stroke-linejoin:miter;stroke-opacity:1;stroke-miterlimit:4;stroke-dasharray:2.24999993,0.74999998;stroke-dashoffset:0"
       d="m 81.62077,139.12077 c 38.18153,23.68934 60.34252,25.58263 94.5339,27.04449"
       id="path1946"
       inkscape:connector-curvature="0"
       sodipodi:nodetypes="cc" />
    <text
       xml:space="preserve"
       style="font-style:normal;font-variant:normal;font-weight:normal;font-stretch:normal;font-size:15px;line-height:1.25;font-family:'Latin Modern Math';-inkscape-font-specification:'Latin Modern Math';letter-spacing:0px;word-spacing:0px;fill:#000000;fill-opacity:1;stroke:none;stroke-width:0.75"
       id="text1950"
       transform="translate(4.6754969,-4.3309319)"><textPath
         xlink:href="#path1946"
         id="textPath1984"><tspan
   id="tspan1968"
   style="font-size:10px;text-align:start;text-anchor:start;stroke-width:0.75">boundary separating</tspan><tspan
   id="tspan1972"
   style="font-size:8px;text-align:start;text-anchor:start;stroke-width:0.75" /></textPath></text>
    <text
       xml:space="preserve"
       style="font-style:normal;font-variant:normal;font-weight:normal;font-stretch:normal;font-size:30px;line-height:1.25;font-family:'Latin Modern Math';-inkscape-font-specification:'Latin Modern Math';letter-spacing:0px;word-spacing:0px;fill:#000000;fill-opacity:1;stroke:none;stroke-width:0.75"
       id="text1980"
       x="-1.8951062"
       y="8.7864017"
       transform="translate(-1.8951062,9.8200957)"><textPath
         xlink:href="#path1946"
         id="textPath1988"><tspan
   style="font-size:10px;stroke-width:0.75"
   id="tspan1978"> attracting states?</tspan></textPath></text>
  </g>
</svg>
