solid cylinder 
facet normal 0.000000e+00 0.000000e+00 6.405261e+00 
	outer loop
		vertex 0.000000e+00 0.000000e+00 0.000000e+00 
		vertex 1.010000e+01 0.000000e+00 0.000000e+00 
		vertex 1.008007e+01 6.341842e-01 0.000000e+00 
	endloop
endfacet
facet normal 6.341842e-02 1.993004e-03 0.000000e+00 
	outer loop
		vertex 1.010000e+01 0.000000e+00 0.000000e+00 
		vertex 1.010000e+01 0.000000e+00 -1.000000e-01 
		vertex 1.008007e+01 6.341842e-01 -1.000000e-01 
	endloop
endfacet
facet normal 6.341842e-02 1.993004e-03 0.000000e+00 
	outer loop
		vertex 1.010000e+01 0.000000e+00 0.000000e+00 
		vertex 1.008007e+01 6.341842e-01 -1.000000e-01 
		vertex 1.008007e+01 6.341842e-01 0.000000e+00 
	endloop
endfacet
facet normal 0.000000e+00 0.000000e+00 -6.405261e+00 
	outer loop
		vertex 0.000000e+00 0.000000e+00 -1.000000e-01 
		vertex 1.008007e+01 6.341842e-01 -1.000000e-01 
		vertex 1.010000e+01 0.000000e+00 -1.000000e-01 
	endloop
endfacet
facet normal 0.000000e+00 0.000000e+00 6.405261e+00 
	outer loop
		vertex 0.000000e+00 0.000000e+00 0.000000e+00 
		vertex 1.008007e+01 6.341842e-01 0.000000e+00 
		vertex 1.002036e+01 1.265866e+00 0.000000e+00 
	endloop
endfacet
facet normal 6.316814e-02 5.971147e-03 0.000000e+00 
	outer loop
		vertex 1.008007e+01 6.341842e-01 0.000000e+00 
		vertex 1.008007e+01 6.341842e-01 -1.000000e-01 
		vertex 1.002036e+01 1.265866e+00 -1.000000e-01 
	endloop
endfacet
facet normal 6.316814e-02 5.971147e-03 0.000000e+00 
	outer loop
		vertex 1.008007e+01 6.341842e-01 0.000000e+00 
		vertex 1.002036e+01 1.265866e+00 -1.000000e-01 
		vertex 1.002036e+01 1.265866e+00 0.000000e+00 
	endloop
endfacet
facet normal 0.000000e+00 0.000000e+00 -6.405261e+00 
	outer loop
		vertex 0.000000e+00 0.000000e+00 -1.000000e-01 
		vertex 1.002036e+01 1.265866e+00 -1.000000e-01 
		vertex 1.008007e+01 6.341842e-01 -1.000000e-01 
	endloop
endfacet
facet normal 0.000000e+00 0.000000e+00 6.405261e+00 
	outer loop
		vertex 0.000000e+00 0.000000e+00 0.000000e+00 
		vertex 1.002036e+01 1.265866e+00 0.000000e+00 
		vertex 9.921101e+00 1.892551e+00 0.000000e+00 
	endloop
endfacet
facet normal 6.266856e-02 9.925725e-03 0.000000e+00 
	outer loop
		vertex 1.002036e+01 1.265866e+00 0.000000e+00 
		vertex 1.002036e+01 1.265866e+00 -1.000000e-01 
		vertex 9.921101e+00 1.892551e+00 -1.000000e-01 
	endloop
endfacet
facet normal 6.266856e-02 9.925725e-03 0.000000e+00 
	outer loop
		vertex 1.002036e+01 1.265866e+00 0.000000e+00 
		vertex 9.921101e+00 1.892551e+00 -1.000000e-01 
		vertex 9.921101e+00 1.892551e+00 0.000000e+00 
	endloop
endfacet
facet normal 0.000000e+00 0.000000e+00 -6.405261e+00 
	outer loop
		vertex 0.000000e+00 0.000000e+00 -1.000000e-01 
		vertex 9.921101e+00 1.892551e+00 -1.000000e-01 
		vertex 1.002036e+01 1.265866e+00 -1.000000e-01 
	endloop
endfacet
facet normal 0.000000e+00 0.000000e+00 6.405261e+00 
	outer loop
		vertex 0.000000e+00 0.000000e+00 0.000000e+00 
		vertex 9.921101e+00 1.892551e+00 0.000000e+00 
		vertex 9.782690e+00 2.511768e+00 0.000000e+00 
	endloop
endfacet
facet normal 6.192166e-02 1.384113e-02 0.000000e+00 
	outer loop
		vertex 9.921101e+00 1.892551e+00 0.000000e+00 
		vertex 9.921101e+00 1.892551e+00 -1.000000e-01 
		vertex 9.782690e+00 2.511768e+00 -1.000000e-01 
	endloop
endfacet
facet normal 6.192166e-02 1.384113e-02 0.000000e+00 
	outer loop
		vertex 9.921101e+00 1.892551e+00 0.000000e+00 
		vertex 9.782690e+00 2.511768e+00 -1.000000e-01 
		vertex 9.782690e+00 2.511768e+00 0.000000e+00 
	endloop
endfacet
facet normal 0.000000e+00 0.000000e+00 -6.405261e+00 
	outer loop
		vertex 0.000000e+00 0.000000e+00 -1.000000e-01 
		vertex 9.782690e+00 2.511768e+00 -1.000000e-01 
		vertex 9.921101e+00 1.892551e+00 -1.000000e-01 
	endloop
endfacet
facet normal 0.000000e+00 0.000000e+00 6.405261e+00 
	outer loop
		vertex 0.000000e+00 0.000000e+00 0.000000e+00 
		vertex 9.782690e+00 2.511768e+00 0.000000e+00 
		vertex 9.605671e+00 3.121072e+00 0.000000e+00 
	endloop
endfacet
facet normal 6.093038e-02 1.770191e-02 0.000000e+00 
	outer loop
		vertex 9.782690e+00 2.511768e+00 0.000000e+00 
		vertex 9.782690e+00 2.511768e+00 -1.000000e-01 
		vertex 9.605671e+00 3.121072e+00 -1.000000e-01 
	endloop
endfacet
facet normal 6.093038e-02 1.770191e-02 0.000000e+00 
	outer loop
		vertex 9.782690e+00 2.511768e+00 0.000000e+00 
		vertex 9.605671e+00 3.121072e+00 -1.000000e-01 
		vertex 9.605671e+00 3.121072e+00 0.000000e+00 
	endloop
endfacet
facet normal 0.000000e+00 0.000000e+00 -6.405261e+00 
	outer loop
		vertex 0.000000e+00 0.000000e+00 -1.000000e-01 
		vertex 9.605671e+00 3.121072e+00 -1.000000e-01 
		vertex 9.782690e+00 2.511768e+00 -1.000000e-01 
	endloop
endfacet
facet normal 0.000000e+00 0.000000e+00 6.405261e+00 
	outer loop
		vertex 0.000000e+00 0.000000e+00 0.000000e+00 
		vertex 9.605671e+00 3.121072e+00 0.000000e+00 
		vertex 9.390743e+00 3.718058e+00 0.000000e+00 
	endloop
endfacet
facet normal 5.969863e-02 2.149283e-02 0.000000e+00 
	outer loop
		vertex 9.605671e+00 3.121072e+00 0.000000e+00 
		vertex 9.605671e+00 3.121072e+00 -1.000000e-01 
		vertex 9.390743e+00 3.718058e+00 -1.000000e-01 
	endloop
endfacet
facet normal 5.969863e-02 2.149283e-02 0.000000e+00 
	outer loop
		vertex 9.605671e+00 3.121072e+00 0.000000e+00 
		vertex 9.390743e+00 3.718058e+00 -1.000000e-01 
		vertex 9.390743e+00 3.718058e+00 0.000000e+00 
	endloop
endfacet
facet normal 0.000000e+00 0.000000e+00 -6.405261e+00 
	outer loop
		vertex 0.000000e+00 0.000000e+00 -1.000000e-01 
		vertex 9.390743e+00 3.718058e+00 -1.000000e-01 
		vertex 9.605671e+00 3.121072e+00 -1.000000e-01 
	endloop
endfacet
facet normal 0.000000e+00 0.000000e+00 6.405261e+00 
	outer loop
		vertex 0.000000e+00 0.000000e+00 0.000000e+00 
		vertex 9.390743e+00 3.718058e+00 0.000000e+00 
		vertex 9.138753e+00 4.300371e+00 0.000000e+00 
	endloop
endfacet
facet normal 5.823129e-02 2.519893e-02 0.000000e+00 
	outer loop
		vertex 9.390743e+00 3.718058e+00 0.000000e+00 
		vertex 9.390743e+00 3.718058e+00 -1.000000e-01 
		vertex 9.138753e+00 4.300371e+00 -1.000000e-01 
	endloop
endfacet
facet normal 5.823129e-02 2.519893e-02 0.000000e+00 
	outer loop
		vertex 9.390743e+00 3.718058e+00 0.000000e+00 
		vertex 9.138753e+00 4.300371e+00 -1.000000e-01 
		vertex 9.138753e+00 4.300371e+00 0.000000e+00 
	endloop
endfacet
facet normal 0.000000e+00 0.000000e+00 -6.405261e+00 
	outer loop
		vertex 0.000000e+00 0.000000e+00 -1.000000e-01 
		vertex 9.138753e+00 4.300371e+00 -1.000000e-01 
		vertex 9.390743e+00 3.718058e+00 -1.000000e-01 
	endloop
endfacet
facet normal 0.000000e+00 0.000000e+00 6.405261e+00 
	outer loop
		vertex 0.000000e+00 0.000000e+00 0.000000e+00 
		vertex 9.138753e+00 4.300371e+00 0.000000e+00 
		vertex 8.850697e+00 4.865712e+00 0.000000e+00 
	endloop
endfacet
facet normal 5.653413e-02 2.880558e-02 0.000000e+00 
	outer loop
		vertex 9.138753e+00 4.300371e+00 0.000000e+00 
		vertex 9.138753e+00 4.300371e+00 -1.000000e-01 
		vertex 8.850697e+00 4.865712e+00 -1.000000e-01 
	endloop
endfacet
facet normal 5.653413e-02 2.880558e-02 0.000000e+00 
	outer loop
		vertex 9.138753e+00 4.300371e+00 0.000000e+00 
		vertex 8.850697e+00 4.865712e+00 -1.000000e-01 
		vertex 8.850697e+00 4.865712e+00 0.000000e+00 
	endloop
endfacet
facet normal 0.000000e+00 0.000000e+00 -6.405261e+00 
	outer loop
		vertex 0.000000e+00 0.000000e+00 -1.000000e-01 
		vertex 8.850697e+00 4.865712e+00 -1.000000e-01 
		vertex 9.138753e+00 4.300371e+00 -1.000000e-01 
	endloop
endfacet
facet normal 0.000000e+00 0.000000e+00 6.405261e+00 
	outer loop
		vertex 0.000000e+00 0.000000e+00 0.000000e+00 
		vertex 8.850697e+00 4.865712e+00 0.000000e+00 
		vertex 8.527712e+00 5.411851e+00 0.000000e+00 
	endloop
endfacet
facet normal 5.461385e-02 3.229854e-02 0.000000e+00 
	outer loop
		vertex 8.850697e+00 4.865712e+00 0.000000e+00 
		vertex 8.850697e+00 4.865712e+00 -1.000000e-01 
		vertex 8.527712e+00 5.411851e+00 -1.000000e-01 
	endloop
endfacet
facet normal 5.461385e-02 3.229854e-02 0.000000e+00 
	outer loop
		vertex 8.850697e+00 4.865712e+00 0.000000e+00 
		vertex 8.527712e+00 5.411851e+00 -1.000000e-01 
		vertex 8.527712e+00 5.411851e+00 0.000000e+00 
	endloop
endfacet
facet normal 0.000000e+00 0.000000e+00 -6.405261e+00 
	outer loop
		vertex 0.000000e+00 0.000000e+00 -1.000000e-01 
		vertex 8.527712e+00 5.411851e+00 -1.000000e-01 
		vertex 8.850697e+00 4.865712e+00 -1.000000e-01 
	endloop
endfacet
facet normal 0.000000e+00 0.000000e+00 6.405261e+00 
	outer loop
		vertex 0.000000e+00 0.000000e+00 0.000000e+00 
		vertex 8.527712e+00 5.411851e+00 0.000000e+00 
		vertex 8.171072e+00 5.936631e+00 0.000000e+00 
	endloop
endfacet
facet normal 5.247804e-02 3.566404e-02 0.000000e+00 
	outer loop
		vertex 8.527712e+00 5.411851e+00 0.000000e+00 
		vertex 8.527712e+00 5.411851e+00 -1.000000e-01 
		vertex 8.171072e+00 5.936631e+00 -1.000000e-01 
	endloop
endfacet
facet normal 5.247804e-02 3.566404e-02 0.000000e+00 
	outer loop
		vertex 8.527712e+00 5.411851e+00 0.000000e+00 
		vertex 8.171072e+00 5.936631e+00 -1.000000e-01 
		vertex 8.171072e+00 5.936631e+00 0.000000e+00 
	endloop
endfacet
facet normal 0.000000e+00 0.000000e+00 -6.405261e+00 
	outer loop
		vertex 0.000000e+00 0.000000e+00 -1.000000e-01 
		vertex 8.171072e+00 5.936631e+00 -1.000000e-01 
		vertex 8.527712e+00 5.411851e+00 -1.000000e-01 
	endloop
endfacet
facet normal 0.000000e+00 0.000000e+00 6.405261e+00 
	outer loop
		vertex 0.000000e+00 0.000000e+00 0.000000e+00 
		vertex 8.171072e+00 5.936631e+00 0.000000e+00 
		vertex 7.782184e+00 6.437982e+00 0.000000e+00 
	endloop
endfacet
facet normal 5.013512e-02 3.888879e-02 0.000000e+00 
	outer loop
		vertex 8.171072e+00 5.936631e+00 0.000000e+00 
		vertex 8.171072e+00 5.936631e+00 -1.000000e-01 
		vertex 7.782184e+00 6.437982e+00 -1.000000e-01 
	endloop
endfacet
facet normal 5.013512e-02 3.888879e-02 0.000000e+00 
	outer loop
		vertex 8.171072e+00 5.936631e+00 0.000000e+00 
		vertex 7.782184e+00 6.437982e+00 -1.000000e-01 
		vertex 7.782184e+00 6.437982e+00 0.000000e+00 
	endloop
endfacet
facet normal 0.000000e+00 0.000000e+00 -6.405261e+00 
	outer loop
		vertex 0.000000e+00 0.000000e+00 -1.000000e-01 
		vertex 7.782184e+00 6.437982e+00 -1.000000e-01 
		vertex 8.171072e+00 5.936631e+00 -1.000000e-01 
	endloop
endfacet
facet normal 0.000000e+00 0.000000e+00 6.405261e+00 
	outer loop
		vertex 0.000000e+00 0.000000e+00 0.000000e+00 
		vertex 7.782184e+00 6.437982e+00 0.000000e+00 
		vertex 7.362583e+00 6.913926e+00 0.000000e+00 
	endloop
endfacet
facet normal 4.759435e-02 4.196006e-02 0.000000e+00 
	outer loop
		vertex 7.782184e+00 6.437982e+00 0.000000e+00 
		vertex 7.782184e+00 6.437982e+00 -1.000000e-01 
		vertex 7.362583e+00 6.913926e+00 -1.000000e-01 
	endloop
endfacet
facet normal 4.759435e-02 4.196006e-02 0.000000e+00 
	outer loop
		vertex 7.782184e+00 6.437982e+00 0.000000e+00 
		vertex 7.362583e+00 6.913926e+00 -1.000000e-01 
		vertex 7.362583e+00 6.913926e+00 0.000000e+00 
	endloop
endfacet
facet normal 0.000000e+00 0.000000e+00 -6.405261e+00 
	outer loop
		vertex 0.000000e+00 0.000000e+00 -1.000000e-01 
		vertex 7.362583e+00 6.913926e+00 -1.000000e-01 
		vertex 7.782184e+00 6.437982e+00 -1.000000e-01 
	endloop
endfacet
facet normal 0.000000e+00 0.000000e+00 6.405261e+00 
	outer loop
		vertex 0.000000e+00 0.000000e+00 0.000000e+00 
		vertex 7.362583e+00 6.913926e+00 0.000000e+00 
		vertex 6.913926e+00 7.362583e+00 0.000000e+00 
	endloop
endfacet
facet normal 4.486574e-02 4.486574e-02 0.000000e+00 
	outer loop
		vertex 7.362583e+00 6.913926e+00 0.000000e+00 
		vertex 7.362583e+00 6.913926e+00 -1.000000e-01 
		vertex 6.913926e+00 7.362583e+00 -1.000000e-01 
	endloop
endfacet
facet normal 4.486574e-02 4.486574e-02 0.000000e+00 
	outer loop
		vertex 7.362583e+00 6.913926e+00 0.000000e+00 
		vertex 6.913926e+00 7.362583e+00 -1.000000e-01 
		vertex 6.913926e+00 7.362583e+00 0.000000e+00 
	endloop
endfacet
facet normal 0.000000e+00 0.000000e+00 -6.405261e+00 
	outer loop
		vertex 0.000000e+00 0.000000e+00 -1.000000e-01 
		vertex 6.913926e+00 7.362583e+00 -1.000000e-01 
		vertex 7.362583e+00 6.913926e+00 -1.000000e-01 
	endloop
endfacet
facet normal 0.000000e+00 0.000000e+00 6.405261e+00 
	outer loop
		vertex 0.000000e+00 0.000000e+00 0.000000e+00 
		vertex 6.913926e+00 7.362583e+00 0.000000e+00 
		vertex 6.437982e+00 7.782184e+00 0.000000e+00 
	endloop
endfacet
facet normal 4.196006e-02 4.759435e-02 0.000000e+00 
	outer loop
		vertex 6.913926e+00 7.362583e+00 0.000000e+00 
		vertex 6.913926e+00 7.362583e+00 -1.000000e-01 
		vertex 6.437982e+00 7.782184e+00 -1.000000e-01 
	endloop
endfacet
facet normal 4.196006e-02 4.759435e-02 0.000000e+00 
	outer loop
		vertex 6.913926e+00 7.362583e+00 0.000000e+00 
		vertex 6.437982e+00 7.782184e+00 -1.000000e-01 
		vertex 6.437982e+00 7.782184e+00 0.000000e+00 
	endloop
endfacet
facet normal 0.000000e+00 0.000000e+00 -6.405261e+00 
	outer loop
		vertex 0.000000e+00 0.000000e+00 -1.000000e-01 
		vertex 6.437982e+00 7.782184e+00 -1.000000e-01 
		vertex 6.913926e+00 7.362583e+00 -1.000000e-01 
	endloop
endfacet
facet normal 0.000000e+00 0.000000e+00 6.405261e+00 
	outer loop
		vertex 0.000000e+00 0.000000e+00 0.000000e+00 
		vertex 6.437982e+00 7.782184e+00 0.000000e+00 
		vertex 5.936631e+00 8.171072e+00 0.000000e+00 
	endloop
endfacet
facet normal 3.888879e-02 5.013512e-02 0.000000e+00 
	outer loop
		vertex 6.437982e+00 7.782184e+00 0.000000e+00 
		vertex 6.437982e+00 7.782184e+00 -1.000000e-01 
		vertex 5.936631e+00 8.171072e+00 -1.000000e-01 
	endloop
endfacet
facet normal 3.888879e-02 5.013512e-02 0.000000e+00 
	outer loop
		vertex 6.437982e+00 7.782184e+00 0.000000e+00 
		vertex 5.936631e+00 8.171072e+00 -1.000000e-01 
		vertex 5.936631e+00 8.171072e+00 0.000000e+00 
	endloop
endfacet
facet normal 0.000000e+00 0.000000e+00 -6.405261e+00 
	outer loop
		vertex 0.000000e+00 0.000000e+00 -1.000000e-01 
		vertex 5.936631e+00 8.171072e+00 -1.000000e-01 
		vertex 6.437982e+00 7.782184e+00 -1.000000e-01 
	endloop
endfacet
facet normal 0.000000e+00 0.000000e+00 6.405261e+00 
	outer loop
		vertex 0.000000e+00 0.000000e+00 0.000000e+00 
		vertex 5.936631e+00 8.171072e+00 0.000000e+00 
		vertex 5.411851e+00 8.527712e+00 0.000000e+00 
	endloop
endfacet
facet normal 3.566404e-02 5.247804e-02 0.000000e+00 
	outer loop
		vertex 5.936631e+00 8.171072e+00 0.000000e+00 
		vertex 5.936631e+00 8.171072e+00 -1.000000e-01 
		vertex 5.411851e+00 8.527712e+00 -1.000000e-01 
	endloop
endfacet
facet normal 3.566404e-02 5.247804e-02 0.000000e+00 
	outer loop
		vertex 5.936631e+00 8.171072e+00 0.000000e+00 
		vertex 5.411851e+00 8.527712e+00 -1.000000e-01 
		vertex 5.411851e+00 8.527712e+00 0.000000e+00 
	endloop
endfacet
facet normal 0.000000e+00 0.000000e+00 -6.405261e+00 
	outer loop
		vertex 0.000000e+00 0.000000e+00 -1.000000e-01 
		vertex 5.411851e+00 8.527712e+00 -1.000000e-01 
		vertex 5.936631e+00 8.171072e+00 -1.000000e-01 
	endloop
endfacet
facet normal 0.000000e+00 0.000000e+00 6.405261e+00 
	outer loop
		vertex 0.000000e+00 0.000000e+00 0.000000e+00 
		vertex 5.411851e+00 8.527712e+00 0.000000e+00 
		vertex 4.865712e+00 8.850697e+00 0.000000e+00 
	endloop
endfacet
facet normal 3.229854e-02 5.461385e-02 0.000000e+00 
	outer loop
		vertex 5.411851e+00 8.527712e+00 0.000000e+00 
		vertex 5.411851e+00 8.527712e+00 -1.000000e-01 
		vertex 4.865712e+00 8.850697e+00 -1.000000e-01 
	endloop
endfacet
facet normal 3.229854e-02 5.461385e-02 0.000000e+00 
	outer loop
		vertex 5.411851e+00 8.527712e+00 0.000000e+00 
		vertex 4.865712e+00 8.850697e+00 -1.000000e-01 
		vertex 4.865712e+00 8.850697e+00 0.000000e+00 
	endloop
endfacet
facet normal 0.000000e+00 0.000000e+00 -6.405261e+00 
	outer loop
		vertex 0.000000e+00 0.000000e+00 -1.000000e-01 
		vertex 4.865712e+00 8.850697e+00 -1.000000e-01 
		vertex 5.411851e+00 8.527712e+00 -1.000000e-01 
	endloop
endfacet
facet normal 0.000000e+00 0.000000e+00 6.405261e+00 
	outer loop
		vertex 0.000000e+00 0.000000e+00 0.000000e+00 
		vertex 4.865712e+00 8.850697e+00 0.000000e+00 
		vertex 4.300371e+00 9.138753e+00 0.000000e+00 
	endloop
endfacet
facet normal 2.880558e-02 5.653413e-02 0.000000e+00 
	outer loop
		vertex 4.865712e+00 8.850697e+00 0.000000e+00 
		vertex 4.865712e+00 8.850697e+00 -1.000000e-01 
		vertex 4.300371e+00 9.138753e+00 -1.000000e-01 
	endloop
endfacet
facet normal 2.880558e-02 5.653413e-02 0.000000e+00 
	outer loop
		vertex 4.865712e+00 8.850697e+00 0.000000e+00 
		vertex 4.300371e+00 9.138753e+00 -1.000000e-01 
		vertex 4.300371e+00 9.138753e+00 0.000000e+00 
	endloop
endfacet
facet normal 0.000000e+00 0.000000e+00 -6.405261e+00 
	outer loop
		vertex 0.000000e+00 0.000000e+00 -1.000000e-01 
		vertex 4.300371e+00 9.138753e+00 -1.000000e-01 
		vertex 4.865712e+00 8.850697e+00 -1.000000e-01 
	endloop
endfacet
facet normal 0.000000e+00 0.000000e+00 6.405261e+00 
	outer loop
		vertex 0.000000e+00 0.000000e+00 0.000000e+00 
		vertex 4.300371e+00 9.138753e+00 0.000000e+00 
		vertex 3.718058e+00 9.390743e+00 0.000000e+00 
	endloop
endfacet
facet normal 2.519893e-02 5.823129e-02 0.000000e+00 
	outer loop
		vertex 4.300371e+00 9.138753e+00 0.000000e+00 
		vertex 4.300371e+00 9.138753e+00 -1.000000e-01 
		vertex 3.718058e+00 9.390743e+00 -1.000000e-01 
	endloop
endfacet
facet normal 2.519893e-02 5.823129e-02 0.000000e+00 
	outer loop
		vertex 4.300371e+00 9.138753e+00 0.000000e+00 
		vertex 3.718058e+00 9.390743e+00 -1.000000e-01 
		vertex 3.718058e+00 9.390743e+00 0.000000e+00 
	endloop
endfacet
facet normal 0.000000e+00 0.000000e+00 -6.405261e+00 
	outer loop
		vertex 0.000000e+00 0.000000e+00 -1.000000e-01 
		vertex 3.718058e+00 9.390743e+00 -1.000000e-01 
		vertex 4.300371e+00 9.138753e+00 -1.000000e-01 
	endloop
endfacet
facet normal 0.000000e+00 0.000000e+00 6.405261e+00 
	outer loop
		vertex 0.000000e+00 0.000000e+00 0.000000e+00 
		vertex 3.718058e+00 9.390743e+00 0.000000e+00 
		vertex 3.121072e+00 9.605671e+00 0.000000e+00 
	endloop
endfacet
facet normal 2.149283e-02 5.969863e-02 0.000000e+00 
	outer loop
		vertex 3.718058e+00 9.390743e+00 0.000000e+00 
		vertex 3.718058e+00 9.390743e+00 -1.000000e-01 
		vertex 3.121072e+00 9.605671e+00 -1.000000e-01 
	endloop
endfacet
facet normal 2.149283e-02 5.969863e-02 0.000000e+00 
	outer loop
		vertex 3.718058e+00 9.390743e+00 0.000000e+00 
		vertex 3.121072e+00 9.605671e+00 -1.000000e-01 
		vertex 3.121072e+00 9.605671e+00 0.000000e+00 
	endloop
endfacet
facet normal 0.000000e+00 0.000000e+00 -6.405261e+00 
	outer loop
		vertex 0.000000e+00 0.000000e+00 -1.000000e-01 
		vertex 3.121072e+00 9.605671e+00 -1.000000e-01 
		vertex 3.718058e+00 9.390743e+00 -1.000000e-01 
	endloop
endfacet
facet normal 0.000000e+00 0.000000e+00 6.405261e+00 
	outer loop
		vertex 0.000000e+00 0.000000e+00 0.000000e+00 
		vertex 3.121072e+00 9.605671e+00 0.000000e+00 
		vertex 2.511768e+00 9.782690e+00 0.000000e+00 
	endloop
endfacet
facet normal 1.770191e-02 6.093038e-02 0.000000e+00 
	outer loop
		vertex 3.121072e+00 9.605671e+00 0.000000e+00 
		vertex 3.121072e+00 9.605671e+00 -1.000000e-01 
		vertex 2.511768e+00 9.782690e+00 -1.000000e-01 
	endloop
endfacet
facet normal 1.770191e-02 6.093038e-02 0.000000e+00 
	outer loop
		vertex 3.121072e+00 9.605671e+00 0.000000e+00 
		vertex 2.511768e+00 9.782690e+00 -1.000000e-01 
		vertex 2.511768e+00 9.782690e+00 0.000000e+00 
	endloop
endfacet
facet normal 0.000000e+00 0.000000e+00 -6.405261e+00 
	outer loop
		vertex 0.000000e+00 0.000000e+00 -1.000000e-01 
		vertex 2.511768e+00 9.782690e+00 -1.000000e-01 
		vertex 3.121072e+00 9.605671e+00 -1.000000e-01 
	endloop
endfacet
facet normal 0.000000e+00 0.000000e+00 6.405261e+00 
	outer loop
		vertex 0.000000e+00 0.000000e+00 0.000000e+00 
		vertex 2.511768e+00 9.782690e+00 0.000000e+00 
		vertex 1.892551e+00 9.921101e+00 0.000000e+00 
	endloop
endfacet
facet normal 1.384113e-02 6.192166e-02 0.000000e+00 
	outer loop
		vertex 2.511768e+00 9.782690e+00 0.000000e+00 
		vertex 2.511768e+00 9.782690e+00 -1.000000e-01 
		vertex 1.892551e+00 9.921101e+00 -1.000000e-01 
	endloop
endfacet
facet normal 1.384113e-02 6.192166e-02 0.000000e+00 
	outer loop
		vertex 2.511768e+00 9.782690e+00 0.000000e+00 
		vertex 1.892551e+00 9.921101e+00 -1.000000e-01 
		vertex 1.892551e+00 9.921101e+00 0.000000e+00 
	endloop
endfacet
facet normal 0.000000e+00 0.000000e+00 -6.405261e+00 
	outer loop
		vertex 0.000000e+00 0.000000e+00 -1.000000e-01 
		vertex 1.892551e+00 9.921101e+00 -1.000000e-01 
		vertex 2.511768e+00 9.782690e+00 -1.000000e-01 
	endloop
endfacet
facet normal 0.000000e+00 0.000000e+00 6.405261e+00 
	outer loop
		vertex 0.000000e+00 0.000000e+00 0.000000e+00 
		vertex 1.892551e+00 9.921101e+00 0.000000e+00 
		vertex 1.265866e+00 1.002036e+01 0.000000e+00 
	endloop
endfacet
facet normal 9.925725e-03 6.266856e-02 0.000000e+00 
	outer loop
		vertex 1.892551e+00 9.921101e+00 0.000000e+00 
		vertex 1.892551e+00 9.921101e+00 -1.000000e-01 
		vertex 1.265866e+00 1.002036e+01 -1.000000e-01 
	endloop
endfacet
facet normal 9.925725e-03 6.266856e-02 0.000000e+00 
	outer loop
		vertex 1.892551e+00 9.921101e+00 0.000000e+00 
		vertex 1.265866e+00 1.002036e+01 -1.000000e-01 
		vertex 1.265866e+00 1.002036e+01 0.000000e+00 
	endloop
endfacet
facet normal 0.000000e+00 0.000000e+00 -6.405261e+00 
	outer loop
		vertex 0.000000e+00 0.000000e+00 -1.000000e-01 
		vertex 1.265866e+00 1.002036e+01 -1.000000e-01 
		vertex 1.892551e+00 9.921101e+00 -1.000000e-01 
	endloop
endfacet
facet normal 0.000000e+00 0.000000e+00 6.405261e+00 
	outer loop
		vertex 0.000000e+00 0.000000e+00 0.000000e+00 
		vertex 1.265866e+00 1.002036e+01 0.000000e+00 
		vertex 6.341842e-01 1.008007e+01 0.000000e+00 
	endloop
endfacet
facet normal 5.971147e-03 6.316814e-02 0.000000e+00 
	outer loop
		vertex 1.265866e+00 1.002036e+01 0.000000e+00 
		vertex 1.265866e+00 1.002036e+01 -1.000000e-01 
		vertex 6.341842e-01 1.008007e+01 -1.000000e-01 
	endloop
endfacet
facet normal 5.971147e-03 6.316814e-02 0.000000e+00 
	outer loop
		vertex 1.265866e+00 1.002036e+01 0.000000e+00 
		vertex 6.341842e-01 1.008007e+01 -1.000000e-01 
		vertex 6.341842e-01 1.008007e+01 0.000000e+00 
	endloop
endfacet
facet normal 0.000000e+00 0.000000e+00 -6.405261e+00 
	outer loop
		vertex 0.000000e+00 0.000000e+00 -1.000000e-01 
		vertex 6.341842e-01 1.008007e+01 -1.000000e-01 
		vertex 1.265866e+00 1.002036e+01 -1.000000e-01 
	endloop
endfacet
facet normal 0.000000e+00 0.000000e+00 6.405261e+00 
	outer loop
		vertex 0.000000e+00 0.000000e+00 0.000000e+00 
		vertex 6.341842e-01 1.008007e+01 0.000000e+00 
		vertex 6.184466e-16 1.010000e+01 0.000000e+00 
	endloop
endfacet
facet normal 1.993004e-03 6.341842e-02 0.000000e+00 
	outer loop
		vertex 6.341842e-01 1.008007e+01 0.000000e+00 
		vertex 6.341842e-01 1.008007e+01 -1.000000e-01 
		vertex 6.184466e-16 1.010000e+01 -1.000000e-01 
	endloop
endfacet
facet normal 1.993004e-03 6.341842e-02 0.000000e+00 
	outer loop
		vertex 6.341842e-01 1.008007e+01 0.000000e+00 
		vertex 6.184466e-16 1.010000e+01 -1.000000e-01 
		vertex 6.184466e-16 1.010000e+01 0.000000e+00 
	endloop
endfacet
facet normal 0.000000e+00 0.000000e+00 -6.405261e+00 
	outer loop
		vertex 0.000000e+00 0.000000e+00 -1.000000e-01 
		vertex 6.184466e-16 1.010000e+01 -1.000000e-01 
		vertex 6.341842e-01 1.008007e+01 -1.000000e-01 
	endloop
endfacet
facet normal 0.000000e+00 -0.000000e+00 6.405261e+00 
	outer loop
		vertex 0.000000e+00 0.000000e+00 0.000000e+00 
		vertex 6.184466e-16 1.010000e+01 0.000000e+00 
		vertex -6.341842e-01 1.008007e+01 0.000000e+00 
	endloop
endfacet
facet normal -1.993004e-03 6.341842e-02 0.000000e+00 
	outer loop
		vertex 6.184466e-16 1.010000e+01 0.000000e+00 
		vertex 6.184466e-16 1.010000e+01 -1.000000e-01 
		vertex -6.341842e-01 1.008007e+01 -1.000000e-01 
	endloop
endfacet
facet normal -1.993004e-03 6.341842e-02 0.000000e+00 
	outer loop
		vertex 6.184466e-16 1.010000e+01 0.000000e+00 
		vertex -6.341842e-01 1.008007e+01 -1.000000e-01 
		vertex -6.341842e-01 1.008007e+01 0.000000e+00 
	endloop
endfacet
facet normal 0.000000e+00 0.000000e+00 -6.405261e+00 
	outer loop
		vertex 0.000000e+00 0.000000e+00 -1.000000e-01 
		vertex -6.341842e-01 1.008007e+01 -1.000000e-01 
		vertex 6.184466e-16 1.010000e+01 -1.000000e-01 
	endloop
endfacet
facet normal 0.000000e+00 0.000000e+00 6.405261e+00 
	outer loop
		vertex 0.000000e+00 0.000000e+00 0.000000e+00 
		vertex -6.341842e-01 1.008007e+01 0.000000e+00 
		vertex -1.265866e+00 1.002036e+01 0.000000e+00 
	endloop
endfacet
facet normal -5.971147e-03 6.316814e-02 0.000000e+00 
	outer loop
		vertex -6.341842e-01 1.008007e+01 0.000000e+00 
		vertex -6.341842e-01 1.008007e+01 -1.000000e-01 
		vertex -1.265866e+00 1.002036e+01 -1.000000e-01 
	endloop
endfacet
facet normal -5.971147e-03 6.316814e-02 0.000000e+00 
	outer loop
		vertex -6.341842e-01 1.008007e+01 0.000000e+00 
		vertex -1.265866e+00 1.002036e+01 -1.000000e-01 
		vertex -1.265866e+00 1.002036e+01 0.000000e+00 
	endloop
endfacet
facet normal 0.000000e+00 0.000000e+00 -6.405261e+00 
	outer loop
		vertex 0.000000e+00 0.000000e+00 -1.000000e-01 
		vertex -1.265866e+00 1.002036e+01 -1.000000e-01 
		vertex -6.341842e-01 1.008007e+01 -1.000000e-01 
	endloop
endfacet
facet normal 0.000000e+00 0.000000e+00 6.405261e+00 
	outer loop
		vertex 0.000000e+00 0.000000e+00 0.000000e+00 
		vertex -1.265866e+00 1.002036e+01 0.000000e+00 
		vertex -1.892551e+00 9.921101e+00 0.000000e+00 
	endloop
endfacet
facet normal -9.925725e-03 6.266856e-02 0.000000e+00 
	outer loop
		vertex -1.265866e+00 1.002036e+01 0.000000e+00 
		vertex -1.265866e+00 1.002036e+01 -1.000000e-01 
		vertex -1.892551e+00 9.921101e+00 -1.000000e-01 
	endloop
endfacet
facet normal -9.925725e-03 6.266856e-02 0.000000e+00 
	outer loop
		vertex -1.265866e+00 1.002036e+01 0.000000e+00 
		vertex -1.892551e+00 9.921101e+00 -1.000000e-01 
		vertex -1.892551e+00 9.921101e+00 0.000000e+00 
	endloop
endfacet
facet normal 0.000000e+00 0.000000e+00 -6.405261e+00 
	outer loop
		vertex 0.000000e+00 0.000000e+00 -1.000000e-01 
		vertex -1.892551e+00 9.921101e+00 -1.000000e-01 
		vertex -1.265866e+00 1.002036e+01 -1.000000e-01 
	endloop
endfacet
facet normal 0.000000e+00 0.000000e+00 6.405261e+00 
	outer loop
		vertex 0.000000e+00 0.000000e+00 0.000000e+00 
		vertex -1.892551e+00 9.921101e+00 0.000000e+00 
		vertex -2.511768e+00 9.782690e+00 0.000000e+00 
	endloop
endfacet
facet normal -1.384113e-02 6.192166e-02 0.000000e+00 
	outer loop
		vertex -1.892551e+00 9.921101e+00 0.000000e+00 
		vertex -1.892551e+00 9.921101e+00 -1.000000e-01 
		vertex -2.511768e+00 9.782690e+00 -1.000000e-01 
	endloop
endfacet
facet normal -1.384113e-02 6.192166e-02 0.000000e+00 
	outer loop
		vertex -1.892551e+00 9.921101e+00 0.000000e+00 
		vertex -2.511768e+00 9.782690e+00 -1.000000e-01 
		vertex -2.511768e+00 9.782690e+00 0.000000e+00 
	endloop
endfacet
facet normal 0.000000e+00 0.000000e+00 -6.405261e+00 
	outer loop
		vertex 0.000000e+00 0.000000e+00 -1.000000e-01 
		vertex -2.511768e+00 9.782690e+00 -1.000000e-01 
		vertex -1.892551e+00 9.921101e+00 -1.000000e-01 
	endloop
endfacet
facet normal 0.000000e+00 0.000000e+00 6.405261e+00 
	outer loop
		vertex 0.000000e+00 0.000000e+00 0.000000e+00 
		vertex -2.511768e+00 9.782690e+00 0.000000e+00 
		vertex -3.121072e+00 9.605671e+00 0.000000e+00 
	endloop
endfacet
facet normal -1.770191e-02 6.093038e-02 0.000000e+00 
	outer loop
		vertex -2.511768e+00 9.782690e+00 0.000000e+00 
		vertex -2.511768e+00 9.782690e+00 -1.000000e-01 
		vertex -3.121072e+00 9.605671e+00 -1.000000e-01 
	endloop
endfacet
facet normal -1.770191e-02 6.093038e-02 0.000000e+00 
	outer loop
		vertex -2.511768e+00 9.782690e+00 0.000000e+00 
		vertex -3.121072e+00 9.605671e+00 -1.000000e-01 
		vertex -3.121072e+00 9.605671e+00 0.000000e+00 
	endloop
endfacet
facet normal 0.000000e+00 0.000000e+00 -6.405261e+00 
	outer loop
		vertex 0.000000e+00 0.000000e+00 -1.000000e-01 
		vertex -3.121072e+00 9.605671e+00 -1.000000e-01 
		vertex -2.511768e+00 9.782690e+00 -1.000000e-01 
	endloop
endfacet
facet normal 0.000000e+00 0.000000e+00 6.405261e+00 
	outer loop
		vertex 0.000000e+00 0.000000e+00 0.000000e+00 
		vertex -3.121072e+00 9.605671e+00 0.000000e+00 
		vertex -3.718058e+00 9.390743e+00 0.000000e+00 
	endloop
endfacet
facet normal -2.149283e-02 5.969863e-02 0.000000e+00 
	outer loop
		vertex -3.121072e+00 9.605671e+00 0.000000e+00 
		vertex -3.121072e+00 9.605671e+00 -1.000000e-01 
		vertex -3.718058e+00 9.390743e+00 -1.000000e-01 
	endloop
endfacet
facet normal -2.149283e-02 5.969863e-02 0.000000e+00 
	outer loop
		vertex -3.121072e+00 9.605671e+00 0.000000e+00 
		vertex -3.718058e+00 9.390743e+00 -1.000000e-01 
		vertex -3.718058e+00 9.390743e+00 0.000000e+00 
	endloop
endfacet
facet normal 0.000000e+00 0.000000e+00 -6.405261e+00 
	outer loop
		vertex 0.000000e+00 0.000000e+00 -1.000000e-01 
		vertex -3.718058e+00 9.390743e+00 -1.000000e-01 
		vertex -3.121072e+00 9.605671e+00 -1.000000e-01 
	endloop
endfacet
facet normal 0.000000e+00 0.000000e+00 6.405261e+00 
	outer loop
		vertex 0.000000e+00 0.000000e+00 0.000000e+00 
		vertex -3.718058e+00 9.390743e+00 0.000000e+00 
		vertex -4.300371e+00 9.138753e+00 0.000000e+00 
	endloop
endfacet
facet normal -2.519893e-02 5.823129e-02 0.000000e+00 
	outer loop
		vertex -3.718058e+00 9.390743e+00 0.000000e+00 
		vertex -3.718058e+00 9.390743e+00 -1.000000e-01 
		vertex -4.300371e+00 9.138753e+00 -1.000000e-01 
	endloop
endfacet
facet normal -2.519893e-02 5.823129e-02 0.000000e+00 
	outer loop
		vertex -3.718058e+00 9.390743e+00 0.000000e+00 
		vertex -4.300371e+00 9.138753e+00 -1.000000e-01 
		vertex -4.300371e+00 9.138753e+00 0.000000e+00 
	endloop
endfacet
facet normal 0.000000e+00 0.000000e+00 -6.405261e+00 
	outer loop
		vertex 0.000000e+00 0.000000e+00 -1.000000e-01 
		vertex -4.300371e+00 9.138753e+00 -1.000000e-01 
		vertex -3.718058e+00 9.390743e+00 -1.000000e-01 
	endloop
endfacet
facet normal 0.000000e+00 0.000000e+00 6.405261e+00 
	outer loop
		vertex 0.000000e+00 0.000000e+00 0.000000e+00 
		vertex -4.300371e+00 9.138753e+00 0.000000e+00 
		vertex -4.865712e+00 8.850697e+00 0.000000e+00 
	endloop
endfacet
facet normal -2.880558e-02 5.653413e-02 0.000000e+00 
	outer loop
		vertex -4.300371e+00 9.138753e+00 0.000000e+00 
		vertex -4.300371e+00 9.138753e+00 -1.000000e-01 
		vertex -4.865712e+00 8.850697e+00 -1.000000e-01 
	endloop
endfacet
facet normal -2.880558e-02 5.653413e-02 0.000000e+00 
	outer loop
		vertex -4.300371e+00 9.138753e+00 0.000000e+00 
		vertex -4.865712e+00 8.850697e+00 -1.000000e-01 
		vertex -4.865712e+00 8.850697e+00 0.000000e+00 
	endloop
endfacet
facet normal 0.000000e+00 0.000000e+00 -6.405261e+00 
	outer loop
		vertex 0.000000e+00 0.000000e+00 -1.000000e-01 
		vertex -4.865712e+00 8.850697e+00 -1.000000e-01 
		vertex -4.300371e+00 9.138753e+00 -1.000000e-01 
	endloop
endfacet
facet normal 0.000000e+00 0.000000e+00 6.405261e+00 
	outer loop
		vertex 0.000000e+00 0.000000e+00 0.000000e+00 
		vertex -4.865712e+00 8.850697e+00 0.000000e+00 
		vertex -5.411851e+00 8.527712e+00 0.000000e+00 
	endloop
endfacet
facet normal -3.229854e-02 5.461385e-02 0.000000e+00 
	outer loop
		vertex -4.865712e+00 8.850697e+00 0.000000e+00 
		vertex -4.865712e+00 8.850697e+00 -1.000000e-01 
		vertex -5.411851e+00 8.527712e+00 -1.000000e-01 
	endloop
endfacet
facet normal -3.229854e-02 5.461385e-02 0.000000e+00 
	outer loop
		vertex -4.865712e+00 8.850697e+00 0.000000e+00 
		vertex -5.411851e+00 8.527712e+00 -1.000000e-01 
		vertex -5.411851e+00 8.527712e+00 0.000000e+00 
	endloop
endfacet
facet normal 0.000000e+00 0.000000e+00 -6.405261e+00 
	outer loop
		vertex 0.000000e+00 0.000000e+00 -1.000000e-01 
		vertex -5.411851e+00 8.527712e+00 -1.000000e-01 
		vertex -4.865712e+00 8.850697e+00 -1.000000e-01 
	endloop
endfacet
facet normal 0.000000e+00 0.000000e+00 6.405261e+00 
	outer loop
		vertex 0.000000e+00 0.000000e+00 0.000000e+00 
		vertex -5.411851e+00 8.527712e+00 0.000000e+00 
		vertex -5.936631e+00 8.171072e+00 0.000000e+00 
	endloop
endfacet
facet normal -3.566404e-02 5.247804e-02 0.000000e+00 
	outer loop
		vertex -5.411851e+00 8.527712e+00 0.000000e+00 
		vertex -5.411851e+00 8.527712e+00 -1.000000e-01 
		vertex -5.936631e+00 8.171072e+00 -1.000000e-01 
	endloop
endfacet
facet normal -3.566404e-02 5.247804e-02 0.000000e+00 
	outer loop
		vertex -5.411851e+00 8.527712e+00 0.000000e+00 
		vertex -5.936631e+00 8.171072e+00 -1.000000e-01 
		vertex -5.936631e+00 8.171072e+00 0.000000e+00 
	endloop
endfacet
facet normal 0.000000e+00 0.000000e+00 -6.405261e+00 
	outer loop
		vertex 0.000000e+00 0.000000e+00 -1.000000e-01 
		vertex -5.936631e+00 8.171072e+00 -1.000000e-01 
		vertex -5.411851e+00 8.527712e+00 -1.000000e-01 
	endloop
endfacet
facet normal 0.000000e+00 0.000000e+00 6.405261e+00 
	outer loop
		vertex 0.000000e+00 0.000000e+00 0.000000e+00 
		vertex -5.936631e+00 8.171072e+00 0.000000e+00 
		vertex -6.437982e+00 7.782184e+00 0.000000e+00 
	endloop
endfacet
facet normal -3.888879e-02 5.013512e-02 0.000000e+00 
	outer loop
		vertex -5.936631e+00 8.171072e+00 0.000000e+00 
		vertex -5.936631e+00 8.171072e+00 -1.000000e-01 
		vertex -6.437982e+00 7.782184e+00 -1.000000e-01 
	endloop
endfacet
facet normal -3.888879e-02 5.013512e-02 0.000000e+00 
	outer loop
		vertex -5.936631e+00 8.171072e+00 0.000000e+00 
		vertex -6.437982e+00 7.782184e+00 -1.000000e-01 
		vertex -6.437982e+00 7.782184e+00 0.000000e+00 
	endloop
endfacet
facet normal 0.000000e+00 0.000000e+00 -6.405261e+00 
	outer loop
		vertex 0.000000e+00 0.000000e+00 -1.000000e-01 
		vertex -6.437982e+00 7.782184e+00 -1.000000e-01 
		vertex -5.936631e+00 8.171072e+00 -1.000000e-01 
	endloop
endfacet
facet normal 0.000000e+00 0.000000e+00 6.405261e+00 
	outer loop
		vertex 0.000000e+00 0.000000e+00 0.000000e+00 
		vertex -6.437982e+00 7.782184e+00 0.000000e+00 
		vertex -6.913926e+00 7.362583e+00 0.000000e+00 
	endloop
endfacet
facet normal -4.196006e-02 4.759435e-02 0.000000e+00 
	outer loop
		vertex -6.437982e+00 7.782184e+00 0.000000e+00 
		vertex -6.437982e+00 7.782184e+00 -1.000000e-01 
		vertex -6.913926e+00 7.362583e+00 -1.000000e-01 
	endloop
endfacet
facet normal -4.196006e-02 4.759435e-02 0.000000e+00 
	outer loop
		vertex -6.437982e+00 7.782184e+00 0.000000e+00 
		vertex -6.913926e+00 7.362583e+00 -1.000000e-01 
		vertex -6.913926e+00 7.362583e+00 0.000000e+00 
	endloop
endfacet
facet normal 0.000000e+00 0.000000e+00 -6.405261e+00 
	outer loop
		vertex 0.000000e+00 0.000000e+00 -1.000000e-01 
		vertex -6.913926e+00 7.362583e+00 -1.000000e-01 
		vertex -6.437982e+00 7.782184e+00 -1.000000e-01 
	endloop
endfacet
facet normal 0.000000e+00 0.000000e+00 6.405261e+00 
	outer loop
		vertex 0.000000e+00 0.000000e+00 0.000000e+00 
		vertex -6.913926e+00 7.362583e+00 0.000000e+00 
		vertex -7.362583e+00 6.913926e+00 0.000000e+00 
	endloop
endfacet
facet normal -4.486574e-02 4.486574e-02 0.000000e+00 
	outer loop
		vertex -6.913926e+00 7.362583e+00 0.000000e+00 
		vertex -6.913926e+00 7.362583e+00 -1.000000e-01 
		vertex -7.362583e+00 6.913926e+00 -1.000000e-01 
	endloop
endfacet
facet normal -4.486574e-02 4.486574e-02 0.000000e+00 
	outer loop
		vertex -6.913926e+00 7.362583e+00 0.000000e+00 
		vertex -7.362583e+00 6.913926e+00 -1.000000e-01 
		vertex -7.362583e+00 6.913926e+00 0.000000e+00 
	endloop
endfacet
facet normal 0.000000e+00 0.000000e+00 -6.405261e+00 
	outer loop
		vertex 0.000000e+00 0.000000e+00 -1.000000e-01 
		vertex -7.362583e+00 6.913926e+00 -1.000000e-01 
		vertex -6.913926e+00 7.362583e+00 -1.000000e-01 
	endloop
endfacet
facet normal 0.000000e+00 0.000000e+00 6.405261e+00 
	outer loop
		vertex 0.000000e+00 0.000000e+00 0.000000e+00 
		vertex -7.362583e+00 6.913926e+00 0.000000e+00 
		vertex -7.782184e+00 6.437982e+00 0.000000e+00 
	endloop
endfacet
facet normal -4.759435e-02 4.196006e-02 0.000000e+00 
	outer loop
		vertex -7.362583e+00 6.913926e+00 0.000000e+00 
		vertex -7.362583e+00 6.913926e+00 -1.000000e-01 
		vertex -7.782184e+00 6.437982e+00 -1.000000e-01 
	endloop
endfacet
facet normal -4.759435e-02 4.196006e-02 0.000000e+00 
	outer loop
		vertex -7.362583e+00 6.913926e+00 0.000000e+00 
		vertex -7.782184e+00 6.437982e+00 -1.000000e-01 
		vertex -7.782184e+00 6.437982e+00 0.000000e+00 
	endloop
endfacet
facet normal 0.000000e+00 0.000000e+00 -6.405261e+00 
	outer loop
		vertex 0.000000e+00 0.000000e+00 -1.000000e-01 
		vertex -7.782184e+00 6.437982e+00 -1.000000e-01 
		vertex -7.362583e+00 6.913926e+00 -1.000000e-01 
	endloop
endfacet
facet normal 0.000000e+00 0.000000e+00 6.405261e+00 
	outer loop
		vertex 0.000000e+00 0.000000e+00 0.000000e+00 
		vertex -7.782184e+00 6.437982e+00 0.000000e+00 
		vertex -8.171072e+00 5.936631e+00 0.000000e+00 
	endloop
endfacet
facet normal -5.013512e-02 3.888879e-02 0.000000e+00 
	outer loop
		vertex -7.782184e+00 6.437982e+00 0.000000e+00 
		vertex -7.782184e+00 6.437982e+00 -1.000000e-01 
		vertex -8.171072e+00 5.936631e+00 -1.000000e-01 
	endloop
endfacet
facet normal -5.013512e-02 3.888879e-02 0.000000e+00 
	outer loop
		vertex -7.782184e+00 6.437982e+00 0.000000e+00 
		vertex -8.171072e+00 5.936631e+00 -1.000000e-01 
		vertex -8.171072e+00 5.936631e+00 0.000000e+00 
	endloop
endfacet
facet normal 0.000000e+00 0.000000e+00 -6.405261e+00 
	outer loop
		vertex 0.000000e+00 0.000000e+00 -1.000000e-01 
		vertex -8.171072e+00 5.936631e+00 -1.000000e-01 
		vertex -7.782184e+00 6.437982e+00 -1.000000e-01 
	endloop
endfacet
facet normal 0.000000e+00 0.000000e+00 6.405261e+00 
	outer loop
		vertex 0.000000e+00 0.000000e+00 0.000000e+00 
		vertex -8.171072e+00 5.936631e+00 0.000000e+00 
		vertex -8.527712e+00 5.411851e+00 0.000000e+00 
	endloop
endfacet
facet normal -5.247804e-02 3.566404e-02 0.000000e+00 
	outer loop
		vertex -8.171072e+00 5.936631e+00 0.000000e+00 
		vertex -8.171072e+00 5.936631e+00 -1.000000e-01 
		vertex -8.527712e+00 5.411851e+00 -1.000000e-01 
	endloop
endfacet
facet normal -5.247804e-02 3.566404e-02 0.000000e+00 
	outer loop
		vertex -8.171072e+00 5.936631e+00 0.000000e+00 
		vertex -8.527712e+00 5.411851e+00 -1.000000e-01 
		vertex -8.527712e+00 5.411851e+00 0.000000e+00 
	endloop
endfacet
facet normal 0.000000e+00 0.000000e+00 -6.405261e+00 
	outer loop
		vertex 0.000000e+00 0.000000e+00 -1.000000e-01 
		vertex -8.527712e+00 5.411851e+00 -1.000000e-01 
		vertex -8.171072e+00 5.936631e+00 -1.000000e-01 
	endloop
endfacet
facet normal 0.000000e+00 0.000000e+00 6.405261e+00 
	outer loop
		vertex 0.000000e+00 0.000000e+00 0.000000e+00 
		vertex -8.527712e+00 5.411851e+00 0.000000e+00 
		vertex -8.850697e+00 4.865712e+00 0.000000e+00 
	endloop
endfacet
facet normal -5.461385e-02 3.229854e-02 0.000000e+00 
	outer loop
		vertex -8.527712e+00 5.411851e+00 0.000000e+00 
		vertex -8.527712e+00 5.411851e+00 -1.000000e-01 
		vertex -8.850697e+00 4.865712e+00 -1.000000e-01 
	endloop
endfacet
facet normal -5.461385e-02 3.229854e-02 0.000000e+00 
	outer loop
		vertex -8.527712e+00 5.411851e+00 0.000000e+00 
		vertex -8.850697e+00 4.865712e+00 -1.000000e-01 
		vertex -8.850697e+00 4.865712e+00 0.000000e+00 
	endloop
endfacet
facet normal 0.000000e+00 0.000000e+00 -6.405261e+00 
	outer loop
		vertex 0.000000e+00 0.000000e+00 -1.000000e-01 
		vertex -8.850697e+00 4.865712e+00 -1.000000e-01 
		vertex -8.527712e+00 5.411851e+00 -1.000000e-01 
	endloop
endfacet
facet normal 0.000000e+00 0.000000e+00 6.405261e+00 
	outer loop
		vertex 0.000000e+00 0.000000e+00 0.000000e+00 
		vertex -8.850697e+00 4.865712e+00 0.000000e+00 
		vertex -9.138753e+00 4.300371e+00 0.000000e+00 
	endloop
endfacet
facet normal -5.653413e-02 2.880558e-02 0.000000e+00 
	outer loop
		vertex -8.850697e+00 4.865712e+00 0.000000e+00 
		vertex -8.850697e+00 4.865712e+00 -1.000000e-01 
		vertex -9.138753e+00 4.300371e+00 -1.000000e-01 
	endloop
endfacet
facet normal -5.653413e-02 2.880558e-02 0.000000e+00 
	outer loop
		vertex -8.850697e+00 4.865712e+00 0.000000e+00 
		vertex -9.138753e+00 4.300371e+00 -1.000000e-01 
		vertex -9.138753e+00 4.300371e+00 0.000000e+00 
	endloop
endfacet
facet normal 0.000000e+00 0.000000e+00 -6.405261e+00 
	outer loop
		vertex 0.000000e+00 0.000000e+00 -1.000000e-01 
		vertex -9.138753e+00 4.300371e+00 -1.000000e-01 
		vertex -8.850697e+00 4.865712e+00 -1.000000e-01 
	endloop
endfacet
facet normal 0.000000e+00 0.000000e+00 6.405261e+00 
	outer loop
		vertex 0.000000e+00 0.000000e+00 0.000000e+00 
		vertex -9.138753e+00 4.300371e+00 0.000000e+00 
		vertex -9.390743e+00 3.718058e+00 0.000000e+00 
	endloop
endfacet
facet normal -5.823129e-02 2.519893e-02 0.000000e+00 
	outer loop
		vertex -9.138753e+00 4.300371e+00 0.000000e+00 
		vertex -9.138753e+00 4.300371e+00 -1.000000e-01 
		vertex -9.390743e+00 3.718058e+00 -1.000000e-01 
	endloop
endfacet
facet normal -5.823129e-02 2.519893e-02 0.000000e+00 
	outer loop
		vertex -9.138753e+00 4.300371e+00 0.000000e+00 
		vertex -9.390743e+00 3.718058e+00 -1.000000e-01 
		vertex -9.390743e+00 3.718058e+00 0.000000e+00 
	endloop
endfacet
facet normal 0.000000e+00 0.000000e+00 -6.405261e+00 
	outer loop
		vertex 0.000000e+00 0.000000e+00 -1.000000e-01 
		vertex -9.390743e+00 3.718058e+00 -1.000000e-01 
		vertex -9.138753e+00 4.300371e+00 -1.000000e-01 
	endloop
endfacet
facet normal 0.000000e+00 0.000000e+00 6.405261e+00 
	outer loop
		vertex 0.000000e+00 0.000000e+00 0.000000e+00 
		vertex -9.390743e+00 3.718058e+00 0.000000e+00 
		vertex -9.605671e+00 3.121072e+00 0.000000e+00 
	endloop
endfacet
facet normal -5.969863e-02 2.149283e-02 0.000000e+00 
	outer loop
		vertex -9.390743e+00 3.718058e+00 0.000000e+00 
		vertex -9.390743e+00 3.718058e+00 -1.000000e-01 
		vertex -9.605671e+00 3.121072e+00 -1.000000e-01 
	endloop
endfacet
facet normal -5.969863e-02 2.149283e-02 0.000000e+00 
	outer loop
		vertex -9.390743e+00 3.718058e+00 0.000000e+00 
		vertex -9.605671e+00 3.121072e+00 -1.000000e-01 
		vertex -9.605671e+00 3.121072e+00 0.000000e+00 
	endloop
endfacet
facet normal 0.000000e+00 0.000000e+00 -6.405261e+00 
	outer loop
		vertex 0.000000e+00 0.000000e+00 -1.000000e-01 
		vertex -9.605671e+00 3.121072e+00 -1.000000e-01 
		vertex -9.390743e+00 3.718058e+00 -1.000000e-01 
	endloop
endfacet
facet normal 0.000000e+00 0.000000e+00 6.405261e+00 
	outer loop
		vertex 0.000000e+00 0.000000e+00 0.000000e+00 
		vertex -9.605671e+00 3.121072e+00 0.000000e+00 
		vertex -9.782690e+00 2.511768e+00 0.000000e+00 
	endloop
endfacet
facet normal -6.093038e-02 1.770191e-02 0.000000e+00 
	outer loop
		vertex -9.605671e+00 3.121072e+00 0.000000e+00 
		vertex -9.605671e+00 3.121072e+00 -1.000000e-01 
		vertex -9.782690e+00 2.511768e+00 -1.000000e-01 
	endloop
endfacet
facet normal -6.093038e-02 1.770191e-02 0.000000e+00 
	outer loop
		vertex -9.605671e+00 3.121072e+00 0.000000e+00 
		vertex -9.782690e+00 2.511768e+00 -1.000000e-01 
		vertex -9.782690e+00 2.511768e+00 0.000000e+00 
	endloop
endfacet
facet normal 0.000000e+00 0.000000e+00 -6.405261e+00 
	outer loop
		vertex 0.000000e+00 0.000000e+00 -1.000000e-01 
		vertex -9.782690e+00 2.511768e+00 -1.000000e-01 
		vertex -9.605671e+00 3.121072e+00 -1.000000e-01 
	endloop
endfacet
facet normal 0.000000e+00 0.000000e+00 6.405261e+00 
	outer loop
		vertex 0.000000e+00 0.000000e+00 0.000000e+00 
		vertex -9.782690e+00 2.511768e+00 0.000000e+00 
		vertex -9.921101e+00 1.892551e+00 0.000000e+00 
	endloop
endfacet
facet normal -6.192166e-02 1.384113e-02 0.000000e+00 
	outer loop
		vertex -9.782690e+00 2.511768e+00 0.000000e+00 
		vertex -9.782690e+00 2.511768e+00 -1.000000e-01 
		vertex -9.921101e+00 1.892551e+00 -1.000000e-01 
	endloop
endfacet
facet normal -6.192166e-02 1.384113e-02 0.000000e+00 
	outer loop
		vertex -9.782690e+00 2.511768e+00 0.000000e+00 
		vertex -9.921101e+00 1.892551e+00 -1.000000e-01 
		vertex -9.921101e+00 1.892551e+00 0.000000e+00 
	endloop
endfacet
facet normal 0.000000e+00 0.000000e+00 -6.405261e+00 
	outer loop
		vertex 0.000000e+00 0.000000e+00 -1.000000e-01 
		vertex -9.921101e+00 1.892551e+00 -1.000000e-01 
		vertex -9.782690e+00 2.511768e+00 -1.000000e-01 
	endloop
endfacet
facet normal 0.000000e+00 0.000000e+00 6.405261e+00 
	outer loop
		vertex 0.000000e+00 0.000000e+00 0.000000e+00 
		vertex -9.921101e+00 1.892551e+00 0.000000e+00 
		vertex -1.002036e+01 1.265866e+00 0.000000e+00 
	endloop
endfacet
facet normal -6.266856e-02 9.925725e-03 0.000000e+00 
	outer loop
		vertex -9.921101e+00 1.892551e+00 0.000000e+00 
		vertex -9.921101e+00 1.892551e+00 -1.000000e-01 
		vertex -1.002036e+01 1.265866e+00 -1.000000e-01 
	endloop
endfacet
facet normal -6.266856e-02 9.925725e-03 0.000000e+00 
	outer loop
		vertex -9.921101e+00 1.892551e+00 0.000000e+00 
		vertex -1.002036e+01 1.265866e+00 -1.000000e-01 
		vertex -1.002036e+01 1.265866e+00 0.000000e+00 
	endloop
endfacet
facet normal 0.000000e+00 0.000000e+00 -6.405261e+00 
	outer loop
		vertex 0.000000e+00 0.000000e+00 -1.000000e-01 
		vertex -1.002036e+01 1.265866e+00 -1.000000e-01 
		vertex -9.921101e+00 1.892551e+00 -1.000000e-01 
	endloop
endfacet
facet normal 0.000000e+00 0.000000e+00 6.405261e+00 
	outer loop
		vertex 0.000000e+00 0.000000e+00 0.000000e+00 
		vertex -1.002036e+01 1.265866e+00 0.000000e+00 
		vertex -1.008007e+01 6.341842e-01 0.000000e+00 
	endloop
endfacet
facet normal -6.316814e-02 5.971147e-03 0.000000e+00 
	outer loop
		vertex -1.002036e+01 1.265866e+00 0.000000e+00 
		vertex -1.002036e+01 1.265866e+00 -1.000000e-01 
		vertex -1.008007e+01 6.341842e-01 -1.000000e-01 
	endloop
endfacet
facet normal -6.316814e-02 5.971147e-03 0.000000e+00 
	outer loop
		vertex -1.002036e+01 1.265866e+00 0.000000e+00 
		vertex -1.008007e+01 6.341842e-01 -1.000000e-01 
		vertex -1.008007e+01 6.341842e-01 0.000000e+00 
	endloop
endfacet
facet normal 0.000000e+00 0.000000e+00 -6.405261e+00 
	outer loop
		vertex 0.000000e+00 0.000000e+00 -1.000000e-01 
		vertex -1.008007e+01 6.341842e-01 -1.000000e-01 
		vertex -1.002036e+01 1.265866e+00 -1.000000e-01 
	endloop
endfacet
facet normal 0.000000e+00 0.000000e+00 6.405261e+00 
	outer loop
		vertex 0.000000e+00 0.000000e+00 0.000000e+00 
		vertex -1.008007e+01 6.341842e-01 0.000000e+00 
		vertex -1.010000e+01 1.236893e-15 0.000000e+00 
	endloop
endfacet
facet normal -6.341842e-02 1.993004e-03 0.000000e+00 
	outer loop
		vertex -1.008007e+01 6.341842e-01 0.000000e+00 
		vertex -1.008007e+01 6.341842e-01 -1.000000e-01 
		vertex -1.010000e+01 1.236893e-15 -1.000000e-01 
	endloop
endfacet
facet normal -6.341842e-02 1.993004e-03 0.000000e+00 
	outer loop
		vertex -1.008007e+01 6.341842e-01 0.000000e+00 
		vertex -1.010000e+01 1.236893e-15 -1.000000e-01 
		vertex -1.010000e+01 1.236893e-15 0.000000e+00 
	endloop
endfacet
facet normal 0.000000e+00 0.000000e+00 -6.405261e+00 
	outer loop
		vertex 0.000000e+00 0.000000e+00 -1.000000e-01 
		vertex -1.010000e+01 1.236893e-15 -1.000000e-01 
		vertex -1.008007e+01 6.341842e-01 -1.000000e-01 
	endloop
endfacet
facet normal 0.000000e+00 -2.020000e+00 0.000000e+00 
	outer loop
		vertex -1.010000e+01 0.000000e+00 0.000000e+00 
		vertex -1.010000e+01 0.000000e+00 -1.000000e-01 
		vertex 1.010000e+01 0.000000e+00 0.000000e+00 
	endloop
endfacet
facet normal 0.000000e+00 2.020000e+00 0.000000e+00 
	outer loop
		vertex -1.010000e+01 0.000000e+00 -1.000000e-01 
		vertex 1.010000e+01 0.000000e+00 0.000000e+00 
		vertex 1.010000e+01 0.000000e+00 -1.000000e-01 
	endloop
endfacet
endsolid cylinder 
